<svg xmlns="http://www.w3.org/2000/svg" xmlns:xlink="http://www.w3.org/1999/xlink" viewBox="0 0 539.22 409.68"><defs><style>.cls-1{isolation:isolate;}.cls-2{fill:#3996bf;}.cls-3{mix-blend-mode:soft-light;}.cls-3,.cls-4{fill:url(#radial-gradient);}.cls-4{opacity:0.08;mix-blend-mode:screen;}.cls-5,.cls-7{fill:#fff;}.cls-6{opacity:0.3;mix-blend-mode:multiply;}.cls-7{opacity:0;}.cls-8{fill:#fcfcfc;opacity:0.02;}.cls-9{fill:#f8f9f9;opacity:0.05;}.cls-10{fill:#f5f5f5;opacity:0.07;}.cls-11{fill:#f2f2f2;opacity:0.09;}.cls-12{fill:#efefef;opacity:0.11;}.cls-13{fill:#ebecec;opacity:0.14;}.cls-14{fill:#e8e8e9;opacity:0.16;}.cls-15{fill:#e5e5e6;opacity:0.18;}.cls-16{fill:#e2e2e2;opacity:0.2;}.cls-17{fill:#dedfdf;opacity:0.23;}.cls-18{fill:#dbdbdc;opacity:0.25;}.cls-19{fill:#d8d8d9;opacity:0.27;}.cls-20{fill:#d5d5d6;opacity:0.3;}.cls-21{fill:#d1d2d2;opacity:0.32;}.cls-22{fill:#cecfcf;opacity:0.34;}.cls-23{fill:#cbcbcc;opacity:0.36;}.cls-24{fill:#c8c8c9;opacity:0.39;}.cls-25{fill:#c4c5c6;opacity:0.41;}.cls-26{fill:#c1c2c3;opacity:0.43;}.cls-27{fill:#bebebf;opacity:0.45;}.cls-28{fill:#bbbbbc;opacity:0.48;}.cls-29{fill:#b8b8b9;opacity:0.5;}.cls-30{fill:#b4b5b6;opacity:0.52;}.cls-31{fill:#b1b2b3;opacity:0.55;}.cls-32{fill:#aeaeaf;opacity:0.57;}.cls-33{fill:#ababac;opacity:0.59;}.cls-34{fill:#a7a8a9;opacity:0.61;}.cls-35{fill:#a4a5a6;opacity:0.64;}.cls-36{fill:#a1a1a3;opacity:0.66;}.cls-37{fill:#9e9ea0;opacity:0.68;}.cls-38{fill:#9a9b9c;opacity:0.7;}.cls-39{fill:#979899;opacity:0.73;}.cls-40{fill:#949596;opacity:0.75;}.cls-41{fill:#919193;opacity:0.77;}.cls-42{fill:#8d8e90;opacity:0.8;}.cls-43{fill:#8a8b8c;opacity:0.82;}.cls-44{fill:#878889;opacity:0.84;}.cls-45{fill:#848486;opacity:0.86;}.cls-46{fill:#808183;opacity:0.89;}.cls-47{fill:#7d7e80;opacity:0.91;}.cls-48{fill:#7a7b7d;opacity:0.93;}.cls-49{fill:#777779;opacity:0.95;}.cls-50{fill:#737476;opacity:0.98;}.cls-51{fill:#707173;}.cls-52,.cls-53{fill:#52a6c9;}.cls-53{font-size:24px;font-family:Myriad Pro;}</style><radialGradient id="radial-gradient" cx="269.51" cy="895.55" r="414.81" gradientTransform="translate(-22.32 -436.28) scale(1.08 0.72)" gradientUnits="userSpaceOnUse"><stop offset="0" stop-color="#bfbfbf"/><stop offset="0.22" stop-color="#bcbcbc"/><stop offset="0.39" stop-color="#b2b2b2"/><stop offset="0.55" stop-color="#a1a1a1"/><stop offset="0.7" stop-color="#898989"/><stop offset="0.85" stop-color="#6a6a6a"/><stop offset="0.98" stop-color="#454545"/><stop offset="1" stop-color="#404040"/></radialGradient></defs><title>cloud-based</title><g class="cls-1"><g id="bg"><rect class="cls-2" width="539.22" height="409.68"/><rect class="cls-3" width="539.22" height="409.68"/><rect class="cls-4" width="539.22" height="409.68"/></g><g id="elems"><polygon class="cls-5" points="249.18 104.62 253.12 104.62 253.12 150.45 254.12 150.45 254.12 104.62 258.06 104.62 253.62 96.92 249.18 104.62"/><polygon class="cls-5" points="354.57 138.79 355.24 129.94 347.24 133.79 350.49 136.01 324.66 173.87 325.49 174.43 351.32 136.57 354.57 138.79"/><polygon class="cls-5" points="406.26 191.57 408.28 195 412.66 187.27 403.78 187.34 405.77 190.74 366.26 213.96 366.77 214.82 406.28 191.6 406.26 191.57"/><polygon class="cls-5" points="180 149.11 210.33 183.46 211.08 182.8 180.75 148.45 180.37 148.78 183.7 145.84 175.28 143.01 177.04 151.72 180 149.11"/><polygon class="cls-5" points="269.08 258.32 268.08 258.32 268.08 304.15 264.14 304.15 268.58 311.84 273.02 304.15 269.08 304.15 269.08 258.32"/><polygon class="cls-5" points="360.3 296.14 334.47 258.28 333.64 258.85 359.48 296.7 356.22 298.93 364.23 302.78 363.56 293.92 360.3 296.14"/><polygon class="cls-5" points="186.99 301.41 195.45 298.7 188.88 292.73 186.99 301.41"/><rect class="cls-5" x="184.65" y="278.26" width="45.83" height="1" transform="translate(-138.34 245.09) rotate(-47.77)"/><polygon class="cls-5" points="180.02 242.01 179.56 241.12 139 262.47 137.16 258.99 132.43 266.5 141.3 266.85 139.23 262.92 139.47 263.36 180.02 242.01"/><polygon class="cls-5" points="424.06 244.88 421.8 253.47 430.37 251.13 424.06 244.88"/><rect class="cls-5" x="400.26" y="220.43" width="1" height="45.83" transform="translate(63.51 569.06) rotate(-75.27)"/><polygon class="cls-5" points="134.3 204.72 134.17 205.2 178.4 217.21 178.66 216.25 134.43 204.24 135.46 200.43 126.87 202.7 133.13 209.01 134.3 204.72"/><g class="cls-6"><path class="cls-7" d="M191.09,275.76c-26.45-.87-47.17-20.43-47.17-46.87a48.85,48.85,0,0,1,42.94-48.43,69.26,69.26,0,0,1,128.25-20.3,51.56,51.56,0,0,1,11.19-1.23,52.45,52.45,0,0,1,49.93,36.44c19.88,3,37,20.22,37,40.93,0,22.82-20.41,39.54-43.24,39.54Z"/><path class="cls-8" d="M254.74,125a68.91,68.91,0,0,1,56.24,29c0.42,0.59.86,1.23,1.26,1.84s0.85,1.19,1.23,1.81q0.85,1.29,1.65,2.63a51.27,51.27,0,0,1,11.21-1.24,52.2,52.2,0,0,1,48.18,32.15c0.27,0.64.54,1.34,0.78,2s0.52,1.32.74,2l0.11,0.33a43.58,43.58,0,0,1,26.1,14.23A38.89,38.89,0,0,1,412.32,237c0,22.31-20.81,38.65-43.11,38.65L192,275.57c-24.66-.82-45.14-18.24-46.89-42.27-0.08-1.16-.18-2.35-0.18-3.54a47.57,47.57,0,0,1,42-49.12l0.15-.65c0.2-1,.49-1.91.73-2.86,0.19-.74.39-1.53,0.6-2.27A68.62,68.62,0,0,1,254.74,125Z"/><path class="cls-9" d="M254.71,125.18a68.63,68.63,0,0,1,56.22,29.22c0.41,0.57.86,1.26,1.25,1.85s0.88,1.14,1.25,1.75q0.87,1.25,1.68,2.54a51,51,0,0,1,11.22-1.25,52,52,0,0,1,48,32.22c0.26,0.63.53,1.35,0.77,2s0.56,1.29.77,1.94l0.12,0.32a42.24,42.24,0,0,1,26.22,14.64,37.94,37.94,0,0,1,9.11,27.31c0,21.79-21.2,37.75-43,37.75l-175.5-.07c-24.08-.8-45-17.81-46.75-41.29-0.08-1.14-.22-2.29-0.22-3.46A46.37,46.37,0,0,1,187,180.83l0.16-.63c0.2-.94.55-1.86,0.78-2.79,0.18-.73.39-1.55,0.6-2.27A68.38,68.38,0,0,1,254.71,125.18Z"/><path class="cls-10" d="M254.67,125.34a68.35,68.35,0,0,1,56.2,29.39c0.4,0.56.86,1.28,1.25,1.86s0.91,1.1,1.28,1.68q0.89,1.2,1.72,2.46a50.69,50.69,0,0,1,11.24-1.26,51.7,51.7,0,0,1,47.91,32.29c0.26,0.61.53,1.37,0.76,2s0.6,1.26.8,1.89l0.12,0.31a41,41,0,0,1,26.35,15,37,37,0,0,1,8.14,27.41c0,21.27-21.59,36.85-42.86,36.85l-173.79-.07c-23.51-.78-44.93-17.39-46.6-40.3-0.08-1.11-.27-2.24-0.27-3.38A45.23,45.23,0,0,1,187,181l0.17-.62c0.19-.92.61-1.82,0.83-2.72,0.18-.71.38-1.57,0.59-2.27A68.15,68.15,0,0,1,254.67,125.34Z"/><path class="cls-11" d="M254.64,125.5a68.08,68.08,0,0,1,56.18,29.57c0.39,0.55.86,1.3,1.24,1.86s0.94,1,1.3,1.62q0.9,1.16,1.76,2.37a50.42,50.42,0,0,1,11.25-1.28A51.45,51.45,0,0,1,374.14,192c0.25,0.6.52,1.38,0.75,2s0.63,1.22.83,1.85l0.13,0.3a40,40,0,0,1,26.48,15.44,36,36,0,0,1,7.17,27.51c0,20.75-22,35.95-42.73,35.95L194.71,275c-22.94-.76-44.82-17-46.46-39.32-0.08-1.08-.31-2.19-0.31-3.3a44.16,44.16,0,0,1,39.16-51.16l0.18-.6c0.19-.89.66-1.77,0.89-2.65,0.17-.69.38-1.59,0.58-2.27A67.91,67.91,0,0,1,254.64,125.5Z"/><path class="cls-12" d="M254.61,125.66a67.81,67.81,0,0,1,56.16,29.74c0.38,0.53.87,1.32,1.23,1.87s1,1,1.32,1.56q0.92,1.12,1.8,2.29a50.14,50.14,0,0,1,11.27-1.29A51.2,51.2,0,0,1,374,192.25c0.24,0.58.52,1.4,0.74,2s0.67,1.19.87,1.8l0.13,0.29a39,39,0,0,1,26.61,15.85c6,8.42,8.19,18.44,6.21,27.61,0,20.23-22.37,35.05-42.6,35.05l-170.36-.06c-22.36-.74-44.72-16.54-46.31-38.34-0.08-1.06-.36-2.13-0.36-3.22a42.88,42.88,0,0,1,6.38-32.88,43.49,43.49,0,0,1,31.84-19l0.19-.58c0.18-.87.72-1.72,0.94-2.58,0.17-.67.38-1.61,0.57-2.28A67.68,67.68,0,0,1,254.61,125.66Z"/><path class="cls-13" d="M254.58,125.82a67.55,67.55,0,0,1,56.14,29.91c0.37,0.52.87,1.35,1.22,1.88s1,1,1.35,1.5q0.94,1.07,1.83,2.2a49.87,49.87,0,0,1,11.28-1.3A51,51,0,0,1,373.9,192.5c0.24,0.57.52,1.42,0.73,2s0.7,1.16.9,1.75l0.14,0.29a38.16,38.16,0,0,1,26.74,16.25c5.85,8.65,7.61,18.77,5.24,27.72,0,19.71-22.76,34.15-42.48,34.15l-168.65-.06c-21.79-.72-44.62-16.12-46.17-37.35-0.08-1-.4-2.08-0.4-3.14a41.74,41.74,0,0,1,5.24-33,42.76,42.76,0,0,1,32-19.48l0.21-.57c0.18-.85.78-1.67,1-2.51,0.17-.66.37-1.63,0.56-2.28A67.45,67.45,0,0,1,254.58,125.82Z"/><path class="cls-14" d="M254.55,126a67.29,67.29,0,0,1,56.13,30.09c0.36,0.51.87,1.37,1.22,1.89s1,0.91,1.37,1.44q1,1,1.87,2.11a49.61,49.61,0,0,1,11.3-1.31,50.71,50.71,0,0,1,47.35,32.55c0.23,0.55.51,1.43,0.72,2s0.74,1.13.93,1.71l0.14,0.28a37.39,37.39,0,0,1,26.87,16.66c5.69,8.88,7,19.11,4.27,27.82,0,19.19-23.16,33.25-42.35,33.25l-166.93-.06c-21.22-.7-44.51-15.69-46-36.37-0.07-1-.45-2-0.45-3.06a40.64,40.64,0,0,1,4.1-33.2,42.11,42.11,0,0,1,32.22-20l0.22-.55c0.17-.83.84-1.63,1-2.44,0.16-.64.37-1.65,0.55-2.28A67.22,67.22,0,0,1,254.55,126Z"/><path class="cls-15" d="M254.52,126.14a67,67,0,0,1,56.11,30.26c0.35,0.49.87,1.39,1.21,1.9s1.07,0.86,1.39,1.38q1,1,1.91,2a49.35,49.35,0,0,1,11.31-1.32A50.47,50.47,0,0,1,373.66,193c0.23,0.54.51,1.45,0.71,2s0.78,1.1,1,1.66l0.15,0.27a36.7,36.7,0,0,1,27,17.06c5.54,9.11,6.47,19.45,3.3,27.92,0,18.67-23.55,32.35-42.22,32.35l-165.22-.06c-20.64-.68-44.41-15.27-45.88-35.39-0.07-1-.49-2-0.49-3a39.58,39.58,0,0,1,3-33.36A41.52,41.52,0,0,1,187.34,182l0.23-.54c0.17-.8.9-1.58,1.1-2.37,0.16-.62.36-1.67,0.54-2.28A67,67,0,0,1,254.52,126.14Z"/><path class="cls-16" d="M254.48,126.3a66.79,66.79,0,0,1,56.09,30.43c0.34,0.48.87,1.41,1.2,1.91s1.1,0.81,1.42,1.31q1,0.94,1.95,1.94a49.09,49.09,0,0,1,11.33-1.33,50.23,50.23,0,0,1,47.08,32.69c0.22,0.52.51,1.47,0.71,2s0.81,1.07,1,1.62l0.15,0.26a36.07,36.07,0,0,1,27.12,17.47c5.38,9.35,5.89,19.79,2.33,28,0,18.16-23.94,31.46-42.09,31.46L199.24,274c-20.07-.66-44.3-14.84-45.73-34.4-0.07-.95-0.54-1.92-0.54-2.89-4.35-9.9-4.14-22.35,1.83-33.53a41,41,0,0,1,32.59-21l0.24-.52c0.16-.78,1-1.53,1.15-2.3,0.15-.6.36-1.69,0.53-2.28A66.76,66.76,0,0,1,254.48,126.3Z"/><path class="cls-17" d="M254.45,126.45a66.54,66.54,0,0,1,56.07,30.61c0.33,0.47.88,1.44,1.2,1.91s1.14,0.77,1.44,1.25q1,0.89,2,1.85a48.84,48.84,0,0,1,11.34-1.34,50,50,0,0,1,46.94,32.75c0.21,0.51.5,1.48,0.7,2s0.85,1,1,1.57l0.16,0.25a35.51,35.51,0,0,1,27.25,17.87c5.23,9.58,5.32,20.13,1.36,28.13,0,17.64-24.33,30.56-42,30.56l-161.79-.06c-19.5-.64-44.2-14.42-45.58-33.42-0.07-.92-0.58-1.87-0.58-2.81-4.83-9.64-5.1-22.22.7-33.69a40.53,40.53,0,0,1,32.78-21.56l0.25-.51c0.16-.76,1-1.48,1.21-2.23,0.15-.59.35-1.71,0.52-2.29A66.54,66.54,0,0,1,254.45,126.45Z"/><path class="cls-18" d="M254.42,126.61a66.3,66.3,0,0,1,56,30.78c0.32,0.45.88,1.46,1.19,1.92s1.17,0.72,1.46,1.19q1,0.85,2,1.77a48.6,48.6,0,0,1,11.36-1.35,49.76,49.76,0,0,1,46.8,32.82c0.21,0.49.5,1.5,0.69,2s0.88,1,1.05,1.52l0.16,0.25a35,35,0,0,1,27.38,18.27c5.08,9.81,4.75,20.46.39,28.23,0,17.12-24.72,29.66-41.84,29.66L201,273.63c-18.92-.63-44.09-14-45.44-32.44-0.07-.89-0.62-1.82-0.62-2.73-5.32-9.38-6.07-22.1-.44-33.85a40.12,40.12,0,0,1,33-22.08l0.26-.49c0.15-.74,1.08-1.44,1.26-2.16,0.14-.57.35-1.73,0.51-2.29A66.32,66.32,0,0,1,254.42,126.61Z"/><path class="cls-19" d="M254.39,126.77a66.07,66.07,0,0,1,56,31c0.31,0.44.88,1.48,1.18,1.93s1.2,0.67,1.49,1.13q1,0.81,2.06,1.68a48.35,48.35,0,0,1,11.37-1.36A49.52,49.52,0,0,1,373.17,194c0.2,0.48.5,1.52,0.68,2s0.92,1,1.08,1.48l0.17,0.24a34.54,34.54,0,0,1,27.51,18.68c4.92,10,4.17,20.8-.58,28.33,0,16.6-25.12,28.76-41.71,28.76l-158.37-.05c-18.35-.61-44-13.57-45.29-31.46-0.06-.87-0.67-1.76-0.67-2.65-5.8-9.11-7-22-1.57-34a39.75,39.75,0,0,1,33.16-22.6l0.28-.47c0.15-.72,1.13-1.39,1.31-2.09s0.35-1.75.5-2.29A66.1,66.1,0,0,1,254.39,126.77Z"/><path class="cls-20" d="M254.36,126.93a65.83,65.83,0,0,1,56,31.13c0.3,0.42.88,1.5,1.17,1.94s1.23,0.62,1.51,1.07q1.06,0.76,2.09,1.59a48.12,48.12,0,0,1,11.39-1.37,49.29,49.29,0,0,1,46.52,33c0.19,0.46.49,1.53,0.67,2s1,0.95,1.11,1.43l0.18,0.23A34.12,34.12,0,0,1,402.65,217c4.77,10.27,3.6,21.14-1.55,28.43,0,16.08-25.51,27.86-41.59,27.86l-156.65-.05c-17.78-.59-43.88-13.15-45.15-30.47-0.06-.84-0.71-1.71-0.71-2.57-6.28-8.85-8-21.84-2.71-34.17,5.45-12.63,18.32-22.08,33.35-23.12l0.29-.46c0.14-.69,1.19-1.34,1.37-2s0.34-1.77.49-2.29A65.88,65.88,0,0,1,254.36,126.93Z"/><path class="cls-21" d="M254.33,127.09a65.6,65.6,0,0,1,56,31.3c0.29,0.41.88,1.53,1.17,1.95s1.27,0.58,1.53,1q1.08,0.72,2.13,1.51a47.88,47.88,0,0,1,11.4-1.38,49.06,49.06,0,0,1,46.38,33c0.19,0.45.49,1.55,0.66,2s1,0.92,1.15,1.38l0.18,0.22a33.75,33.75,0,0,1,27.76,19.49c4.62,10.5,3,21.48-2.52,28.54,0,15.56-25.9,27-41.46,27l-154.94,0c-17.2-.57-43.78-12.72-45-29.49-0.06-.81-0.76-1.66-0.76-2.49-6.77-8.59-9-21.72-3.85-34.33,5.28-12.92,18.29-22.63,33.54-23.64l0.3-.44c0.14-.67,1.25-1.3,1.42-2s0.34-1.78.49-2.3A65.66,65.66,0,0,1,254.33,127.09Z"/><path class="cls-22" d="M254.29,127.25a65.38,65.38,0,0,1,56,31.48c0.28,0.4.89,1.55,1.16,2s1.3,0.53,1.56.94q1.1,0.67,2.17,1.42a47.65,47.65,0,0,1,11.42-1.39,48.83,48.83,0,0,1,46.24,33.09c0.18,0.43.49,1.57,0.65,2s1,0.89,1.18,1.34l0.19,0.21a33.41,33.41,0,0,1,27.89,19.89c4.46,10.73,2.45,21.81-3.49,28.64,0,15-26.29,26.06-41.33,26.06l-153.23,0c-16.63-.55-43.67-12.3-44.86-28.51-0.06-.79-0.8-1.6-0.8-2.41-7.25-8.33-9.93-21.59-5-34.49,5.1-13.21,18.27-23.19,33.73-24.16l0.31-.43c0.13-.65,1.31-1.25,1.47-1.89s0.33-1.8.48-2.3A65.45,65.45,0,0,1,254.29,127.25Z"/><path class="cls-23" d="M254.26,127.41a65.16,65.16,0,0,1,56,31.65c0.27,0.38.89,1.57,1.15,2s1.33,0.48,1.58.88q1.12,0.63,2.21,1.34a47.43,47.43,0,0,1,11.43-1.4A48.6,48.6,0,0,1,372.69,195c0.18,0.42.48,1.58,0.64,2s1.07,0.86,1.21,1.29l0.19,0.21c12.67,1,23.71,9.33,28,20.3s1.88,22.15-4.46,28.74c0,14.52-26.68,25.16-41.21,25.16l-151.51,0c-16.06-.53-43.57-11.87-44.71-27.52-0.06-.76-0.85-1.55-0.85-2.33-7.73-8.06-10.89-21.46-6.12-34.65,4.93-13.5,18.25-23.74,33.92-24.67l0.32-.41c0.13-.63,1.37-1.2,1.53-1.82s0.33-1.82.47-2.3A65.24,65.24,0,0,1,254.26,127.41Z"/><path class="cls-24" d="M254.23,127.57a64.94,64.94,0,0,1,55.93,31.82c0.27,0.37.89,1.59,1.15,2s1.36,0.43,1.6.82q1.13,0.59,2.24,1.25A47.2,47.2,0,0,1,326.6,162a48.38,48.38,0,0,1,46,33.22c0.17,0.4.48,1.6,0.63,2s1.1,0.83,1.24,1.25l0.2,0.2c12.84,0.92,24,9.5,28.15,20.7s1.3,22.49-5.43,28.84c0,14-27.08,24.27-41.08,24.27l-149.8,0C191,271.95,163,261,161.91,245.92c-0.05-.73-0.89-1.5-0.89-2.25-8.21-7.8-11.86-21.33-7.25-34.81,4.75-13.79,18.22-24.29,34.11-25.19l0.34-.4c0.13-.6,1.43-1.15,1.58-1.75s0.32-1.84.46-2.3A65,65,0,0,1,254.23,127.57Z"/><path class="cls-25" d="M254.2,127.73a64.72,64.72,0,0,1,55.91,32c0.26,0.36.89,1.61,1.14,2s1.39,0.39,1.63.76q1.15,0.54,2.28,1.16a47,47,0,0,1,11.46-1.42,48.16,48.16,0,0,1,45.83,33.29c0.16,0.39.48,1.61,0.62,2s1.14,0.8,1.27,1.2l0.2,0.19c13,0.89,24.28,9.68,28.28,21.1s0.73,22.83-6.4,28.95c0,13.49-27.47,23.37-41,23.37l-148.09,0c-14.91-.49-43.36-11-44.42-25.56-0.05-.7-0.94-1.45-0.94-2.17-8.7-7.54-12.82-21.21-8.39-35,4.57-14.08,18.2-24.85,34.3-25.71l0.35-.38c0.12-.58,1.49-1.11,1.63-1.68s0.32-1.86.45-2.3A64.82,64.82,0,0,1,254.2,127.73Z"/><path class="cls-26" d="M254.17,127.89a64.51,64.51,0,0,1,55.89,32.17c0.25,0.34.9,1.64,1.13,2s1.43,0.34,1.65.7q1.17,0.5,2.32,1.08a46.77,46.77,0,0,1,11.48-1.44,47.94,47.94,0,0,1,45.69,33.36c0.16,0.37.47,1.63,0.61,2s1.17,0.77,1.3,1.15l0.21,0.18c13.18,0.85,24.56,9.85,28.4,21.51s0.16,23.17-7.37,29c0,13-27.86,22.47-40.83,22.47l-146.37,0C193.95,271.6,165,261.47,164,247.5c0-.68-1-1.39-1-2.09-9.18-7.27-13.79-21.08-9.52-35.14,4.4-14.37,18.18-25.4,34.49-26.23l0.36-.36c0.12-.56,1.55-1.06,1.68-1.61s0.32-1.88.44-2.31A64.61,64.61,0,0,1,254.17,127.89Z"/><path class="cls-27" d="M254.14,128A64.31,64.31,0,0,1,310,160.39c0.24,0.33.9,1.66,1.12,2s1.46,0.29,1.67.64q1.19,0.45,2.35,1a46.56,46.56,0,0,1,11.49-1.45A47.72,47.72,0,0,1,372.2,196c0.15,0.36.47,1.65,0.6,2s1.21,0.73,1.33,1.11l0.21,0.17c13.35,0.82,24.84,10,28.53,21.91s-0.42,23.5-8.34,29.15c0,12.45-28.25,21.57-40.7,21.57l-144.66,0c-13.76-.46-43.15-10.18-44.13-23.59,0-.65-1-1.34-1-2-9.66-7-14.75-21-10.66-35.3,4.22-14.66,18.15-26,34.68-26.75l0.37-.35c0.11-.54,1.6-1,1.74-1.54s0.31-1.9.43-2.31A64.41,64.41,0,0,1,254.14,128Z"/><path class="cls-28" d="M254.11,128.2A64.1,64.1,0,0,1,310,160.72c0.23,0.31.9,1.68,1.12,2s1.49,0.25,1.7.58q1.21,0.41,2.39.9a46.35,46.35,0,0,1,11.51-1.46,47.5,47.5,0,0,1,45.41,33.49c0.14,0.34.46,1.66,0.6,2s1.25,0.7,1.36,1.06l0.22,0.17c13.52,0.79,25.12,10.2,28.66,22.32s-1,23.84-9.31,29.25c0,11.93-28.64,20.67-40.57,20.67l-142.94,0c-13.19-.44-43-9.75-44-22.61,0-.62-1.07-1.29-1.07-1.93-10.15-6.75-15.72-20.83-11.8-35.46,4-14.95,18.13-26.51,34.87-27.27l0.38-.33c0.11-.51,1.66-1,1.79-1.47s0.31-1.92.42-2.31A64.2,64.2,0,0,1,254.11,128.2Z"/><path class="cls-29" d="M254.07,128.36a63.9,63.9,0,0,1,55.83,32.69c0.22,0.3.9,1.7,1.11,2s1.52,0.2,1.72.51q1.22,0.36,2.43.82a46.14,46.14,0,0,1,11.52-1.47A47.28,47.28,0,0,1,372,196.49c0.14,0.33.46,1.68,0.59,2s1.28,0.67,1.39,1l0.22,0.16c13.69,0.75,25.4,10.37,28.79,22.72s-1.56,24.18-10.28,29.36c0,11.41-29,19.77-40.45,19.77l-141.23,0c-12.62-.42-42.94-9.33-43.84-21.63,0-.6-1.12-1.23-1.12-1.84-10.63-6.49-16.68-20.7-12.93-35.62,3.87-15.24,18.11-27.06,35.06-27.79l0.39-.32c0.1-.49,1.72-0.92,1.84-1.4s0.3-1.94.41-2.31A64,64,0,0,1,254.07,128.36Z"/><path class="cls-30" d="M254,128.52a63.7,63.7,0,0,1,55.82,32.86c0.21,0.29.9,1.73,1.1,2s1.56,0.15,1.74.45q1.24,0.32,2.47.73a45.94,45.94,0,0,1,11.54-1.48,47.07,47.07,0,0,1,45.14,33.62c0.13,0.31.46,1.7,0.58,2s1.32,0.64,1.43,1l0.23,0.15c13.86,0.72,25.69,10.54,28.92,23.12s-2.14,24.52-11.25,29.46c0,10.89-29.43,18.87-40.32,18.87l-139.52,0c-12-.4-42.84-8.91-43.7-20.64,0-.57-1.16-1.18-1.16-1.76-11.11-6.22-17.65-20.57-14.07-35.78,3.69-15.53,18.08-27.61,35.25-28.31l0.41-.3c0.1-.47,1.78-0.87,1.9-1.33s0.3-2,.4-2.32A63.8,63.8,0,0,1,254,128.52Z"/><path class="cls-31" d="M254,128.68a63.51,63.51,0,0,1,55.8,33c0.2,0.27.91,1.75,1.09,2s1.59,0.1,1.77.39q1.26,0.28,2.5.64a45.74,45.74,0,0,1,11.55-1.49,46.86,46.86,0,0,1,45,33.69c0.13,0.3.45,1.71,0.57,2s1.35,0.61,1.46.92l0.23,0.14c14,0.68,26,10.72,29,23.53s-2.71,24.85-12.22,29.56c0,10.37-29.82,18-40.19,18l-137.8,0c-11.47-.38-42.73-8.48-43.55-19.66,0-.54-1.21-1.13-1.21-1.68-11.6-6-18.61-20.45-15.2-35.94C156.36,198,170.9,185.65,188.28,185l0.42-.28c0.09-.45,1.84-0.82,2-1.26s0.3-2,.39-2.32A63.6,63.6,0,0,1,254,128.68Z"/><path class="cls-32" d="M254,128.84a63.32,63.32,0,0,1,55.78,33.21c0.19,0.26.91,1.77,1.09,2s1.62,0.06,1.79.33q1.28,0.23,2.54.56a45.54,45.54,0,0,1,11.57-1.5,46.65,46.65,0,0,1,44.86,33.76c0.12,0.28.45,1.73,0.56,2s1.39,0.58,1.49.88l0.24,0.14c14.2,0.65,26.25,10.89,29.17,23.93s-3.28,25.19-13.19,29.66c0,9.86-30.21,17.08-40.07,17.08l-136.09,0c-10.9-.36-42.63-8.06-43.4-18.68,0-.51-1.25-1.08-1.25-1.6-12.08-5.7-19.58-20.32-16.34-36.1,3.34-16.11,18-28.72,35.63-29.35l0.43-.27c0.09-.42,1.9-0.77,2-1.19s0.29-2,.38-2.32A63.41,63.41,0,0,1,254,128.84Z"/><path class="cls-33" d="M253.95,129a63.13,63.13,0,0,1,55.76,33.38c0.18,0.25.91,1.79,1.08,2s1.65,0,1.81.27q1.29,0.19,2.58.47a45.35,45.35,0,0,1,11.58-1.51,46.44,46.44,0,0,1,44.72,33.82c0.11,0.27.45,1.75,0.55,2s1.43,0.55,1.52.83l0.24,0.13c14.37,0.62,26.53,11.06,29.3,24.34s-3.86,25.53-14.16,29.77c0,9.34-30.6,16.18-39.94,16.18l-134.38,0c-10.32-.34-42.53-7.63-43.26-17.69,0-.49-1.3-1-1.3-1.52-12.56-5.43-20.55-20.19-17.48-36.26,3.17-16.4,18-29.27,35.82-29.87l0.44-.25c0.08-.4,2-0.73,2.06-1.12s0.29-2,.38-2.32A63.21,63.21,0,0,1,253.95,129Z"/><path class="cls-34" d="M253.92,129.16a63,63,0,0,1,55.74,33.56c0.17,0.23.91,1.82,1.07,2.05s1.68,0,1.84.21q1.31,0.14,2.61.39a45.16,45.16,0,0,1,11.6-1.52,46.23,46.23,0,0,1,44.58,33.89c0.11,0.25.44,1.76,0.54,2s1.46,0.52,1.55.78l0.25,0.12c14.54,0.58,26.81,11.24,29.43,24.74s-4.43,25.87-15.13,29.87c0,8.82-31,15.28-39.81,15.28l-132.66,0c-9.75-.32-42.42-7.21-43.11-16.71,0-.46-1.34-1-1.34-1.44-13-5.17-21.51-20.06-18.61-36.43,3-16.69,18-29.82,36-30.39l0.45-.24c0.08-.38,2-0.68,2.11-1.05s0.28-2,.37-2.32A63,63,0,0,1,253.92,129.16Z"/><path class="cls-35" d="M253.88,129.32A62.77,62.77,0,0,1,309.6,163c0.16,0.22.91,1.84,1.07,2.06s1.72-.08,1.86.14q1.33,0.1,2.65.3A45,45,0,0,1,326.79,164a46,46,0,0,1,44.44,34c0.1,0.24.44,1.78,0.53,2s1.5,0.49,1.58.74l0.25,0.11c14.71,0.55,27.1,11.41,29.56,25.15s-5,26.21-16.1,30c0,8.3-31.39,14.38-39.69,14.38l-130.95,0c-9.18-.3-42.32-6.79-43-15.73,0-.43-1.39-0.92-1.39-1.36-13.53-4.91-22.48-19.94-19.75-36.59,2.81-17,18-30.38,36.2-30.91l0.47-.22c0.07-.36,2.07-0.63,2.16-1s0.28-2.05.36-2.33A62.83,62.83,0,0,1,253.88,129.32Z"/><path class="cls-36" d="M253.85,129.48a62.59,62.59,0,0,1,55.7,33.91c0.15,0.21.92,1.86,1.06,2.07s1.75-.13,1.88.08q1.35,0.06,2.69.21a44.79,44.79,0,0,1,11.63-1.54,45.82,45.82,0,0,1,44.31,34c0.09,0.22.44,1.8,0.52,2s1.54,0.46,1.61.69l0.26,0.1c14.88,0.51,27.38,11.58,29.69,25.55s-5.58,26.54-17.07,30.07c0,7.78-31.78,13.48-39.56,13.48l-129.24,0c-8.6-.28-42.21-6.36-42.82-14.74,0-.41-1.43-0.86-1.43-1.28-14-4.64-23.44-19.81-20.88-36.75,2.64-17.27,17.94-30.93,36.39-31.43l0.48-.21c0.07-.34,2.13-0.58,2.22-0.91s0.27-2.07.35-2.33A62.64,62.64,0,0,1,253.85,129.48Z"/><path class="cls-37" d="M253.82,129.63a62.42,62.42,0,0,1,55.68,34.08c0.14,0.19.92,1.88,1.05,2.08s1.78-.18,1.91,0q1.37,0,2.73.13a44.61,44.61,0,0,1,11.64-1.55A45.62,45.62,0,0,1,371,198.48c0.09,0.21.43,1.81,0.51,2s1.57,0.43,1.64.65l0.26,0.1c15,0.48,27.66,11.76,29.81,26s-6.15,26.88-18,30.18c0,7.26-32.17,12.58-39.43,12.58l-127.52,0c-8-.27-42.11-5.94-42.68-13.76,0-.38-1.48-0.81-1.48-1.2-14.5-4.38-24.41-19.68-22-36.91,2.46-17.56,17.92-31.48,36.58-32l0.49-.19c0.07-.31,2.19-0.54,2.27-0.84s0.27-2.09.34-2.33A62.45,62.45,0,0,1,253.82,129.63Z"/><path class="cls-38" d="M253.79,129.79A62.24,62.24,0,0,1,309.45,164c0.13,0.18.92,1.91,1,2.09s1.81-.23,1.93,0q1.38,0,2.76,0a44.43,44.43,0,0,1,11.66-1.56,45.42,45.42,0,0,1,44,34.16c0.08,0.19.43,1.83,0.5,2s1.61,0.4,1.67.6l0.27,0.09c15.22,0.44,27.94,11.93,29.94,26.36s-6.72,27.22-19,30.28c0,6.74-32.56,11.68-39.31,11.68l-125.81,0c-7.45-.25-42-5.51-42.53-12.78,0-.35-1.52-0.76-1.52-1.12-15-4.12-25.37-19.56-23.15-37.07,2.29-17.85,17.9-32,36.77-32.47l0.5-.17c0.06-.29,2.25-0.49,2.32-0.77s0.27-2.11.33-2.33A62.26,62.26,0,0,1,253.79,129.79Z"/><path class="cls-39" d="M253.76,130a62.08,62.08,0,0,1,55.64,34.43c0.12,0.16.92,1.93,1,2.1s1.85-.27,2-0.1q1.4-.08,2.8,0a44.25,44.25,0,0,1,11.67-1.57A45.22,45.22,0,0,1,370.75,199c0.08,0.18.43,1.84,0.49,2s1.64,0.37,1.7.55l0.27,0.08c15.39,0.41,28.22,12.1,30.07,26.76s-7.3,27.56-20,30.38c0,6.22-33,10.78-39.18,10.78l-124.1,0c-6.88-.23-41.9-5.09-42.39-11.8,0-.32-1.57-0.7-1.57-1-15.46-3.86-26.34-19.43-24.29-37.23,2.11-18.14,17.87-32.59,37-33l0.51-.16c0.06-.27,2.31-0.44,2.38-0.71s0.26-2.13.32-2.34A62.08,62.08,0,0,1,253.76,130Z"/><path class="cls-40" d="M253.73,130.11a61.91,61.91,0,0,1,55.62,34.6c0.11,0.15.93,2,1,2.1s1.88-.32,2-0.16q1.42-.12,2.84-0.13a44.08,44.08,0,0,1,11.68-1.58,45,45,0,0,1,43.75,34.29c0.07,0.16.42,1.86,0.48,2s1.68,0.34,1.74.51l0.28,0.07c15.56,0.38,28.51,12.27,30.2,27.17s-7.87,27.89-20.94,30.48c0,5.71-33.35,9.89-39.05,9.89l-122.38,0c-6.31-.21-41.79-4.66-42.24-10.81,0-.3-1.61-0.65-1.61-1-15.95-3.59-27.3-19.3-25.43-37.39,1.94-18.43,17.85-33.14,37.14-33.51l0.52-.14c0.05-.25,2.37-0.39,2.43-0.64s0.26-2.15.31-2.34A61.9,61.9,0,0,1,253.73,130.11Z"/><path class="cls-41" d="M253.69,130.27A61.75,61.75,0,0,1,309.3,165c0.1,0.14.93,2,1,2.11s1.91-.37,2-0.23q1.44-.16,2.88-0.22a43.91,43.91,0,0,1,11.7-1.6,44.83,44.83,0,0,1,43.61,34.36c0.06,0.15.42,1.88,0.48,2s1.72,0.31,1.77.46L373,202c15.73,0.34,28.79,12.45,30.33,27.57s-8.44,28.23-21.91,30.59c0,5.19-33.74,9-38.93,9l-120.67,0c-5.73-.19-41.69-4.24-42.1-9.83,0-.27-1.66-0.6-1.66-0.88-16.43-3.33-28.27-19.18-26.56-37.55,1.76-18.72,17.83-33.7,37.33-34l0.54-.13c0-.22,2.43-0.35,2.48-0.57s0.25-2.17.3-2.34A61.71,61.71,0,0,1,253.69,130.27Z"/><path class="cls-42" d="M253.66,130.43a61.59,61.59,0,0,1,55.58,34.95c0.09,0.12.93,2,1,2.12s1.94-.42,2-0.29q1.45-.21,2.91-0.3a43.74,43.74,0,0,1,11.71-1.61,44.64,44.64,0,0,1,43.47,34.42c0.06,0.13.42,1.89,0.47,2s1.75,0.28,1.8.42l0.29,0.06c15.9,0.31,29.07,12.62,30.46,28s-9,28.57-22.88,30.69c0,4.67-34.13,8.09-38.8,8.09h-119c-5.16-.17-41.58-3.82-42-8.85,0-.24-1.7-0.55-1.7-0.8-16.91-3.07-29.23-19-27.7-37.71,1.58-19,17.8-34.25,37.52-34.55l0.55-.11c0-.2,2.49-0.3,2.54-0.5s0.25-2.19.29-2.34A61.53,61.53,0,0,1,253.66,130.43Z"/><path class="cls-43" d="M253.63,130.59a61.43,61.43,0,0,1,55.56,35.12c0.08,0.11.93,2,1,2.13s2-.46,2-0.35q1.47-.25,2.95-0.39a43.57,43.57,0,0,1,11.73-1.62A44.45,44.45,0,0,1,370.26,200c0.05,0.12.41,1.91,0.46,2s1.79,0.24,1.83.37l0.3,0a31.22,31.22,0,0,1,30.58,28.38c1.23,15.58-9.59,28.91-23.85,30.79,0,4.15-34.52,7.19-38.67,7.19H223.66c-4.59-.15-41.48-3.39-41.81-7.86,0-.22-1.75-0.49-1.75-0.71-17.4-2.8-30.2-18.92-28.83-37.88,1.41-19.3,17.78-34.8,37.71-35.07l0.56-.1c0-.18,2.55-0.25,2.59-0.43s0.24-2.21.28-2.34A61.36,61.36,0,0,1,253.63,130.59Z"/><path class="cls-44" d="M253.6,130.75A61.27,61.27,0,0,1,309.14,166c0.07,0.1.93,2,1,2.14s2-.51,2.07-0.41q1.49-.3,3-0.48a43.41,43.41,0,0,1,11.74-1.63,44.26,44.26,0,0,1,43.2,34.56c0,0.1.41,1.93,0.45,2s1.82,0.21,1.86.32l0.3,0a31.25,31.25,0,0,1,30.71,28.78c1.08,15.81-10.16,29.25-24.82,30.89,0,3.63-34.92,6.29-38.55,6.29H224.57c-4-.13-41.38-3-41.66-6.88,0-.19-1.79-0.44-1.79-0.63-17.88-2.54-31.16-18.79-30-38,1.23-19.59,17.76-35.35,37.9-35.59l0.57-.08c0-.16,2.6-0.2,2.64-0.36s0.24-2.23.27-2.35A61.18,61.18,0,0,1,253.6,130.75Z"/><path class="cls-45" d="M253.57,130.91a61.12,61.12,0,0,1,55.52,35.47c0.06,0.08.94,2.06,1,2.15s2-.56,2.09-0.47q1.51-.34,3-0.56A43.25,43.25,0,0,1,327,165.85,44.07,44.07,0,0,1,370,200.47c0,0.09.4,1.94,0.44,2s1.86,0.18,1.89.28l0.31,0A31.29,31.29,0,0,1,403.5,232c0.92,16-10.74,29.58-25.79,31,0,3.11-35.31,5.39-38.42,5.39H225.47c-3.44-.11-41.27-2.54-41.52-5.9,0-.16-1.84-0.39-1.84-0.55-18.36-2.28-32.13-18.67-31.11-38.2a38.48,38.48,0,0,1,38.09-36.11l0.58-.06c0-.13,2.66-0.16,2.7-0.29s0.24-2.25.26-2.35A61,61,0,0,1,253.57,130.91Z"/><path class="cls-46" d="M253.54,131.07A61,61,0,0,1,309,166.71c0,0.07.94,2.08,1,2.15s2.07-.6,2.12-0.53q1.52-.39,3.06-0.65A43.09,43.09,0,0,1,327,166a43.88,43.88,0,0,1,42.92,34.69c0,0.07.4,2,.43,2s1.9,0.15,1.92.23l0.31,0a31.33,31.33,0,0,1,31,29.59c0.77,16.27-11.31,29.92-26.76,31.1,0,2.59-35.7,4.49-38.29,4.49H226.38c-2.87-.09-41.17-2.12-41.37-4.91,0-.14-1.88-0.33-1.88-0.47-18.85-2-33.09-18.54-32.24-38.36a38.6,38.6,0,0,1,38.28-36.63l0.6,0c0-.11,2.72-0.11,2.75-0.22s0.23-2.27.26-2.35A60.83,60.83,0,0,1,253.54,131.07Z"/><path class="cls-47" d="M253.5,131.22A60.83,60.83,0,0,1,309,167c0,0.05.94,2.11,1,2.16s2.1-.65,2.14-0.59q1.54-.43,3.1-0.74A42.93,42.93,0,0,1,327,166.21,43.7,43.7,0,0,1,369.78,201c0,0.06.4,2,.42,2s1.93,0.12,2,.18l0.32,0a31.38,31.38,0,0,1,31.1,30c0.62,16.5-11.88,30.26-27.73,31.2,0,2.07-36.09,3.59-38.17,3.59H227.28c-2.29-.08-41.06-1.7-41.23-3.93,0-.11-1.93-0.28-1.93-0.39-19.33-1.75-34.06-18.41-33.38-38.52A38.72,38.72,0,0,1,189.22,188l0.61,0c0-.09,2.78-0.06,2.8-0.15s0.23-2.29.25-2.35A60.66,60.66,0,0,1,253.5,131.22Z"/><path class="cls-48" d="M253.47,131.38a60.68,60.68,0,0,1,55.47,36s0.94,2.13,1,2.17,2.14-.7,2.16-0.66q1.56-.47,3.14-0.82a42.78,42.78,0,0,1,11.8-1.67,43.51,43.51,0,0,1,42.64,34.83s0.39,2,.41,2,2,0.09,2,.14h0.32a31.44,31.44,0,0,1,31.22,30.4,30.32,30.32,0,0,1-28.7,31.3c0,1.56-36.48,2.7-38,2.7H228.19c-1.72-.06-41-1.27-41.08-2.95,0-.08-2-0.23-2-0.31a37.48,37.48,0,0,1-34.51-38.68,38.85,38.85,0,0,1,38.66-37.67l0.62,0c0-.07,2.84,0,2.86-0.08s0.22-2.3.24-2.36A60.49,60.49,0,0,1,253.47,131.38Z"/><path class="cls-49" d="M253.44,131.54a60.54,60.54,0,0,1,55.45,36.16s0.94,2.15,1,2.18,2.17-.75,2.19-0.72q1.58-.52,3.17-0.91A42.63,42.63,0,0,1,327,166.58a43.33,43.33,0,0,1,42.51,34.89s0.39,2,.4,2,2,0.06,2,.09h0.33a31.5,31.5,0,0,1,31.35,30.81A30.75,30.75,0,0,1,374,265.81c0,1-36.88,1.8-37.91,1.8h-107c-1.15,0-40.85-.85-40.93-2,0-.05-2-0.18-2-0.23a38,38,0,0,1-35.65-38.84,39,39,0,0,1,38.85-38.19H190s2.9,0,2.91,0,0.22-2.32.23-2.36A60.32,60.32,0,0,1,253.44,131.54Z"/><path class="cls-50" d="M253.41,131.7A60.4,60.4,0,0,1,308.84,168l1,2.19s2.2-.79,2.21-0.78q1.6-.56,3.21-1A42.48,42.48,0,0,1,327,166.76a43.15,43.15,0,0,1,42.37,35s0.39,2,.39,2,2,0,2,0h0.33A31.57,31.57,0,0,1,403.67,235,31.19,31.19,0,0,1,373,266.52c0,0.52-37.27.9-37.79,0.9H230c-0.57,0-40.75-.42-40.79-1,0,0-2.06-.12-2.06-0.15a38.51,38.51,0,0,1-36.78-39,39.12,39.12,0,0,1,39-38.71H190s3,0.08,3,.06,0.21-2.34.22-2.36A60.15,60.15,0,0,1,253.41,131.7Z"/><path class="cls-51" d="M372.09,204l-0.34,0h-2.08l-0.38-2A42.85,42.85,0,0,0,312,169.73l-2.23.84-0.95-2.2a60.3,60.3,0,0,0-115.45,18.18l-0.21,2.36-3-.13c-0.23,0-.43,0-0.65,0a39.21,39.21,0,0,0-1.31,78.39l2.11,0.07H372.09A31.61,31.61,0,0,0,372.09,204Z"/></g><path class="cls-5" d="M373.63,203.13h-2.44l-0.39-2.06a43.28,43.28,0,0,0-57.9-32.57l-2.26.85-1-2.22a60.91,60.91,0,0,0-116.61,18.37l-0.21,2.39-3-.13c-0.23,0-.44,0-0.66,0a39.6,39.6,0,0,0-1.32,79.18L190,267H373.63A31.93,31.93,0,0,0,373.63,203.13Z"/><path class="cls-5" d="M441.89,259.55h0.71l0.11-.6a12.6,12.6,0,0,1,16.86-9.48l0.66,0.25,0.28-.65a17.73,17.73,0,0,1,34,5.35l0.06,0.7,0.89,0h0.19a11.53,11.53,0,0,1,.39,23.05l-0.62,0H441.89A9.3,9.3,0,0,1,441.89,259.55Z"/><path class="cls-52" d="M459.73,272.82l0,0h26.89l-10.86-9.26-1.69,1a1.83,1.83,0,0,1-1.74,0l-1.76-1Z"/><path class="cls-52" d="M488.12,271.35a0.92,0.92,0,0,0,.06-0.33V256.48A0.93,0.93,0,0,0,488,256a1.11,1.11,0,0,1-.42.4l-10.15,5.89Z"/><path class="cls-52" d="M469,262.22l0.06,0-10.21-5.9a1.1,1.1,0,0,1-.42-0.4,0.92,0.92,0,0,0-.18.53V271a0.9,0.9,0,0,0,.06.31Z"/><path class="cls-52" d="M473.23,261.95a1.39,1.39,0,0,1-.69-0.17L460,254.54a0.5,0.5,0,0,1-.34-0.58,0.53,0.53,0,0,1,.6-0.32H486.1a0.53,0.53,0,0,1,.6.32,0.5,0.5,0,0,1-.33.57l-12.46,7.24A1.37,1.37,0,0,1,473.23,261.95Z"/><path class="cls-5" d="M431.67,162.62h0.79l0.13-.69a14.13,14.13,0,0,1,13.72-11.87,13.36,13.36,0,0,1,4.91.95l0.73,0.29,0.31-.75a19.58,19.58,0,0,1,18-12.37c10.19,0,18.57,8,19.51,18.53l0.07,0.8,1,0H491c7,0,12.75,6,12.75,13.29A13,13,0,0,1,491.45,184l-0.68,0H431.67A10.72,10.72,0,0,1,431.67,162.62Z"/><rect class="cls-52" x="452.91" y="152.13" width="29.78" height="20.8" rx="1.2" ry="1.2"/><rect class="cls-5" x="454.74" y="154.88" width="26.12" height="15.73" rx="1.01" ry="1.01"/><path class="cls-52" d="M450.73,177.56a1,1,0,0,0,.92,1.56h32.29a1,1,0,0,0,.92-1.56l-1.17-1.7a3.57,3.57,0,0,0-2.72-1.51H454.62a3.58,3.58,0,0,0-2.72,1.51Z"/><path class="cls-5" d="M475.23,177.7a0.5,0.5,0,0,1-.55.26H460.93a0.5,0.5,0,0,1-.55-0.26h0a0.5,0.5,0,0,1,.55-0.25h13.75a0.5,0.5,0,0,1,.55.25h0Z"/><path class="cls-5" d="M246.29,343.81H247l0.12-.62a13.06,13.06,0,0,1,17.47-9.83l0.68,0.26,0.29-.67a18.38,18.38,0,0,1,35.18,5.54l0.06,0.72,0.92,0h0.2a11.95,11.95,0,0,1,.4,23.89l-0.64,0H246.29A9.63,9.63,0,0,1,246.29,343.81Z"/><path class="cls-52" d="M293.32,356.75a1.52,1.52,0,0,1-1.52,1.52H263.29a1.52,1.52,0,0,1-1.52-1.52V336.44a1.52,1.52,0,0,1,1.52-1.52H291.8a1.52,1.52,0,0,1,1.52,1.52v20.31Zm-4.73-20.15H266.21v20h22.38v-20Zm2.32,8.8a1.19,1.19,0,1,0,1.19,1.19A1.19,1.19,0,0,0,290.91,345.41Zm0,4.29a1.19,1.19,0,1,0,1.19,1.19A1.19,1.19,0,0,0,290.91,349.69Zm0,4.28a1.19,1.19,0,1,0,1.19,1.19A1.19,1.19,0,0,0,290.91,354Zm0-12.85a1.19,1.19,0,1,0,1.19,1.19A1.19,1.19,0,0,0,290.91,341.12Zm0-4.28A1.19,1.19,0,1,0,292.1,338,1.19,1.19,0,0,0,290.91,336.84Zm-27.12,8.57A1.19,1.19,0,1,0,265,346.6,1.19,1.19,0,0,0,263.79,345.41Zm0,4.29a1.19,1.19,0,1,0,1.19,1.19A1.19,1.19,0,0,0,263.79,349.69Zm0,4.28a1.19,1.19,0,1,0,1.19,1.19A1.19,1.19,0,0,0,263.79,354Zm0-12.85a1.19,1.19,0,1,0,1.19,1.19A1.19,1.19,0,0,0,263.79,341.12Zm0-4.28A1.19,1.19,0,1,0,265,338,1.19,1.19,0,0,0,263.79,336.84Zm10.09,3.46a1.38,1.38,0,0,0-2.25,1.3v10a1.38,1.38,0,0,0,2.25,1.3l8.66-5a1.38,1.38,0,0,0,0-2.6Z"/><path class="cls-5" d="M343.27,99.51H344l0.11-.6A12.6,12.6,0,0,1,361,89.43l0.66,0.25,0.28-.65a17.73,17.73,0,0,1,34,5.35l0.06,0.69,0.89,0H397a11.53,11.53,0,0,1,.39,23.05l-0.62,0H343.27A9.3,9.3,0,0,1,343.27,99.51Z"/><circle class="cls-52" cx="365.3" cy="98.09" r="3.96"/><path class="cls-52" d="M379.46,100.27a11.54,11.54,0,0,0-8.93,4.22,9,9,0,0,0-14.25,7.36H391A11.57,11.57,0,0,0,379.46,100.27Z"/><circle class="cls-52" cx="379.46" cy="94.23" r="5.08"/><path class="cls-5" d="M117.49,274.83h-0.82l-0.13-.69a14.51,14.51,0,0,0-19.42-10.93l-0.76.28L96,262.76a20.43,20.43,0,0,0-39.12,6.16l-0.07.8-1,0H55.61a13.29,13.29,0,0,0-.44,26.56l0.71,0h61.61A10.71,10.71,0,0,0,117.49,274.83Z"/><path class="cls-52" d="M90.27,271a0.73,0.73,0,0,1,.8-0.61h0a0.73,0.73,0,0,1,.8.61V287a0.73,0.73,0,0,1-.8.61h0a0.73,0.73,0,0,1-.8-0.61V271Z"/><path class="cls-52" d="M93.69,274.68a0.73,0.73,0,0,1,.8-0.61h0a0.73,0.73,0,0,1,.8.61v8.63a0.73,0.73,0,0,1-.8.61h0a0.73,0.73,0,0,1-.8-0.61v-8.63Z"/><path class="cls-52" d="M96.85,277.63a0.73,0.73,0,0,1,.8-0.61h0a0.73,0.73,0,0,1,.8.61v1.8a0.73,0.73,0,0,1-.8.61h0a0.73,0.73,0,0,1-.8-0.61v-1.8Z"/><path class="cls-52" d="M88,289.07a1.72,1.72,0,0,1-1.85,1.54H68.52a1.72,1.72,0,0,1-1.85-1.54V260.57A1.72,1.72,0,0,1,68.52,259H86.17A1.72,1.72,0,0,1,88,260.57v28.49Z"/><path class="cls-5" d="M86.17,290.72H68.52a1.83,1.83,0,0,1-2-1.65V260.57a1.83,1.83,0,0,1,2-1.65H86.17a1.83,1.83,0,0,1,2,1.65v28.49A1.83,1.83,0,0,1,86.17,290.72ZM68.52,259.14a1.61,1.61,0,0,0-1.74,1.43v28.49a1.61,1.61,0,0,0,1.74,1.43H86.17a1.61,1.61,0,0,0,1.74-1.43V260.57a1.61,1.61,0,0,0-1.74-1.43H68.52Z"/><path class="cls-5" d="M69.08,263.5a1.6,1.6,0,0,1,1.72-1.44H83.73a1.6,1.6,0,0,1,1.72,1.44v20.06A1.6,1.6,0,0,1,83.73,285H70.79a1.6,1.6,0,0,1-1.72-1.44V263.5Z"/><path class="cls-5" d="M80,260.52a0.36,0.36,0,0,1-.39.33H75.07a0.36,0.36,0,0,1-.39-0.33h0a0.36,0.36,0,0,1,.39-0.33h4.55a0.36,0.36,0,0,1,.39.33h0Z"/><circle class="cls-5" cx="77.35" cy="287.78" r="1.17"/><path class="cls-5" d="M112.28,109.91h0.8l0.13-.67a14.14,14.14,0,0,1,18.92-10.64l0.74,0.28,0.31-.73a19.9,19.9,0,0,1,38.11,6l0.07,0.78,1,0h0.22a12.94,12.94,0,0,1,.43,25.88l-0.7,0h-60A10.43,10.43,0,0,1,112.28,109.91Z"/><path class="cls-52" d="M161.65,104.21h-7.29v-1.56a0.93,0.93,0,0,0-.95-0.91h-9.84a0.93,0.93,0,0,0-.95.91v1.56h-3.7v-0.48a0.51,0.51,0,0,0-.4-0.57h-4.14a0.51,0.51,0,0,0-.4.57v0.48h-0.82a1.65,1.65,0,0,0-1.69,1.61v15.42a1.65,1.65,0,0,0,1.69,1.61h28.48a1.65,1.65,0,0,0,1.69-1.61V105.83A1.65,1.65,0,0,0,161.65,104.21Zm-26.09,14.3a0.47,0.47,0,0,1-.95,0V108a0.47,0.47,0,0,1,.95,0v10.48Zm13.19,1.75a6.73,6.73,0,1,1,7-6.72A6.88,6.88,0,0,1,148.75,120.26Z"/><path class="cls-5" d="M287.4,60.78h-0.82l-0.13-.69A14.52,14.52,0,0,0,267,49.17l-0.76.28-0.32-.74a20.43,20.43,0,0,0-39.12,6.16l-0.07.8-1,0h-0.22a13.29,13.29,0,0,0-.44,26.56l0.71,0H287.4A10.71,10.71,0,0,0,287.4,60.78Z"/><rect class="cls-52" x="230.54" y="51.75" width="35.77" height="26.32" rx="1.73" ry="1.73"/><rect class="cls-5" x="233.67" y="54.89" width="29.51" height="18.9" rx="1.6" ry="1.6"/><circle class="cls-5" cx="248.42" cy="75.68" r="1.26"/><path class="cls-5" d="M251.29,53.24a0.39,0.39,0,0,1-.42.35H246a0.39,0.39,0,0,1-.42-0.35h0a0.39,0.39,0,0,1,.42-0.35h4.9a0.39,0.39,0,0,1,.42.35h0Z"/><path class="cls-5" d="M131.54,336.05h0.71l0.11-.6A12.6,12.6,0,0,1,149.22,326l0.66,0.25,0.28-.65a17.73,17.73,0,0,1,34,5.35l0.06,0.7,0.89,0h0.19a11.53,11.53,0,0,1,.39,23.05l-0.62,0H131.54A9.3,9.3,0,0,1,131.54,336.05Z"/><path class="cls-52" d="M168.54,325.15v-6.68l-13.14,8.24v18.08a3.9,3.9,0,0,0-3.54,1.27c-1.43,1.43-1.79,3.4-.8,4.39s3,0.64,4.39-.8a4.45,4.45,0,0,0,1.33-2.58h0V332.44L167.12,326V337.4a3.9,3.9,0,0,0-3.54,1.27c-1.43,1.43-1.79,3.4-.8,4.39s3,0.64,4.39-.8a4.42,4.42,0,0,0,1.33-2.64h0v-0.3h0V325.15h0Z"/><path class="cls-5" d="M429.92,330.55h-0.73l-0.11-.61a13,13,0,0,0-12.72-10.55,12.82,12.82,0,0,0-4.55.84l-0.67.25-0.28-.66a18.17,18.17,0,0,0-34.78,5.48L376,326l-0.91,0h-0.2a11.81,11.81,0,0,0-.39,23.62l0.63,0h54.78A9.52,9.52,0,0,0,429.92,330.55Z"/><path class="cls-52" d="M395.79,317.09a14,14,0,1,0,14,14A14,14,0,0,0,395.79,317.09Zm10.28,19.52c-0.28-.14-0.58-0.28-0.9-0.42l-0.11-.05c-0.32-.13-0.65-0.26-1-0.38l-0.16-.06c-0.35-.12-0.73-0.24-1.13-0.35l-0.19,0c-0.38-.11-0.77-0.2-1.19-0.29a25.23,25.23,0,0,0,.28-3.46H408a12,12,0,0,1-1.44,5.32,4.36,4.36,0,0,0-.42-0.22Zm-5.47,4.34c0.38,0.07.76,0.14,1.12,0.22l0.68,0.17a12.11,12.11,0,0,1-4.6,1.78,11.81,11.81,0,0,0,1.69-2.35l0.38,0Zm-4.81,2.36-0.52,0a10.23,10.23,0,0,1-2.16-2.6l0.62-.06c0.66,0,1.36-.08,2.07-0.08s1.42,0,2.1.07l0.59,0.05a10.18,10.18,0,0,1-2.17,2.61Zm-5.87-2.11c0.37-.09.75-0.16,1.12-0.23l0.73-.13,0.33,0a11.56,11.56,0,0,0,1.68,2.33,12.17,12.17,0,0,1-4.54-1.74Zm8.84-1.4-0.71-.08c-0.73-.05-1.49-0.08-2.26-0.08s-1.5,0-2.23.08l-0.7.08-0.23,0a16,16,0,0,1-1.39-4.15l0.6-.1,0.19,0c0.5-.07,1-0.12,1.54-0.16h0.13c0.56,0,1.15-.05,1.77-0.05h0.29c0.63,0,1.24,0,1.83.07h0.14c0.55,0,1.08.09,1.57,0.16l0.2,0c0.29,0,.56.09,0.83,0.14a16.23,16.23,0,0,1-1.37,4.08Zm-9.89-4.55-0.19.05-1.1.34-0.15.06c-0.34.12-.67,0.25-1,0.39l-0.1,0c-0.31.14-.61,0.28-0.89,0.43l0,0-0.41.23a12.06,12.06,0,0,1-1.4-5.26h6.32a24.35,24.35,0,0,0,.26,3.38l-0.09,0C389.68,335,389.26,335.13,388.87,335.24Zm-3.49-9.46c0.27,0.15.57,0.3,0.89,0.44l0.09,0c0.31,0.14.65,0.27,1,.41l0.15,0.05,1.11,0.35,0.19,0c0.4,0.11.81,0.21,1.25,0.3l0.12,0a24,24,0,0,0-.25,3.2h-6.32a12.05,12.05,0,0,1,1.33-5.11l0.41,0.23h0Zm5.54-4.39c-0.38-.07-0.77-0.15-1.14-0.24s-0.5-.13-0.74-0.2h0a12.21,12.21,0,0,1,4.87-1.89,12.86,12.86,0,0,0-1.8,2.53l-0.42,0Zm4.87-2.5,0.46,0a11.42,11.42,0,0,1,2.24,2.79l-0.54.05c-0.7,0-1.42.08-2.16,0.08s-1.43,0-2.12-.08l-0.58-.07a11.62,11.62,0,0,1,2.24-2.78Zm6.79,2.09c-0.23.06-.47,0.13-0.71,0.19s-0.76.17-1.15,0.23c-0.24.05-.48,0.1-0.73,0.13l-0.48.05a13.06,13.06,0,0,0-1.8-2.54,12.18,12.18,0,0,1,4.91,1.92h0Zm-9.79,1.59c0.24,0,.47.07,0.73,0.09,0.74,0.06,1.5.08,2.28,0.08s1.57,0,2.32-.08l0.72-.08H399a16.17,16.17,0,0,1,1.37,4.08c-0.26,0-.53.1-0.81,0.13l-0.18,0c-0.52.07-1,.13-1.61,0.16H397.6c-0.59,0-1.2.07-1.85,0.07h-0.28c-0.62,0-1.22,0-1.8-.06h-0.13c-0.54,0-1.06-.08-1.55-0.15l-0.19,0-0.57-.09a16.07,16.07,0,0,1,1.4-4.15h0.16Zm6.85,12.14-0.2,0c-0.52-.07-1.06-0.13-1.63-0.17h-0.15c-0.6,0-1.23-.07-1.89-0.08h-0.29c-0.63,0-1.24,0-1.83.07h-0.15c-0.55,0-1.08.09-1.59,0.15l-0.2,0-0.62.09a24.21,24.21,0,0,1-.26-3.23h9.92a23.91,23.91,0,0,1-.27,3.3Zm-8.81-4.06a24.08,24.08,0,0,1,.25-3l0.6,0.1,0.2,0q0.77,0.1,1.6.15h0.15c0.59,0,1.2.06,1.85,0.06h0.29c0.66,0,1.29,0,1.9-.08h0.15c0.58,0,1.12-.1,1.65-0.17l0.21,0,0.82-.12a22,22,0,0,1,.26,3.11h-9.92Zm10.83,0a24.37,24.37,0,0,0-.27-3.28c0.43-.09.84-0.19,1.22-0.3l0.2-.06c0.4-.11.78-0.23,1.13-0.35l0.17-.06c0.35-.12.69-0.26,1-0.39l0.12-.05c0.33-.14.63-0.29,0.9-0.43l0,0,0.43-.23a12.2,12.2,0,0,1,1.35,5.17h-6.32Zm4.14-5.75-0.07,0c-0.26.14-.55,0.27-0.86,0.41l-0.1,0c-0.31.13-.64,0.26-1,0.38l-0.15.05c-0.35.12-.71,0.23-1.1,0.34l-0.18,0-1.13.27a17.86,17.86,0,0,0-1.29-4l0.33,0c0.29,0,.54-0.11.82-0.16s0.82-.15,1.2-0.24l0.8-.25,0.41-.12a12.21,12.21,0,0,1,2.66,3Zm-17.66-3.28,0.41,0.12c0.27,0.08.53,0.17,0.81,0.24s0.79,0.17,1.19.25,0.54,0.12.82,0.17l0.29,0a17.67,17.67,0,0,0-1.32,4.12l-0.08,0c-0.42-.09-0.81-0.18-1.19-0.29l-0.2-.05c-0.37-.1-0.72-0.22-1-0.33l-0.16-.06c-0.33-.12-0.63-0.24-0.92-0.37l-0.14-.06c-0.28-.13-0.56-0.26-0.81-0.4l-0.09,0-0.32-.19A12,12,0,0,1,388.13,321.61Zm-2.33,15.77,0.07,0c0.25-.13.53-0.27,0.82-0.39l0.13-.05c0.29-.12.59-0.25,0.92-0.36l0.16-.06c0.33-.12.67-0.23,1-0.33l0.19-.05c0.37-.1.76-0.19,1.17-0.28h0a17,17,0,0,0,1.3,4.12l-0.19,0c-0.28,0-.53.11-0.79,0.16s-0.8.15-1.18,0.24-0.53.16-.79,0.23l-0.38.12a12.34,12.34,0,0,1-2.84-3.13Zm17.52,3.29-0.39-.11c-0.26-.08-0.51-0.16-0.78-0.22s-0.79-.16-1.19-0.24-0.52-.11-0.79-0.15l-0.25,0a17.44,17.44,0,0,0,1.29-4c0.37,0.08.73,0.16,1.07,0.25l0.19,0.06c0.38,0.1.73,0.21,1.08,0.33l0.16,0.06c0.33,0.11.66,0.24,1,.36L404.8,337c0.3,0.13.59,0.26,0.85,0.4l0.07,0,0.36,0.2A12.18,12.18,0,0,1,403.33,340.67Z"/><polygon class="cls-52" points="268.77 162.03 268.77 154.65 255.22 154.65 255.22 148.07 254.02 148.07 254.02 154.65 240.46 154.65 240.46 162.03 235.84 162.03 235.84 170 246.28 170 246.28 162.03 241.65 162.03 241.65 155.84 254.02 155.84 254.02 162.03 249.39 162.03 249.39 170 259.84 170 259.84 162.03 255.22 162.03 255.22 155.84 267.58 155.84 267.58 162.03 262.96 162.03 262.96 170 273.4 170 273.4 162.03 268.77 162.03"/><path class="cls-5" d="M46.95,186h0.71l0.11-.6a12.6,12.6,0,0,1,16.86-9.48l0.66,0.25,0.28-.65a17.73,17.73,0,0,1,34,5.35l0.06,0.69,0.89,0h0.19a11.53,11.53,0,0,1,.39,23.05l-0.62,0H46.95A9.3,9.3,0,0,1,46.95,186Z"/><path class="cls-52" d="M75.16,190a3.2,3.2,0,1,0,3.2,3.2A3.2,3.2,0,0,0,75.16,190Z"/><path class="cls-52" d="M73.93,186.45a8.67,8.67,0,0,1,8.66,8.66v0.59c-0.1.63,0.89,1.14,2.19,1.14s2.41-.52,2.48-1.14V195.1a13.34,13.34,0,0,0-13.32-13.32H73.17c-0.81.11-1.48,1.27-1.48,2.58s0.66,2.25,1.46,2.09h0.77Z"/><path class="cls-52" d="M73.95,179.39a15.72,15.72,0,0,1,15.7,15.7v0.59c-0.06.64,1,1.16,2.24,1.16s2.38-.52,2.42-1.16v-0.59a20.39,20.39,0,0,0-20.36-20.36H73.19c-0.82.07-1.49,1.19-1.49,2.48s0.67,2.28,1.49,2.19h0.77Z"/><text class="cls-53" transform="translate(210.57 224.21)">Cloud-Based</text></g></g></svg>