<svg id="Background" xmlns="http://www.w3.org/2000/svg" xmlns:xlink="http://www.w3.org/1999/xlink" viewBox="0 0 5000 5000"><defs><style>.cls-1{fill:none;}.cls-2{fill:#969696;}.cls-3{fill:#e2e2e2;}.cls-4{fill:#2fa8b5;}.cls-5{fill:#14c6bd;}.cls-6{opacity:0.4;}.cls-14,.cls-30,.cls-35,.cls-7{fill:#fff;}.cls-14,.cls-8{opacity:0.2;}.cls-9{fill:#1c1c1c;}.cls-10{fill:#d1d1d1;}.cls-11{fill:#9b9b9b;}.cls-12{fill:#7f7f7f;}.cls-13{fill:#e5e5e5;}.cls-15{opacity:0.3;}.cls-16{fill:#3f3f3f;}.cls-17{fill:#4d2256;}.cls-18{clip-path:url(#clip-path);}.cls-19{fill:#eace8b;}.cls-20{fill:#d3b271;}.cls-21{fill:#d83d00;}.cls-22{fill:#edd89d;}.cls-23{fill:#ae4bbc;}.cls-24{fill:#9c3dad;}.cls-25{fill:#d3d3d3;}.cls-26{clip-path:url(#clip-path-2);}.cls-27{fill:#898989;}.cls-28{clip-path:url(#clip-path-3);}.cls-29{fill:#c1c1c1;}.cls-30{opacity:0.1;}.cls-31{clip-path:url(#clip-path-4);}.cls-32{clip-path:url(#clip-path-5);}.cls-33{clip-path:url(#clip-path-6);}.cls-34{clip-path:url(#clip-path-7);}.cls-35{opacity:0.7;}.cls-36{clip-path:url(#clip-path-8);}.cls-37{fill:#ed9514;}.cls-38{fill:#d6d6d6;}.cls-39{fill:#c905ad;}.cls-40{fill:#066bc6;}.cls-41{fill:#004375;}.cls-42{fill:#3a3a3a;}.cls-43{fill:#fcfcfc;}.cls-44{fill:#ffbc00;}.cls-45{fill:#b20011;}.cls-46{fill:#3eb1ba;}.cls-47{fill:#efefef;}.cls-48{fill:#bababa;}.cls-49{fill:#f2501d;}</style><clipPath id="clip-path"><circle class="cls-1" cx="1976.61" cy="1674.48" r="323.73"/></clipPath><clipPath id="clip-path-2"><ellipse class="cls-2" cx="3828.82" cy="2588.3" rx="285.38" ry="87.28"/></clipPath><clipPath id="clip-path-3"><path class="cls-1" d="M4115,2587H4001v67.38c-50-10.81-107.72-17.22-171.5-17.22s-123.5,6.4-171.5,17.22V2587H3543v137h0.51a3.12,3.12,0,0,0-.07.66c0,48.21,127.77,87.17,285.37,87.17s285.38-38.91,285.38-87.12a3.79,3.79,0,0,0-.07-0.71H4115V2587Z"/></clipPath><clipPath id="clip-path-4"><ellipse class="cls-2" cx="3828.82" cy="2389.32" rx="285.38" ry="87.28"/></clipPath><clipPath id="clip-path-5"><path class="cls-1" d="M4115,2388H4001v67.4c-50-10.82-107.72-17.22-171.5-17.22s-123.5,6.4-171.5,17.22V2388H3543v137h0.51a3.31,3.31,0,0,0-.07.67c0,48.21,127.77,87.18,285.37,87.18s285.38-38.92,285.38-87.13a3.93,3.93,0,0,0-.07-0.72H4115V2388Z"/></clipPath><clipPath id="clip-path-6"><ellipse class="cls-3" cx="3828.82" cy="2195.58" rx="285.38" ry="87.28"/></clipPath><clipPath id="clip-path-7"><path class="cls-1" d="M4115,2195H4001v66.66c-50-10.82-107.72-17.22-171.5-17.22s-123.5,6.4-171.5,17.22V2195H3543v137h0.51s-0.07,0-.07.3c0,48.2,127.77,87,285.37,87s285.38-38.64,285.38-86.85a0.89,0.89,0,0,0-.07-0.44H4115V2195Z"/></clipPath><clipPath id="clip-path-8"><circle class="cls-4" cx="3117.96" cy="2383" r="244.97"/></clipPath></defs><title>content-rich</title><rect class="cls-5" width="5000" height="5000"/><g class="cls-6"><path class="cls-7" d="M1721,2355H1081.46C1006.9,2355,947,2293.85,947,2219.29V1391.82c35-12.53,62.8-47.31,62.8-88.29a93.22,93.22,0,1,0-186.44,0A92.38,92.38,0,0,0,893,1393.69v825.6c0,104.39,84.07,189.71,188.46,189.71H1721v-54Z"/><path class="cls-7" d="M2140,3528.3c0,74.57-60.36,135.7-134.93,135.7H1455.22a93.13,93.13,0,1,0-1.81,54h551.66c104.39,0,188.93-85.31,188.93-189.7V2617h-54v911.3Z"/><path class="cls-7" d="M3467.28,3361.71a93.55,93.55,0,0,0-86.52,58.29H2813.13c-74.57,0-135.13-60.44-135.13-135V2374h-54v911c0,104.39,84.74,189,189.13,189H3376c8.85,42,46.36,74.24,91.3,74.24A93.27,93.27,0,1,0,3467.28,3361.71Z"/><path class="cls-7" d="M3634.22,1116.65c-36.55,0-68.17,21.35-83.47,51.35H2723.81c-104.39,0-189.81,84.82-189.81,189.21V1998h54V1357.21c0-74.57,61.25-135.21,135.81-135.21h818A93.26,93.26,0,1,0,3634.22,1116.65Z"/></g><path class="cls-8" d="M3747.68,3047h-3.1a3.31,3.31,0,0,1-.58-1.29V2977H3446V1765.08c0-32.54-25.31-58.08-57.85-58.08H1565.65c-32.54,0-58.65,25.54-58.65,58.08V2977H1198v68.71a21.52,21.52,0,0,0,3.39,11.87c5.94,11.42,18.48,17.42,33,17.42H3713.14s0,0.07,0,.07C3731.59,3075.06,3745.84,3066,3747.68,3047Z"/><path class="cls-8" d="M4068,2268h-2.09c-1.44-47-128.63-86.89-285.34-86.89-20.52,0-40.54.46-59.83,1.72l-9.55-11.2-149.21,14,43.54,13.88C3539,2215.3,3496.05,2239,3495.22,2268H3493v136h2.26a1.2,1.2,0,0,0-.07.49c0,10,5.55,19.55,15.75,28.51-9.67,8.52-15.15,17-15.68,27H3493v136h2.26s-0.07,1.07-.07,1.37c0,11.08,6.77,22.79,19.09,32.54-11.78,9.33-18.46,19.09-19,31.09H3493v135h2.26a6,6,0,0,0-.07.85c0,48.21,127.77,87.27,285.38,87.27,30.2,0,59.29-1.44,86.61-4.1l136.73-28.85c38.83-14.91,62-33.77,62-54.31a6.78,6.78,0,0,0-.07-0.85H4068V2661h-2.12c-0.56-12-7.25-21.54-19-30.87,12.32-9.75,19.09-21.25,19.09-32.33,0-.3-0.06-1.8-0.07-1.8H4068V2460h-2.12c-0.53-10-6-18.49-15.64-27,10.17-8.95,15.71-18.46,15.71-28.48a1.63,1.63,0,0,0-.07-0.53H4068V2268Z"/><rect class="cls-9" x="1466" y="1666" width="1939" height="1360" rx="58.92" ry="58.92"/><path class="cls-10" d="M1157,2937v68.5c0,14.63,17.38,30.5,37.15,30.5H3672.93a30.48,30.48,0,0,0,31.07-30.5V2937H1157Z"/><path class="cls-11" d="M1157.52,3008c2.08,17,18.17,28,36.62,28H3672.92c18.44,0,32.71-11,34.54-28H1157.52Z"/><path class="cls-12" d="M2226.38,2937c10.19,15,27.54,29,47.24,29h319.85c19.7,0,37-14,47.23-29H2226.38Z"/><rect class="cls-13" x="1537" y="1749" width="1803" height="1095"/><polygon class="cls-14" points="3137.72 2844 3340 2844 3340 1749 2199.91 1749 3137.72 2844"/><circle class="cls-15" cx="2016.35" cy="1762.13" r="327.63"/><rect class="cls-16" x="1531" y="1749" width="497" height="1095"/><rect class="cls-7" x="1785" y="2195" width="182" height="34"/><rect class="cls-7" x="1704" y="2276" width="263" height="34"/><rect class="cls-7" x="1745" y="2356" width="222" height="34"/><rect class="cls-7" x="1677" y="2437" width="290" height="33"/><rect class="cls-7" x="1785" y="2517" width="182" height="33"/><circle class="cls-7" cx="1973.4" cy="1675.29" r="357.91"/><circle class="cls-17" cx="1973.4" cy="1675.29" r="323.73"/><g class="cls-18"><path class="cls-19" d="M2101.39,1734h-26.1c-5.28,0-24.4.47-29-4.14-5.29-5.29-7.27-19.37-7.27-23.54V1695H1930v11.33c0,4.19-.95,18.24-6.23,23.53-4.6,4.61-22.69,4.14-28,4.14h-28.16c-45.3,0-85.64,38.68-85.64,84v181h401V1818C2183,1772.68,2146.68,1734,2101.39,1734Z"/><path class="cls-20" d="M2101.39,1734h-26.1c-5.28,0-24.4.47-29-4.14-5.29-5.29-7.27-19.37-7.27-23.54V1695h-53v304h197V1818C2183,1772.68,2146.68,1734,2101.39,1734Z"/><path class="cls-21" d="M2102,1620v-76.42c0-69.89-46.31-102.87-112.61-102.87s-122.39,33-122.39,102.87V1620h235Z"/><path class="cls-22" d="M1988.1,1455.06c-55.49,0-105.1,27.61-105.1,86.12V1612h3.19c2,53,46.19,101.84,100.37,101.84S2084.89,1665,2086.94,1612H2085v-70.82C2085,1482.67,2043.58,1455.06,1988.1,1455.06Z"/><path class="cls-19" d="M1989.36,1455.06c-1.37,0-3.36,0-3.36.07v257.6c53,0,98.89-47.73,100.94-100.73H2085v-70.82C2085,1482.67,2044.85,1455.06,1989.36,1455.06Z"/><path class="cls-22" d="M1893,1603c0,7.2-6.24,15-13.22,15h0c-7,0-12.74-7.82-12.74-15v-32.12a12.77,12.77,0,0,1,12.74-12.85h0c7,0,13.22,5.65,13.22,12.85V1603Z"/><path class="cls-21" d="M1922,1473.09s47.14,74,98.72,88.07c83.69,22.92,58.78,137.55,66.17,105.33,5.31-23.16,18.63-112.07,16.61-129.3l-26.42-57.63-55-24.5-42.67-14-47.55,14Z"/><path class="cls-23" d="M2101.39,1734h-26.1c-5.28,0-22.94.47-27.55-4.14-0.11-.12-0.2.23-0.32,0.11l-60.85,37-59.4-44a14.12,14.12,0,0,1-3.83,6.81c-4.61,4.61-22.26,4.21-27.54,4.21h-28.16c-45.3,0-85.64,38.68-85.64,84v181h401V1818C2183,1772.68,2146.68,1734,2101.39,1734Z"/><path class="cls-24" d="M2101.39,1734h-26.1c-5.28,0-22.94.47-27.55-4.14-0.11-.12-0.49.23-0.6,0.11L1986,1767.23V1999h197V1818C2183,1772.68,2146.68,1734,2101.39,1734Z"/><circle class="cls-7" cx="1986.03" cy="1788.9" r="11.39"/><circle class="cls-7" cx="1958.7" cy="1784.35" r="11.39"/><circle class="cls-7" cx="1935.93" cy="1766.13" r="11.39"/><circle class="cls-7" cx="1917.71" cy="1743.36" r="11.39"/><circle class="cls-7" cx="2013.36" cy="1784.35" r="11.39"/><circle class="cls-7" cx="2036.13" cy="1766.13" r="11.39"/><circle class="cls-7" cx="2054.35" cy="1743.36" r="11.39"/></g><path class="cls-25" d="M4115,2587H4001v67.38c-50-10.81-107.72-17.22-171.5-17.22s-123.5,6.4-171.5,17.22V2587H3543v137h0.51a3.12,3.12,0,0,0-.07.66c0,48.21,127.77,87.17,285.37,87.17s285.38-38.91,285.38-87.12a3.79,3.79,0,0,0-.07-0.71H4115V2587Z"/><ellipse class="cls-2" cx="3828.82" cy="2588.3" rx="285.38" ry="87.28"/><g class="cls-26"><polygon class="cls-27" points="3610.22 2505.89 4073.61 2649.35 3932.24 2692.57 3759.44 2491.86 3610.22 2505.89"/></g><g class="cls-28"><path class="cls-29" d="M4053,2839H3916V2671.5c106-13.4,137-28.45,137-28.45V2839Z"/></g><path class="cls-30" d="M3637.7,2628.61c20.94,25.77,115.2,28.07,115.2,28.07l62.84-73.88Z"/><path class="cls-25" d="M4115,2388H4001v67.4c-50-10.82-107.72-17.22-171.5-17.22s-123.5,6.4-171.5,17.22V2388H3543v137h0.51a3.31,3.31,0,0,0-.07.67c0,48.21,127.77,87.18,285.37,87.18s285.38-38.92,285.38-87.13a3.93,3.93,0,0,0-.07-0.72H4115V2388Z"/><ellipse class="cls-2" cx="3828.82" cy="2389.32" rx="285.38" ry="87.28"/><g class="cls-31"><polygon class="cls-27" points="3610.22 2306.91 4073.61 2450.37 3932.24 2493.59 3759.44 2292.88 3610.22 2306.91"/></g><g class="cls-32"><path class="cls-29" d="M4053,2640H3916V2472.52c106-13.4,137-28.45,137-28.45V2640Z"/></g><path class="cls-30" d="M3637.7,2429.64c20.94,25.77,115.2,28.07,115.2,28.07l62.84-73.88Z"/><path class="cls-25" d="M4115,2195H4001v66.66c-50-10.82-107.72-17.22-171.5-17.22s-123.5,6.4-171.5,17.22V2195H3543v137h0.51s-0.07,0-.07.3c0,48.2,127.77,87,285.37,87s285.38-38.64,285.38-86.85a0.89,0.89,0,0,0-.07-0.44H4115V2195Z"/><ellipse class="cls-3" cx="3828.82" cy="2195.58" rx="285.38" ry="87.28"/><g class="cls-33"><polygon class="cls-29" points="3610.22 2113.17 4073.61 2256.63 3932.24 2299.85 3759.44 2099.14 3610.22 2113.17"/></g><g class="cls-34"><polygon class="cls-29" points="4053 2447 3916 2447 3916 2238 4008.88 2238 4053 2250.33 4053 2447"/></g><path class="cls-35" d="M3637.7,2235.89c20.94,25.77,115.2,28.07,115.2,28.07l62.84-73.88Z"/><circle class="cls-15" cx="3146.87" cy="2430.17" r="270.84"/><circle class="cls-7" cx="3117.96" cy="2383" r="270.84"/><circle class="cls-4" cx="3117.96" cy="2383" r="244.97"/><g class="cls-36"><path class="cls-19" d="M3212.27,2442h-20.52c-4.15,0-18.29,1.21-21.92-2.41-4.16-4.16-4.83-14.38-4.83-17.66V2411h-86v10.94c0,3.29-1.47,13.5-5.63,17.65-3.62,3.62-18.56,2.41-22.71,2.41h-22.14c-35.61,0-63.53,32.09-63.53,67.7V2653h310V2509.7C3275,2474.09,3247.87,2442,3212.27,2442Z"/><path class="cls-20" d="M3212.27,2442h-20.52c-4.15,0-18.29,1.21-21.92-2.41-4.16-4.16-4.83-14.38-4.83-17.66V2411h-43v242h153V2509.7C3275,2474.09,3247.87,2442,3212.27,2442Z"/><path class="cls-37" d="M3210,2344v-56.34c0-50.63-36.44-74.52-84.46-74.52S3034,2237,3034,2287.66V2344h176Z"/><path class="cls-22" d="M3124.22,2224.43c-43.62,0-82.22,21.7-82.22,67.69V2348h1.11c1.61,43,36.31,80,78.9,80s77.29-37,78.89-80H3200v-55.88C3200,2246.13,3167.83,2224.43,3124.22,2224.43Z"/><path class="cls-19" d="M3124.74,2224.43c-1.08,0-2.74,0-2.74,0V2427c43,0,77.3-36,78.91-79H3200v-55.88C3200,2246.13,3168.35,2224.43,3124.74,2224.43Z"/><path class="cls-19" d="M3214,2341c0,5.79-4.37,11-10.15,11h-0.65c-5.78,0-9.2-5.21-9.2-11v-26.17c0-5.79,3.41-9.83,9.2-9.83h0.65c5.79,0,10.15,4,10.15,9.83V2341Z"/><path class="cls-22" d="M3049,2341c0,5.79-4.32,11-10.1,11h-0.65c-5.79,0-10.25-5.21-10.25-11v-26.17c0-5.79,4.46-9.83,10.25-9.83h0.65c5.79,0,10.1,4,10.1,9.83V2341Z"/><path class="cls-37" d="M3071.29,2238.6s8.81,29.35,50.72,32.57,48.35-5.37,70.91,7.52,11,3.48,11,3.48l-17-42.67-37-15.08-32.83-8.2-38.09,8.2Z"/><path class="cls-7" d="M3212.27,2442h-20.52c-4.15,0-18,1.21-21.65-2.41-0.09-.09-0.16.61-0.25,0.51L3122,2469.41l-46.69-34.48c-0.67,2.47-1.63,3.18-3,4.56-3.62,3.62-17.5,2.51-21.65,2.51h-22.14c-35.61,0-63.53,32.09-63.53,67.7V2653h310V2509.7C3275,2474.09,3247.87,2442,3212.27,2442Z"/><path class="cls-38" d="M3212.27,2442h-20.52c-4.15,0-18,1.21-21.65-2.41-0.09-.09-0.17.61-0.26,0.51L3122,2469.81V2653h153V2509.7C3275,2474.09,3247.87,2442,3212.27,2442Z"/><polygon class="cls-39" points="3122 2469.81 3097.29 2487.14 3109.65 2499.69 3097.3 2653 3122 2653 3122 2469.81"/><polygon class="cls-40" points="3122 2469.81 3097.29 2487.14 3109.65 2499.69 3097.3 2653 3122 2653 3122 2469.81"/><polygon class="cls-41" points="3122 2469.81 3146.45 2487.14 3133.96 2499.69 3146.18 2653 3122 2653 3122 2469.81"/><path class="cls-42" d="M3213.06,2440h-21.23c-1,0-2.41,1.09-4.13,1.08L3117.41,2653H3279V2507.53C3279,2471.37,3249.9,2440,3213.06,2440Z"/><path class="cls-42" d="M3045.88,2440H3023c-36.84,0-66,31.37-66,67.53V2653h160.41l-61.07-212.19C3052.06,2441.12,3047.88,2440,3045.88,2440Z"/><path class="cls-43" d="M3088.19,2379c3.07,14,18.1,25.06,36.22,25.06s33.15-11.06,36.23-25.06h-72.45Z"/></g><path class="cls-44" d="M2543,1561h395.88c37.55,0,70.11,31.81,70.11,75.22v180.36c0,43.42-32.56,82.42-70.11,82.42H2818v121.07L2710.27,1899H2543c-37.54,0-63-39-63-82.42V1636.22C2480,1592.81,2505.47,1561,2543,1561Z"/><path class="cls-7" d="M2763.29,1790.55v-97.79h30.37q0-34.77-30.37-44.83v-38.26q85.15,5.8,85.14,110.93v70h-85.14Z"/><path class="cls-7" d="M2720.61,1670.31v97.79h-30.37q0,34.77,30.38,44.83v38.26q-85.15-5.8-85.14-110.93v-70h85.14Z"/><path d="M2331.92,2363.22c-10.06,5.2-32.27,10.41-60.37,10.41-74.25,0-119.35-46.49-119.35-117.62,0-77,53.43-123.51,124.9-123.51,28.1,0,48.23,5.9,56.9,10.41l-9.37,34c-11.1-4.86-26.37-9-45.8-9-47.53,0-81.88,29.84-81.88,86,0,51.35,30.18,84.31,81.53,84.31,17.35,0,35.39-3.47,46.49-8.67Z"/><path d="M2565.76,2274.75c-1.39-30.18-3.12-66.61-2.78-98.19h-1c-7.63,28.45-17.35,60-27.75,89.51l-34,101.31h-33L2436,2267.46c-9-29.84-17.35-61.76-23.59-90.9h-0.69c-1,30.53-2.43,67.65-4.16,99.57l-5.2,94h-39.9l15.61-233.84h56.21l30.53,94c8.33,27.41,15.61,55.16,21.51,81.18h1c6.24-25.33,14.23-54.12,23.25-81.53l32.26-93.68h55.51l13.53,233.84h-41.63Z"/><path d="M2654.22,2323.67a118.17,118.17,0,0,0,56.55,14.92c27.41,0,42.67-12.84,42.67-31.92,0-17.69-11.8-28.1-41.63-38.86-38.51-13.88-63.14-34.35-63.14-68,0-38.16,31.92-67.31,82.57-67.31,25.33,0,44.06,5.55,56.21,11.8L2777,2178.65c-8.33-4.51-24.63-11.1-46.49-11.1-27.06,0-38.86,14.57-38.86,28.1,0,18,13.53,26.37,44.76,38.51,40.59,15.27,60.37,35.74,60.37,69.39,0,37.47-28.45,70.08-88.82,70.08-24.63,0-50.31-6.94-63.14-14.57Z"/><path class="cls-7" d="M3255.73,3786c-6.4,3.2-19.2,6.4-35.6,6.4-38,0-66.6-24-66.6-68.2,0-42.2,28.6-70.8,70.4-70.8,16.8,0,27.4,3.6,32,6l-4.2,14.2c-6.6-3.2-16-5.6-27.2-5.6-31.6,0-52.6,20.2-52.6,55.6,0,33,19,54.2,51.8,54.2,10.6,0,21.4-2.2,28.4-5.6Z"/><path class="cls-7" d="M3362.33,3741.21c0,35.8-24.8,51.4-48.2,51.4-26.2,0-46.4-19.2-46.4-49.8,0-32.4,21.2-51.4,48-51.4C3343.53,3691.41,3362.33,3711.61,3362.33,3741.21Zm-76.8,1c0,21.2,12.2,37.2,29.4,37.2,16.8,0,29.4-15.8,29.4-37.6,0-16.4-8.2-37.2-29-37.2S3285.53,3723.81,3285.53,3742.21Z"/><path class="cls-7" d="M3384.53,3719.81c0-10-.2-18.2-0.8-26.2h15.6l1,16h0.4c4.8-9.2,16-18.2,32-18.2,13.4,0,34.2,8,34.2,41.2v57.8h-17.6v-55.8c0-15.6-5.8-28.6-22.4-28.6-11.6,0-20.6,8.2-23.6,18a25.31,25.31,0,0,0-1.2,8.2v58.2h-17.6v-70.6Z"/><path class="cls-7" d="M3515.93,3665.81v27.8h25.2V3707h-25.2v52.2c0,12,3.4,18.8,13.2,18.8a39.16,39.16,0,0,0,10.2-1.2l0.8,13.2c-3.4,1.4-8.8,2.4-15.6,2.4-8.2,0-14.8-2.6-19-7.4-5-5.2-6.8-13.8-6.8-25.2V3707h-15v-13.4h15v-23.2Z"/><path class="cls-7" d="M3569.53,3745.21c0.4,23.8,15.6,33.6,33.2,33.6,12.6,0,20.2-2.2,26.8-5l3,12.6c-6.2,2.8-16.8,6-32.2,6-29.8,0-47.6-19.6-47.6-48.8s17.2-52.2,45.4-52.2c31.6,0,40,27.8,40,45.6a66.31,66.31,0,0,1-.6,8.2h-68Zm51.6-12.6c0.2-11.2-4.6-28.6-24.4-28.6-17.8,0-25.6,16.4-27,28.6h51.4Z"/><path class="cls-7" d="M3659.93,3719.81c0-10-.2-18.2-0.8-26.2h15.6l1,16h0.4c4.8-9.2,16-18.2,32-18.2,13.4,0,34.2,8,34.2,41.2v57.8h-17.6v-55.8c0-15.6-5.8-28.6-22.4-28.6-11.6,0-20.6,8.2-23.6,18a25.31,25.31,0,0,0-1.2,8.2v58.2h-17.6v-70.6Z"/><path class="cls-7" d="M3791.33,3665.81v27.8h25.2V3707h-25.2v52.2c0,12,3.4,18.8,13.2,18.8a39.16,39.16,0,0,0,10.2-1.2l0.8,13.2c-3.4,1.4-8.8,2.4-15.6,2.4-8.2,0-14.8-2.6-19-7.4-5-5.2-6.8-13.8-6.8-25.2V3707h-15v-13.4h15v-23.2Z"/><path class="cls-7" d="M791,1011.09c-1-18.8-2.2-41.4-2-58.2h-0.6c-4.6,15.8-10.2,32.6-17,51.2l-23.8,65.4h-13.2l-21.8-64.2c-6.4-19-11.8-36.4-15.6-52.4h-0.4c-0.4,16.8-1.4,39.4-2.6,59.6l-3.6,57.8h-16.6l9.4-134.8h22.2l23,65.2c5.6,16.6,10.2,31.4,13.6,45.4h0.6c3.4-13.6,8.2-28.4,14.2-45.4l24-65.2H803l8.4,134.8h-17Z"/><path class="cls-7" d="M848.61,1025.09c0.4,23.8,15.6,33.6,33.2,33.6,12.6,0,20.2-2.2,26.8-5l3,12.6c-6.2,2.8-16.8,6-32.2,6-29.8,0-47.6-19.6-47.6-48.8s17.2-52.2,45.4-52.2c31.6,0,40,27.8,40,45.6a66.3,66.3,0,0,1-.6,8.2h-68Zm51.6-12.6c0.2-11.2-4.6-28.6-24.4-28.6-17.8,0-25.6,16.4-27,28.6h51.4Z"/><path class="cls-7" d="M1022.61,928.29v117c0,8.6.2,18.4,0.8,25h-15.8l-0.8-16.8h-0.4c-5.4,10.8-17.2,19-33,19-23.4,0-41.4-19.8-41.4-49.2-0.2-32.2,19.8-52,43.4-52,14.8,0,24.8,7,29.2,14.8h0.4v-57.8h17.6Zm-17.6,84.6a31.09,31.09,0,0,0-.8-7.4c-2.6-11.2-12.2-20.4-25.4-20.4-18.2,0-29,16-29,37.4,0,19.6,9.6,35.8,28.6,35.8,11.8,0,22.6-7.8,25.8-21a30.6,30.6,0,0,0,.8-7.6v-16.8Z"/><path class="cls-7" d="M1071.41,946.29c0.2,6-4.2,10.8-11.2,10.8a10.47,10.47,0,0,1-10.6-10.8,10.72,10.72,0,0,1,11-11C1067.21,935.29,1071.41,940.09,1071.41,946.29Zm-19.6,124v-96.8h17.6v96.8h-17.6Z"/><path class="cls-7" d="M1152.21,1070.29l-1.4-12.2h-0.6c-5.4,7.6-15.8,14.4-29.6,14.4-19.6,0-29.6-13.8-29.6-27.8,0-23.4,20.8-36.2,58.2-36v-2c0-8-2.2-22.4-22-22.4a48.22,48.22,0,0,0-25.2,7.2l-4-11.6c8-5.2,19.6-8.6,31.8-8.6,29.6,0,36.8,20.2,36.8,39.6v36.2a136.37,136.37,0,0,0,1.6,23.2h-16Zm-2.6-49.4c-19.2-.4-41,3-41,21.8,0,11.4,7.6,16.8,16.6,16.8,12.6,0,20.6-8,23.4-16.2a18.35,18.35,0,0,0,1-5.6v-16.8Z"/><path class="cls-7" d="M2654.73,914.3l-14,42.4h-18l45.8-134.8h21l46,134.8h-18.6l-14.4-42.4h-47.8Zm44.2-13.6-13.2-38.8c-3-8.8-5-16.8-7-24.6h-0.4c-2,8-4.2,16.2-6.8,24.4l-13.2,39h40.6Z"/><path class="cls-7" d="M2835.93,814.7v117c0,8.6.2,18.4,0.8,25h-15.8l-0.8-16.8h-0.4c-5.4,10.8-17.2,19-33,19-23.4,0-41.4-19.8-41.4-49.2-0.2-32.2,19.8-52,43.4-52,14.8,0,24.8,7,29.2,14.8h0.4V814.7h17.6Zm-17.6,84.6a31.08,31.08,0,0,0-.8-7.4c-2.6-11.2-12.2-20.4-25.4-20.4-18.2,0-29,16-29,37.4,0,19.6,9.6,35.8,28.6,35.8,11.8,0,22.6-7.8,25.8-21a30.59,30.59,0,0,0,.8-7.6V899.3Z"/><path class="cls-7" d="M2865.13,886.1c0-10-.2-18.2-0.8-26.2h15.4l0.8,15.6h0.6c5.4-9.2,14.4-17.8,30.4-17.8,13.2,0,23.2,8,27.4,19.4h0.4a39.87,39.87,0,0,1,10.8-12.6c5.8-4.4,12.2-6.8,21.4-6.8,12.8,0,31.8,8.4,31.8,42v57h-17.2V901.9c0-18.6-6.8-29.8-21-29.8-10,0-17.8,7.4-20.8,16a29,29,0,0,0-1.4,8.8v59.8h-17.2v-58c0-15.4-6.8-26.6-20.2-26.6-11,0-19,8.8-21.8,17.6a24.26,24.26,0,0,0-1.4,8.6v58.4h-17.2V886.1Z"/><path class="cls-7" d="M3051.53,832.7c0.2,6-4.2,10.8-11.2,10.8a10.47,10.47,0,0,1-10.6-10.8,10.72,10.72,0,0,1,11-11C3047.33,821.7,3051.53,826.5,3051.53,832.7Zm-19.6,124V859.9h17.6v96.8h-17.6Z"/><path class="cls-7" d="M3078.73,886.1c0-10-.2-18.2-0.8-26.2h15.6l1,16h0.4c4.8-9.2,16-18.2,32-18.2,13.4,0,34.2,8,34.2,41.2v57.8h-17.6V900.9c0-15.6-5.8-28.6-22.4-28.6-11.6,0-20.6,8.2-23.6,18a25.31,25.31,0,0,0-1.2,8.2v58.2h-17.6V886.1Z"/><path class="cls-7" d="M3209.32,832.7c0.2,6-4.2,10.8-11.2,10.8a10.47,10.47,0,0,1-10.6-10.8,10.72,10.72,0,0,1,11-11C3205.13,821.7,3209.32,826.5,3209.32,832.7Zm-19.6,124V859.9h17.6v96.8h-17.6Z"/><path class="cls-7" d="M3234.12,938.7a46.12,46.12,0,0,0,23.2,7c12.8,0,18.8-6.4,18.8-14.4,0-8.4-5-13-18-17.8-17.4-6.2-25.6-15.8-25.6-27.4,0-15.6,12.6-28.4,33.4-28.4,9.8,0,18.4,2.8,23.8,6l-4.4,12.8a37.68,37.68,0,0,0-19.8-5.6c-10.4,0-16.2,6-16.2,13.2,0,8,5.8,11.6,18.4,16.4,16.8,6.4,25.4,14.8,25.4,29.2,0,17-13.2,29-36.2,29-10.6,0-20.4-2.6-27.2-6.6Z"/><path class="cls-7" d="M3336.92,832.1v27.8h25.2v13.4h-25.2v52.2c0,12,3.4,18.8,13.2,18.8a39.17,39.17,0,0,0,10.2-1.2l0.8,13.2c-3.4,1.4-8.8,2.4-15.6,2.4-8.2,0-14.8-2.6-19-7.4-5-5.2-6.8-13.8-6.8-25.2V873.3h-15V859.9h15V836.7Z"/><path class="cls-7" d="M3381.92,890.1c0-11.4-.2-21.2-0.8-30.2h15.4l0.6,19h0.8c4.4-13,15-21.2,26.8-21.2a19,19,0,0,1,5,.6v16.6a26.43,26.43,0,0,0-6-.6c-12.4,0-21.2,9.4-23.6,22.6a49.48,49.48,0,0,0-.8,8.2v51.6h-17.4V890.1Z"/><path class="cls-7" d="M3499.92,956.7l-1.4-12.2h-0.6c-5.4,7.6-15.8,14.4-29.6,14.4-19.6,0-29.6-13.8-29.6-27.8,0-23.4,20.8-36.2,58.2-36v-2c0-8-2.2-22.4-22-22.4a48.22,48.22,0,0,0-25.2,7.2l-4-11.6c8-5.2,19.6-8.6,31.8-8.6,29.6,0,36.8,20.2,36.8,39.6v36.2a136.37,136.37,0,0,0,1.6,23.2h-16Zm-2.6-49.4c-19.2-.4-41,3-41,21.8,0,11.4,7.6,16.8,16.6,16.8,12.6,0,20.6-8,23.4-16.2a18.35,18.35,0,0,0,1-5.6V907.3Z"/><path class="cls-7" d="M3563.12,832.1v27.8h25.2v13.4h-25.2v52.2c0,12,3.4,18.8,13.2,18.8a39.17,39.17,0,0,0,10.2-1.2l0.8,13.2c-3.4,1.4-8.8,2.4-15.6,2.4-8.2,0-14.8-2.6-19-7.4-5-5.2-6.8-13.8-6.8-25.2V873.3h-15V859.9h15V836.7Z"/><path class="cls-7" d="M3627.72,832.7c0.2,6-4.2,10.8-11.2,10.8a10.47,10.47,0,0,1-10.6-10.8,10.72,10.72,0,0,1,11-11C3623.52,821.7,3627.72,826.5,3627.72,832.7Zm-19.6,124V859.9h17.6v96.8h-17.6Z"/><path class="cls-7" d="M3742.52,907.5c0,35.8-24.8,51.4-48.2,51.4-26.2,0-46.4-19.2-46.4-49.8,0-32.4,21.2-51.4,48-51.4C3723.72,857.7,3742.52,877.9,3742.52,907.5Zm-76.8,1c0,21.2,12.2,37.2,29.4,37.2,16.8,0,29.4-15.8,29.4-37.6,0-16.4-8.2-37.2-29-37.2S3665.72,890.1,3665.72,908.5Z"/><path class="cls-7" d="M3764.72,886.1c0-10-.2-18.2-0.8-26.2h15.6l1,16h0.4c4.8-9.2,16-18.2,32-18.2,13.4,0,34.2,8,34.2,41.2v57.8h-17.6V900.9c0-15.6-5.8-28.6-22.4-28.6-11.6,0-20.6,8.2-23.6,18a25.31,25.31,0,0,0-1.2,8.2v58.2h-17.6V886.1Z"/><path class="cls-7" d="M1019.92,4012.35l-34.2-134.8h18.4l16,68.2c4,16.8,7.6,33.6,10,46.6h0.4c2.2-13.4,6.4-29.4,11-46.8l18-68h18.2l16.4,68.4c3.8,16,7.4,32,9.4,46.2h0.4c2.8-14.8,6.6-29.8,10.8-46.6l17.8-68h17.8l-38.2,134.8h-18.2l-17-70.2c-4.2-17.2-7-30.4-8.8-44h-0.4a421.23,421.23,0,0,1-10.4,44l-19.2,70.2h-18.2Z"/><path class="cls-7" d="M1169.72,3967.15c0.4,23.8,15.6,33.6,33.2,33.6,12.6,0,20.2-2.2,26.8-5l3,12.6c-6.2,2.8-16.8,6-32.2,6-29.8,0-47.6-19.6-47.6-48.8s17.2-52.2,45.4-52.2c31.6,0,40,27.8,40,45.6a66.31,66.31,0,0,1-.6,8.2h-68Zm51.6-12.6c0.2-11.2-4.6-28.6-24.4-28.6-17.8,0-25.6,16.4-27,28.6h51.4Z"/><path class="cls-7" d="M1259.31,4012.35c0.4-6.6.8-16.4,0.8-25v-117h17.4v60.8h0.4c6.2-10.8,17.4-17.8,33-17.8,24,0,41,20,40.8,49.4,0,34.6-21.8,51.8-43.4,51.8-14,0-25.2-5.4-32.4-18.2h-0.6l-0.8,16h-15.2Zm18.2-38.8a32.93,32.93,0,0,0,.8,6.4c3.4,12.2,13.6,20.6,26.4,20.6,18.4,0,29.4-15,29.4-37.2,0-19.4-10-36-28.8-36-12,0-23.2,8.2-26.8,21.6a34.72,34.72,0,0,0-1,7.2v17.4Z"/><path class="cls-7" d="M1371.51,3994.35a46.12,46.12,0,0,0,23.2,7c12.8,0,18.8-6.4,18.8-14.4,0-8.4-5-13-18-17.8-17.4-6.2-25.6-15.8-25.6-27.4,0-15.6,12.6-28.4,33.4-28.4,9.8,0,18.4,2.8,23.8,6l-4.4,12.8a37.68,37.68,0,0,0-19.8-5.6c-10.4,0-16.2,6-16.2,13.2,0,8,5.8,11.6,18.4,16.4,16.8,6.4,25.4,14.8,25.4,29.2,0,17-13.2,29-36.2,29-10.6,0-20.4-2.6-27.2-6.6Z"/><path class="cls-7" d="M1472.71,3888.35c0.2,6-4.2,10.8-11.2,10.8a10.47,10.47,0,0,1-10.6-10.8,10.72,10.72,0,0,1,11-11C1468.51,3877.35,1472.71,3882.15,1472.71,3888.35Zm-19.6,124v-96.8h17.6v96.8h-17.6Z"/><path class="cls-7" d="M1521.11,3887.75v27.8h25.2V3929h-25.2v52.2c0,12,3.4,18.8,13.2,18.8a39.17,39.17,0,0,0,10.2-1.2l0.8,13.2c-3.4,1.4-8.8,2.4-15.6,2.4-8.2,0-14.8-2.6-19-7.4-5-5.2-6.8-13.8-6.8-25.2V3929h-15v-13.4h15v-23.2Z"/><path class="cls-7" d="M1574.71,3967.15c0.4,23.8,15.6,33.6,33.2,33.6,12.6,0,20.2-2.2,26.8-5l3,12.6c-6.2,2.8-16.8,6-32.2,6-29.8,0-47.6-19.6-47.6-48.8s17.2-52.2,45.4-52.2c31.6,0,40,27.8,40,45.6a66.31,66.31,0,0,1-.6,8.2h-68Zm51.6-12.6c0.2-11.2-4.6-28.6-24.4-28.6-17.8,0-25.6,16.4-27,28.6h51.4Z"/><path class="cls-7" d="M584.65,3306.32c-1-18.8-2.2-41.4-2-58.2H582c-4.6,15.8-10.2,32.6-17,51.2l-23.8,65.4H528l-21.8-64.2c-6.4-19-11.8-36.4-15.6-52.4h-0.4c-0.4,16.8-1.4,39.4-2.6,59.6l-3.6,57.8h-16.6l9.4-134.8H499l23,65.2c5.6,16.6,10.2,31.4,13.6,45.4h0.6c3.4-13.6,8.2-28.4,14.2-45.4l24-65.2h22.2l8.4,134.8H588Z"/><path class="cls-7" d="M686,3365.52l-1.4-12.2H684c-5.4,7.6-15.8,14.4-29.6,14.4-19.6,0-29.6-13.8-29.6-27.8,0-23.4,20.8-36.2,58.2-36v-2c0-8-2.2-22.4-22-22.4a48.22,48.22,0,0,0-25.2,7.2l-4-11.6c8-5.2,19.6-8.6,31.8-8.6,29.6,0,36.8,20.2,36.8,39.6v36.2a136.37,136.37,0,0,0,1.6,23.2H686Zm-2.6-49.4c-19.2-.4-41,3-41,21.8,0,11.4,7.6,16.8,16.6,16.8,12.6,0,20.6-8,23.4-16.2a18.35,18.35,0,0,0,1-5.6v-16.8Z"/><path class="cls-7" d="M728.84,3294.92c0-10-.2-18.2-0.8-26.2h15.6l1,16H745c4.8-9.2,16-18.2,32-18.2,13.4,0,34.2,8,34.2,41.2v57.8h-17.6v-55.8c0-15.6-5.8-28.6-22.4-28.6-11.6,0-20.6,8.2-23.6,18a25.31,25.31,0,0,0-1.2,8.2v58.2h-17.6v-70.6Z"/><path class="cls-7" d="M893.44,3365.52l-1.4-12.2h-0.6c-5.4,7.6-15.8,14.4-29.6,14.4-19.6,0-29.6-13.8-29.6-27.8,0-23.4,20.8-36.2,58.2-36v-2c0-8-2.2-22.4-22-22.4a48.22,48.22,0,0,0-25.2,7.2l-4-11.6c8-5.2,19.6-8.6,31.8-8.6,29.6,0,36.8,20.2,36.8,39.6v36.2a136.36,136.36,0,0,0,1.6,23.2h-16Zm-2.6-49.4c-19.2-.4-41,3-41,21.8,0,11.4,7.6,16.8,16.6,16.8,12.6,0,20.6-8,23.4-16.2a18.35,18.35,0,0,0,1-5.6v-16.8Z"/><path class="cls-7" d="M1019.64,3268.72c-0.4,7-.8,14.8-0.8,26.6v56.2c0,22.2-4.4,35.8-13.8,44.2-9.4,8.8-23,11.6-35.2,11.6-11.6,0-24.4-2.8-32.2-8l4.4-13.4a54.59,54.59,0,0,0,28.4,7.6c18,0,31.2-9.4,31.2-33.8v-10.8h-0.4c-5.4,9-15.8,16.2-30.8,16.2-24,0-41.2-20.4-41.2-47.2,0-32.8,21.4-51.4,43.6-51.4,16.8,0,26,8.8,30.2,16.8h0.4l0.8-14.6h15.4Zm-18.2,38.2a25.07,25.07,0,0,0-1-8c-3.2-10.2-11.8-18.6-24.6-18.6-16.8,0-28.8,14.2-28.8,36.6,0,19,9.6,34.8,28.6,34.8,10.8,0,20.6-6.8,24.4-18a30.62,30.62,0,0,0,1.4-9.4v-17.4Z"/><path class="cls-7" d="M1057.84,3320.32c0.4,23.8,15.6,33.6,33.2,33.6,12.6,0,20.2-2.2,26.8-5l3,12.6c-6.2,2.8-16.8,6-32.2,6-29.8,0-47.6-19.6-47.6-48.8s17.2-52.2,45.4-52.2c31.6,0,40,27.8,40,45.6a66.31,66.31,0,0,1-.6,8.2h-68Zm51.6-12.6c0.2-11.2-4.6-28.6-24.4-28.6-17.8,0-25.6,16.4-27,28.6h51.4Z"/><path class="cls-7" d="M1148.24,3294.92c0-10-.2-18.2-0.8-26.2h15.4l0.8,15.6h0.6c5.4-9.2,14.4-17.8,30.4-17.8,13.2,0,23.2,8,27.4,19.4h0.4a39.87,39.87,0,0,1,10.8-12.6c5.8-4.4,12.2-6.8,21.4-6.8,12.8,0,31.8,8.4,31.8,42v57h-17.2v-54.8c0-18.6-6.8-29.8-21-29.8-10,0-17.8,7.4-20.8,16a29,29,0,0,0-1.4,8.8v59.8h-17.2v-58c0-15.4-6.8-26.6-20.2-26.6-11,0-19,8.8-21.8,17.6a24.26,24.26,0,0,0-1.4,8.6v58.4h-17.2v-70.6Z"/><path class="cls-7" d="M1324.84,3320.32c0.4,23.8,15.6,33.6,33.2,33.6,12.6,0,20.2-2.2,26.8-5l3,12.6c-6.2,2.8-16.8,6-32.2,6-29.8,0-47.6-19.6-47.6-48.8s17.2-52.2,45.4-52.2c31.6,0,40,27.8,40,45.6a66.31,66.31,0,0,1-.6,8.2h-68Zm51.6-12.6c0.2-11.2-4.6-28.6-24.4-28.6-17.8,0-25.6,16.4-27,28.6h51.4Z"/><path class="cls-7" d="M1415.23,3294.92c0-10-.2-18.2-0.8-26.2H1430l1,16h0.4c4.8-9.2,16-18.2,32-18.2,13.4,0,34.2,8,34.2,41.2v57.8H1480v-55.8c0-15.6-5.8-28.6-22.4-28.6-11.6,0-20.6,8.2-23.6,18a25.31,25.31,0,0,0-1.2,8.2v58.2h-17.6v-70.6Z"/><path class="cls-7" d="M1546.63,3240.92v27.8h25.2v13.4h-25.2v52.2c0,12,3.4,18.8,13.2,18.8a39.17,39.17,0,0,0,10.2-1.2l0.8,13.2c-3.4,1.4-8.8,2.4-15.6,2.4-8.2,0-14.8-2.6-19-7.4-5-5.2-6.8-13.8-6.8-25.2v-52.8h-15v-13.4h15v-23.2Z"/><path class="cls-7" d="M3287.4,1537.15a61.66,61.66,0,0,0,31.2,8.8c17.8,0,28.2-9.4,28.2-23,0-12.6-7.2-19.8-25.4-26.8-22-7.8-35.6-19.2-35.6-38.2,0-21,17.4-36.6,43.6-36.6,13.8,0,23.8,3.2,29.8,6.6l-4.8,14.2a53.68,53.68,0,0,0-25.6-6.4c-18.4,0-25.4,11-25.4,20.2,0,12.6,8.2,18.8,26.8,26,22.8,8.8,34.4,19.8,34.4,39.6,0,20.8-15.4,38.8-47.2,38.8-13,0-27.2-3.8-34.4-8.6Z"/><path class="cls-7" d="M3392.6,1461.55l21.2,57.2c2.2,6.4,4.6,14,6.2,19.8h0.4c1.8-5.8,3.8-13.2,6.2-20.2l19.2-56.8h18.6l-26.4,69c-12.6,33.2-21.2,50.2-33.2,60.6-8.6,7.6-17.2,10.6-21.6,11.4l-4.4-14.8a46.56,46.56,0,0,0,15.4-8.6,53.36,53.36,0,0,0,14.8-19.6,12.64,12.64,0,0,0,1.4-4.2,15.35,15.35,0,0,0-1.2-4.6l-35.8-89.2h19.2Z"/><path class="cls-7" d="M3476.8,1540.35a46.12,46.12,0,0,0,23.2,7c12.8,0,18.8-6.4,18.8-14.4,0-8.4-5-13-18-17.8-17.4-6.2-25.6-15.8-25.6-27.4,0-15.6,12.6-28.4,33.4-28.4,9.8,0,18.4,2.8,23.8,6l-4.4,12.8a37.68,37.68,0,0,0-19.8-5.6c-10.4,0-16.2,6-16.2,13.2,0,8,5.8,11.6,18.4,16.4,16.8,6.4,25.4,14.8,25.4,29.2,0,17-13.2,29-36.2,29-10.6,0-20.4-2.6-27.2-6.6Z"/><path class="cls-7" d="M3579.59,1433.75v27.8h25.2V1475h-25.2v52.2c0,12,3.4,18.8,13.2,18.8a39.17,39.17,0,0,0,10.2-1.2l0.8,13.2c-3.4,1.4-8.8,2.4-15.6,2.4-8.2,0-14.8-2.6-19-7.4-5-5.2-6.8-13.8-6.8-25.2V1475h-15v-13.4h15v-23.2Z"/><path class="cls-7" d="M3633.19,1513.15c0.4,23.8,15.6,33.6,33.2,33.6,12.6,0,20.2-2.2,26.8-5l3,12.6c-6.2,2.8-16.8,6-32.2,6-29.8,0-47.6-19.6-47.6-48.8s17.2-52.2,45.4-52.2c31.6,0,40,27.8,40,45.6a66.31,66.31,0,0,1-.6,8.2h-68Zm51.6-12.6c0.2-11.2-4.6-28.6-24.4-28.6-17.8,0-25.6,16.4-27,28.6h51.4Z"/><path class="cls-7" d="M3723.59,1487.75c0-10-.2-18.2-0.8-26.2h15.4l0.8,15.6h0.6c5.4-9.2,14.4-17.8,30.4-17.8,13.2,0,23.2,8,27.4,19.4h0.4a39.87,39.87,0,0,1,10.8-12.6c5.8-4.4,12.2-6.8,21.4-6.8,12.8,0,31.8,8.4,31.8,42v57h-17.2v-54.8c0-18.6-6.8-29.8-21-29.8-10,0-17.8,7.4-20.8,16a29,29,0,0,0-1.4,8.8v59.8h-17.2v-58c0-15.4-6.8-26.6-20.2-26.6-11,0-19,8.8-21.8,17.6a24.26,24.26,0,0,0-1.4,8.6v58.4h-17.2v-70.6Z"/><path class="cls-7" d="M578.33,2727.53l-34.2-134.8h18.4l16,68.2c4,16.8,7.6,33.6,10,46.6h0.4c2.2-13.4,6.4-29.4,11-46.8l18-68h18.2l16.4,68.4c3.8,16,7.4,32,9.4,46.2h0.4c2.8-14.8,6.6-29.8,10.8-46.6l17.8-68h17.8l-38.2,134.8h-18.2l-17-70.2c-4.2-17.2-7-30.4-8.8-44h-0.4a421.22,421.22,0,0,1-10.4,44l-19.2,70.2h-18.2Z"/><path class="cls-7" d="M728.13,2682.33c0.4,23.8,15.6,33.6,33.2,33.6,12.6,0,20.2-2.2,26.8-5l3,12.6c-6.2,2.8-16.8,6-32.2,6-29.8,0-47.6-19.6-47.6-48.8s17.2-52.2,45.4-52.2c31.6,0,40,27.8,40,45.6a66.29,66.29,0,0,1-.6,8.2h-68Zm51.6-12.6c0.2-11.2-4.6-28.6-24.4-28.6-17.8,0-25.6,16.4-27,28.6h51.4Z"/><path class="cls-7" d="M817.73,2727.53c0.4-6.6.8-16.4,0.8-25v-117h17.4v60.8h0.4c6.2-10.8,17.4-17.8,33-17.8,24,0,41,20,40.8,49.4,0,34.6-21.8,51.8-43.4,51.8-14,0-25.2-5.4-32.4-18.2h-0.6l-0.8,16h-15.2Zm18.2-38.8a32.93,32.93,0,0,0,.8,6.4c3.4,12.2,13.6,20.6,26.4,20.6,18.4,0,29.4-15,29.4-37.2,0-19.4-10-36-28.8-36-12,0-23.2,8.2-26.8,21.6a34.73,34.73,0,0,0-1,7.2v17.4Z"/><path class="cls-7" d="M929.93,2709.53a46.12,46.12,0,0,0,23.2,7c12.8,0,18.8-6.4,18.8-14.4,0-8.4-5-13-18-17.8-17.4-6.2-25.6-15.8-25.6-27.4,0-15.6,12.6-28.4,33.4-28.4,9.8,0,18.4,2.8,23.8,6l-4.4,12.8a37.69,37.69,0,0,0-19.8-5.6c-10.4,0-16.2,6-16.2,13.2,0,8,5.8,11.6,18.4,16.4,16.8,6.4,25.4,14.8,25.4,29.2,0,17-13.2,29-36.2,29-10.6,0-20.4-2.6-27.2-6.6Z"/><path class="cls-7" d="M1031.13,2603.53c0.2,6-4.2,10.8-11.2,10.8a10.47,10.47,0,0,1-10.6-10.8,10.73,10.73,0,0,1,11-11C1026.93,2592.53,1031.13,2597.33,1031.13,2603.53Zm-19.6,124v-96.8h17.6v96.8h-17.6Z"/><path class="cls-7" d="M1079.52,2602.93v27.8h25.2v13.4h-25.2v52.2c0,12,3.4,18.8,13.2,18.8a39.16,39.16,0,0,0,10.2-1.2l0.8,13.2c-3.4,1.4-8.8,2.4-15.6,2.4-8.2,0-14.8-2.6-19-7.4-5-5.2-6.8-13.8-6.8-25.2v-52.8h-15v-13.4h15v-23.2Z"/><path class="cls-7" d="M1133.12,2682.33c0.4,23.8,15.6,33.6,33.2,33.6,12.6,0,20.2-2.2,26.8-5l3,12.6c-6.2,2.8-16.8,6-32.2,6-29.8,0-47.6-19.6-47.6-48.8s17.2-52.2,45.4-52.2c31.6,0,40,27.8,40,45.6a66.29,66.29,0,0,1-.6,8.2h-68Zm51.6-12.6c0.2-11.2-4.6-28.6-24.4-28.6-17.8,0-25.6,16.4-27,28.6h51.4Z"/><path class="cls-7" d="M3715.34,3198a249.27,249.27,0,0,1,37-2.8c25,0,42.8,5.8,54.6,16.8,12,11,19,26.6,19,48.4,0,22-6.8,40-19.4,52.4-12.6,12.6-33.4,19.4-59.6,19.4a280.81,280.81,0,0,1-31.6-1.6V3198Zm17.4,119.2c4.4,0.8,10.8,1,17.6,1,37.2,0,57.4-20.8,57.4-57.2,0.2-31.8-17.8-52-54.6-52a98.86,98.86,0,0,0-20.4,1.8v106.4Z"/><path class="cls-7" d="M3901.54,3331l-1.4-12.2h-0.6c-5.4,7.6-15.8,14.4-29.6,14.4-19.6,0-29.6-13.8-29.6-27.8,0-23.4,20.8-36.2,58.2-36v-2c0-8-2.2-22.4-22-22.4a48.22,48.22,0,0,0-25.2,7.2l-4-11.6c8-5.2,19.6-8.6,31.8-8.6,29.6,0,36.8,20.2,36.8,39.6v36.2a136.37,136.37,0,0,0,1.6,23.2h-16Zm-2.6-49.4c-19.2-.4-41,3-41,21.8,0,11.4,7.6,16.8,16.6,16.8,12.6,0,20.6-8,23.4-16.2a18.35,18.35,0,0,0,1-5.6v-16.8Z"/><path class="cls-7" d="M3964.74,3206.43v27.8h25.2v13.4h-25.2v52.2c0,12,3.4,18.8,13.2,18.8a39.17,39.17,0,0,0,10.2-1.2l0.8,13.2c-3.4,1.4-8.8,2.4-15.6,2.4-8.2,0-14.8-2.6-19-7.4-5-5.2-6.8-13.8-6.8-25.2v-52.8h-15v-13.4h15V3211Z"/><path class="cls-7" d="M4063.34,3331l-1.4-12.2h-0.6c-5.4,7.6-15.8,14.4-29.6,14.4-19.6,0-29.6-13.8-29.6-27.8,0-23.4,20.8-36.2,58.2-36v-2c0-8-2.2-22.4-22-22.4a48.22,48.22,0,0,0-25.2,7.2l-4-11.6c8-5.2,19.6-8.6,31.8-8.6,29.6,0,36.8,20.2,36.8,39.6v36.2a136.36,136.36,0,0,0,1.6,23.2h-16Zm-2.6-49.4c-19.2-.4-41,3-41,21.8,0,11.4,7.6,16.8,16.6,16.8,12.6,0,20.6-8,23.4-16.2a18.35,18.35,0,0,0,1-5.6v-16.8Z"/><path class="cls-7" d="M1765.5,887.77v56.4h65.2v-56.4h17.6v134.8h-17.6v-63.2h-65.2v63.2h-17.4V887.77h17.4Z"/><path class="cls-7" d="M1904.1,902.57h-41v-14.8h99.8v14.8h-41.2v120h-17.6v-120Z"/><path class="cls-7" d="M2091.49,963.37c-1-18.8-2.2-41.4-2-58.2h-0.6c-4.6,15.8-10.2,32.6-17,51.2l-23.8,65.4h-13.2l-21.8-64.2c-6.4-19-11.8-36.4-15.6-52.4h-0.4c-0.4,16.8-1.4,39.4-2.6,59.6l-3.6,57.8h-16.6l9.4-134.8h22.2l23,65.2c5.6,16.6,10.2,31.4,13.6,45.4h0.6c3.4-13.6,8.2-28.4,14.2-45.4l24-65.2h22.2l8.4,134.8h-17Z"/><path class="cls-7" d="M2138.69,887.77h17.4V1008h57.6v14.6h-75V887.77Z"/><path class="cls-7" d="M3848,1904.13l-44-134.8h18.8l21,66.4c5.8,18.2,10.8,34.6,14.4,50.4h0.4c3.8-15.6,9.4-32.6,15.4-50.2l22.8-66.6h18.6l-48.2,134.8H3848Z"/><path class="cls-7" d="M3945.8,1780.13c0.2,6-4.2,10.8-11.2,10.8a10.47,10.47,0,0,1-10.6-10.8,10.73,10.73,0,0,1,11-11C3941.6,1769.13,3945.8,1773.93,3945.8,1780.13Zm-19.6,124v-96.8h17.6v96.8h-17.6Z"/><path class="cls-7" d="M4056.6,1762.13v117c0,8.6.2,18.4,0.8,25h-15.8l-0.8-16.8h-0.4c-5.4,10.8-17.2,19-33,19-23.4,0-41.4-19.8-41.4-49.2-0.2-32.2,19.8-52,43.4-52,14.8,0,24.8,7,29.2,14.8h0.4v-57.8h17.6Zm-17.6,84.6a31.09,31.09,0,0,0-.8-7.4c-2.6-11.2-12.2-20.4-25.4-20.4-18.2,0-29,16-29,37.4,0,19.6,9.6,35.8,28.6,35.8,11.8,0,22.6-7.8,25.8-21a30.6,30.6,0,0,0,.8-7.6v-16.8Z"/><path class="cls-7" d="M4095.6,1858.93c0.4,23.8,15.6,33.6,33.2,33.6,12.6,0,20.2-2.2,26.8-5l3,12.6c-6.2,2.8-16.8,6-32.2,6-29.8,0-47.6-19.6-47.6-48.8s17.2-52.2,45.4-52.2c31.6,0,40,27.8,40,45.6a66.55,66.55,0,0,1-.6,8.2h-68Zm51.6-12.6c0.2-11.2-4.6-28.6-24.4-28.6-17.8,0-25.6,16.4-27,28.6h51.4Z"/><path class="cls-7" d="M4273.6,1854.93c0,35.8-24.8,51.4-48.2,51.4-26.2,0-46.4-19.2-46.4-49.8,0-32.4,21.2-51.4,48-51.4C4254.79,1805.13,4273.6,1825.33,4273.6,1854.93Zm-76.8,1c0,21.2,12.2,37.2,29.4,37.2,16.8,0,29.4-15.8,29.4-37.6,0-16.4-8.2-37.2-29-37.2S4196.8,1837.53,4196.8,1855.93Z"/><path class="cls-7" d="M2205.45,3937.55h17.4v120.2h57.6v14.6h-75v-134.8Z"/><path class="cls-7" d="M2318.84,3948.35c0.2,6-4.2,10.8-11.2,10.8a10.47,10.47,0,0,1-10.6-10.8,10.72,10.72,0,0,1,11-11C2314.64,3937.35,2318.84,3942.15,2318.84,3948.35Zm-19.6,124v-96.8h17.6v96.8h-17.6Z"/><path class="cls-7" d="M2346,4001.75c0-10-.2-18.2-0.8-26.2h15.6l1,16h0.4c4.8-9.2,16-18.2,32-18.2,13.4,0,34.2,8,34.2,41.2v57.8h-17.6v-55.8c0-15.6-5.8-28.6-22.4-28.6-11.6,0-20.6,8.2-23.6,18a25.31,25.31,0,0,0-1.2,8.2v58.2H2346v-70.6Z"/><path class="cls-7" d="M2474.44,4020h0.4c2.4-3.4,5.8-7.6,8.6-11l28.4-33.4H2533l-37.4,39.8,42.6,57h-21.4l-33.4-46.4-9,10v36.4H2457v-142h17.4V4020Z"/><rect class="cls-45" x="1163" y="1893" width="493" height="349" rx="26.17" ry="26.17"/><polygon class="cls-7" points="1368 1978.25 1368 2161.06 1494.49 2069.65 1368 1978.25"/><polygon class="cls-7" points="2388 3148 1831 3148 1831 2453 2269.28 2453 2322.24 2506.54 2388 2572.89 2388 3148"/><polygon class="cls-46" points="2269 2573 2388.82 2573 2269 2453.35 2269 2573"/><polygon class="cls-47" points="2388 2573 2269.28 2573 2388 2692.43 2388 2573"/><rect class="cls-48" x="1894" y="2571" width="216" height="25"/><rect class="cls-48" x="1894" y="2622" width="427" height="5"/><rect class="cls-48" x="1894" y="2632" width="427" height="6"/><rect class="cls-48" x="1894" y="2644" width="427" height="5"/><rect class="cls-48" x="1894" y="2656" width="427" height="5"/><rect class="cls-48" x="1894" y="2667" width="427" height="6"/><rect class="cls-48" x="1894" y="2678" width="427" height="5"/><rect class="cls-48" x="1894" y="2690" width="427" height="6"/><rect class="cls-48" x="1894" y="2701" width="293" height="6"/><rect class="cls-48" x="1894" y="2735" width="427" height="6"/><rect class="cls-48" x="1894" y="2747" width="427" height="5"/><rect class="cls-48" x="1894" y="2757" width="427" height="7"/><rect class="cls-48" x="1894" y="2769" width="427" height="6"/><rect class="cls-48" x="1894" y="2781" width="427" height="5"/><rect class="cls-48" x="1894" y="2791" width="427" height="7"/><rect class="cls-48" x="1894" y="2804" width="427" height="5"/><rect class="cls-48" x="1894" y="2815" width="293" height="5"/><rect class="cls-48" x="1894" y="2842" width="427" height="8"/><rect class="cls-48" x="1894" y="2855" width="427" height="5"/><rect class="cls-48" x="1894" y="2866" width="427" height="5"/><rect class="cls-48" x="1894" y="2877" width="427" height="7"/><rect class="cls-48" x="1894" y="2889" width="427" height="5"/><rect class="cls-48" x="1894" y="2901" width="427" height="5"/><rect class="cls-48" x="1894" y="2911" width="427" height="7"/><rect class="cls-48" x="1894" y="2923" width="293" height="6"/><path class="cls-5" d="M2622,2453v163H2458.67c3.16,90,74,157.62,161.17,157.62,89.18,0,160.35-71.24,160.35-160.42C2780.19,2525.51,2711,2455.36,2622,2453Z"/><path class="cls-49" d="M2602,2432.26a31.08,31.08,0,0,0-3.65-.22c-89.18,0-161.1,71.06-161.1,160.24a19.12,19.12,0,0,0,.68,4.72H2602V2432.26Z"/></svg>