<svg id="object" xmlns="http://www.w3.org/2000/svg" xmlns:xlink="http://www.w3.org/1999/xlink" viewBox="0 0 5000 5000"><defs><style>.cls-1{fill:none;}.cls-2{fill:#969696;}.cls-3{fill:#e2e2e2;}.cls-4{fill:#2fa8b5;}.cls-5{fill:#ffc107;}.cls-14,.cls-30,.cls-35,.cls-6{fill:#fff;}.cls-7{opacity:0.4;}.cls-14,.cls-8{opacity:0.2;}.cls-9{fill:#1c1c1c;}.cls-10{fill:#d1d1d1;}.cls-11{fill:#9b9b9b;}.cls-12{fill:#7f7f7f;}.cls-13{fill:#e5e5e5;}.cls-15{opacity:0.3;}.cls-16{fill:#3f3f3f;}.cls-17{fill:#4d2256;}.cls-18{clip-path:url(#clip-path);}.cls-19{fill:#eace8b;}.cls-20{fill:#d3b271;}.cls-21{fill:#d83d00;}.cls-22{fill:#edd89d;}.cls-23{fill:#ae4bbc;}.cls-24{fill:#9c3dad;}.cls-25{fill:#d3d3d3;}.cls-26{clip-path:url(#clip-path-2);}.cls-27{fill:#898989;}.cls-28{clip-path:url(#clip-path-3);}.cls-29{fill:#c1c1c1;}.cls-30{opacity:0.1;}.cls-31{clip-path:url(#clip-path-4);}.cls-32{clip-path:url(#clip-path-5);}.cls-33{clip-path:url(#clip-path-6);}.cls-34{clip-path:url(#clip-path-7);}.cls-35{opacity:0.7;}.cls-36{clip-path:url(#clip-path-8);}.cls-37{fill:#ed9514;}.cls-38{fill:#d6d6d6;}.cls-39{fill:#c905ad;}.cls-40{fill:#066bc6;}.cls-41{fill:#004375;}.cls-42{fill:#3a3a3a;}.cls-43{fill:#fcfcfc;}.cls-44{fill:#ffbc00;}.cls-45{fill:#f2501d;}.cls-46{fill:#3eb1ba;}.cls-47{fill:#efefef;}.cls-48{fill:#bababa;}.cls-49{fill:#14c6bd;}</style><clipPath id="clip-path"><circle class="cls-1" cx="1976.61" cy="1674.48" r="323.73"/></clipPath><clipPath id="clip-path-2"><ellipse class="cls-2" cx="3828.82" cy="2588.3" rx="285.38" ry="87.28"/></clipPath><clipPath id="clip-path-3"><path class="cls-1" d="M4115,2587H4001v67.38c-50-10.81-107.72-17.22-171.5-17.22s-123.5,6.4-171.5,17.22V2587H3543v137h0.51a3.12,3.12,0,0,0-.07.66c0,48.21,127.77,87.17,285.37,87.17s285.38-38.91,285.38-87.12a3.79,3.79,0,0,0-.07-0.71H4115V2587Z"/></clipPath><clipPath id="clip-path-4"><ellipse class="cls-2" cx="3828.82" cy="2389.32" rx="285.38" ry="87.28"/></clipPath><clipPath id="clip-path-5"><path class="cls-1" d="M4115,2388H4001v67.4c-50-10.82-107.72-17.22-171.5-17.22s-123.5,6.4-171.5,17.22V2388H3543v137h0.51a3.31,3.31,0,0,0-.07.67c0,48.21,127.77,87.18,285.37,87.18s285.38-38.92,285.38-87.13a3.93,3.93,0,0,0-.07-0.72H4115V2388Z"/></clipPath><clipPath id="clip-path-6"><ellipse class="cls-3" cx="3828.82" cy="2195.58" rx="285.38" ry="87.28"/></clipPath><clipPath id="clip-path-7"><path class="cls-1" d="M4115,2195H4001v66.66c-50-10.82-107.72-17.22-171.5-17.22s-123.5,6.4-171.5,17.22V2195H3543v137h0.51s-0.07,0-.07.3c0,48.2,127.77,87,285.37,87s285.38-38.64,285.38-86.85a0.89,0.89,0,0,0-.07-0.44H4115V2195Z"/></clipPath><clipPath id="clip-path-8"><circle class="cls-4" cx="3117.96" cy="2383" r="244.97"/></clipPath></defs><title>lms</title><rect class="cls-5" width="5000" height="5000"/><path class="cls-6" d="M1929.32,861.06c-5.51,2.54-16.32,5.3-29.26,5.3-32.23,0-53.21-20.56-53.21-52.58,0-31,21.2-55.12,57.45-55.12,9.54,0,19.29,2.12,25.23,4.88l-4.66,19.5a45.94,45.94,0,0,0-19.72-4c-19.93,0-31.8,14.63-31.59,33.5,0,21.2,13.78,33.29,31.59,33.29a51,51,0,0,0,20.56-4Z"/><path class="cls-6" d="M2044.86,811.66c0,37.95-26.71,54.91-53,54.91-29.26,0-51.73-20.14-51.73-53.21,0-33.92,22.26-54.7,53.43-54.7C2024.3,758.66,2044.86,780.28,2044.86,811.66Zm-77.81,1.06c0,19.93,9.75,35,25.65,35,14.84,0,25.23-14.63,25.23-35.41,0-16.11-7.21-34.56-25-34.56C1974.48,777.74,1967.06,795.55,1967.06,812.72Z"/><path class="cls-6" d="M2158.71,833.28c0,12.3.42,22.47,0.85,31h-22.9l-1.27-15.69H2135c-4.45,7.42-14.63,18-33.07,18-18.87,0-36-11.24-36-44.95V761h26.08v56.18c0,17.17,5.51,28.2,19.29,28.2,10.39,0,17.17-7.42,19.93-14a23.71,23.71,0,0,0,1.48-8.06V761h26.08v72.29Z"/><path class="cls-6" d="M2186.9,794.27c0-14-.21-24-0.85-33.29h22.68l0.85,19.72h0.85c5.09-14.63,17.17-22,28.2-22a27.35,27.35,0,0,1,6.15.64v24.59a36.27,36.27,0,0,0-7.63-.85c-12.51,0-21,8.06-23.32,19.72a44.77,44.77,0,0,0-.85,8.06v53.43H2186.9v-70Z"/><path class="cls-6" d="M2261.09,840.28c5.94,3.6,17.17,7.42,26.5,7.42,11.45,0,16.54-4.66,16.54-11.45,0-7-4.24-10.6-17-15.05-20.14-7-28.62-18-28.41-30.1,0-18.23,15.05-32.44,39-32.44,11.45,0,21.41,3,27.35,6.15L2320,783.25a46.37,46.37,0,0,0-21.84-5.94c-9.33,0-14.42,4.45-14.42,10.81,0,6.57,4.88,9.75,18,14.42,18.66,6.78,27.35,16.32,27.56,31.59,0,18.66-14.63,32.22-42,32.22-12.51,0-23.75-3-31.38-7.21Z"/><path class="cls-6" d="M2369.21,819.93c0.64,18.66,15.26,26.71,31.8,26.71,12.08,0,20.78-1.7,28.62-4.66l3.82,18c-8.9,3.6-21.2,6.36-36,6.36-33.5,0-53.21-20.56-53.21-52.15,0-28.62,17.38-55.55,50.46-55.55,33.5,0,44.52,27.56,44.52,50.25a64.18,64.18,0,0,1-.85,11h-69.11Zm45.37-18.23c0.21-9.54-4-25.23-21.41-25.23-16.11,0-22.9,14.63-24,25.23h45.37Z"/><path class="cls-6" d="M2458.89,840.28c5.94,3.6,17.17,7.42,26.5,7.42,11.45,0,16.54-4.66,16.54-11.45,0-7-4.24-10.6-17-15.05-20.14-7-28.62-18-28.41-30.1,0-18.23,15.05-32.44,39-32.44,11.45,0,21.41,3,27.35,6.15l-5.09,18.44a46.37,46.37,0,0,0-21.84-5.94c-9.33,0-14.42,4.45-14.42,10.81,0,6.57,4.88,9.75,18,14.42,18.66,6.78,27.35,16.32,27.56,31.59,0,18.66-14.63,32.22-42,32.22-12.51,0-23.74-3-31.38-7.21Z"/><path class="cls-6" d="M3693.65,1708.77v29.47h24.8v19.5h-24.8v45.58c0,12.51,3.39,19.08,13.36,19.08a38.53,38.53,0,0,0,10.18-1.27l0.42,19.93c-3.82,1.48-10.6,2.54-18.87,2.54-9.54,0-17.6-3.18-22.47-8.48-5.51-5.94-8.06-15.26-8.06-28.83v-48.55h-14.84v-19.5h14.84v-23.32Z"/><path class="cls-6" d="M3738.16,1771.53c0-14-.21-24-0.85-33.29H3760l0.85,19.72h0.85c5.09-14.63,17.17-22,28.2-22a27.36,27.36,0,0,1,6.15.64v24.59a36.29,36.29,0,0,0-7.63-.85c-12.51,0-21,8.06-23.32,19.72a44.77,44.77,0,0,0-.85,8.06v53.43h-26.08v-70Z"/><path class="cls-6" d="M3869.82,1841.49l-1.7-11.45h-0.64c-6.36,8.06-17.17,13.78-30.53,13.78-20.78,0-32.44-15.05-32.44-30.74,0-26.08,23.11-39.22,61.27-39v-1.7c0-6.78-2.76-18-21-18-10.18,0-20.78,3.18-27.77,7.63l-5.09-17c7.63-4.66,21-9.12,37.31-9.12,33.07,0,42.61,21,42.61,43.46v37.31c0,9.33.42,18.44,1.48,24.8h-23.53Zm-3.39-50.46c-18.44-.42-36,3.6-36,19.29,0,10.18,6.57,14.84,14.84,14.84,10.39,0,18-6.78,20.35-14.2a18.73,18.73,0,0,0,.85-5.72V1791Z"/><path class="cls-6" d="M3995.32,1838.31c-5.51,2.54-16.32,5.3-29.26,5.3-32.23,0-53.21-20.56-53.21-52.58,0-31,21.2-55.12,57.45-55.12,9.54,0,19.29,2.12,25.23,4.88l-4.66,19.5a45.94,45.94,0,0,0-19.72-4c-19.93,0-31.8,14.63-31.59,33.5,0,21.2,13.78,33.29,31.59,33.29a51,51,0,0,0,20.56-4Z"/><path class="cls-6" d="M4040.69,1783.61h0.42c2.54-4,5.51-8.48,8.27-12.08l25-33.29h31.38l-38.16,42.19,43.67,61.06h-32l-29.68-45.58-8.9,10.39v35.19h-26.08V1691h26.08v92.65Z"/><path class="cls-6" d="M4153,1709.41c0,7.84-5.72,14-14.84,14-8.69,0-14.42-6.15-14.42-14,0-8.06,5.94-14.21,14.63-14.21C4147.32,1695.2,4152.83,1701.35,4153,1709.41Zm-27.77,132.08V1738.24h26.29v103.25h-26.29Z"/><path class="cls-6" d="M4179.54,1769c0-11.87-.21-21.84-0.85-30.74h22.9l1.27,15.48h0.64c4.45-8.06,15.69-17.81,32.86-17.81,18,0,36.68,11.66,36.68,44.31v61.27H4247v-58.3c0-14.84-5.51-26.08-19.72-26.08-10.39,0-17.6,7.42-20.35,15.26a26.55,26.55,0,0,0-1.06,8.48v60.63h-26.29V1769Z"/><path class="cls-6" d="M4395.14,1738.24c-0.42,7-.85,15.48-0.85,29.68v58.51c0,21.63-4.45,37.1-15.26,46.85-10.81,9.54-25.65,12.51-39.86,12.51-13.14,0-27.14-2.76-36-8.27l5.72-19.72a62.33,62.33,0,0,0,30.1,7.84c17,0,29.68-8.9,29.68-31.16v-8.9h-0.42c-5.94,9.12-16.54,15.26-30.11,15.26-25.65,0-43.88-21.2-43.88-50.46,0-33.92,22-54.49,46.85-54.49,15.69,0,25,7.63,29.89,16.11h0.42l1.06-13.78h22.68Zm-26.92,41.34a25.33,25.33,0,0,0-.85-7c-2.76-9.54-10.18-16.75-21.2-16.75-14.63,0-25.44,12.72-25.44,33.71,0,17.6,8.9,31.8,25.23,31.8a22.26,22.26,0,0,0,21.2-15.69,44.87,44.87,0,0,0,1.06-9.33v-16.75Z"/><path class="cls-6" d="M535.51,3399.19c0.64,18.66,15.26,26.71,31.8,26.71,12.08,0,20.78-1.7,28.62-4.66l3.82,18c-8.9,3.6-21.2,6.36-36,6.36-33.5,0-53.21-20.56-53.21-52.15,0-28.62,17.38-55.55,50.46-55.55,33.5,0,44.52,27.56,44.52,50.25a64.16,64.16,0,0,1-.85,11H535.51ZM580.88,3381c0.21-9.54-4-25.23-21.41-25.23-16.11,0-22.9,14.63-24,25.23h45.37Z"/><path class="cls-6" d="M721.65,3293v121.48c0,10.6.42,22,.85,29H699.18l-1.06-16.32h-0.42c-6.15,11.45-18.66,18.66-33.71,18.66-24.59,0-44.1-21-44.1-52.79-0.21-34.56,21.41-55.12,46.22-55.12,14.2,0,24.38,5.94,29,13.57h0.42V3293h26.08Zm-26.08,90.31a36.75,36.75,0,0,0-.64-6.78c-2.33-10.18-10.6-18.45-22.47-18.45-16.75,0-26.08,14.84-26.08,34.13,0,18.87,9.33,32.65,25.86,32.65,10.6,0,19.93-7.21,22.47-18.45a29.06,29.06,0,0,0,.85-7.63v-15.48Z"/><path class="cls-6" d="M842.06,3412.54c0,12.3.42,22.47,0.85,31H820l-1.27-15.69h-0.42c-4.45,7.42-14.63,18-33.07,18-18.87,0-36-11.24-36-44.95v-60.63h26.08v56.18c0,17.17,5.51,28.2,19.29,28.2,10.39,0,17.17-7.42,19.93-14a23.71,23.71,0,0,0,1.48-8.06v-62.33h26.08v72.29Z"/><path class="cls-6" d="M946.15,3440.32c-5.51,2.54-16.32,5.3-29.26,5.3-32.23,0-53.21-20.56-53.21-52.58,0-31,21.2-55.12,57.45-55.12,9.54,0,19.29,2.12,25.23,4.88l-4.66,19.5a45.94,45.94,0,0,0-19.72-4c-19.93,0-31.8,14.63-31.59,33.5,0,21.2,13.78,33.29,31.59,33.29a51,51,0,0,0,20.56-4Z"/><path class="cls-6" d="M1023.53,3443.5l-1.7-11.45h-0.64c-6.36,8.06-17.17,13.78-30.53,13.78-20.78,0-32.44-15.05-32.44-30.74,0-26.08,23.11-39.22,61.27-39v-1.7c0-6.78-2.76-18-21-18-10.18,0-20.78,3.18-27.77,7.63l-5.09-17c7.63-4.66,21-9.12,37.31-9.12,33.07,0,42.61,21,42.61,43.46v37.31c0,9.33.42,18.44,1.48,24.8h-23.53Zm-3.39-50.46c-18.44-.43-36,3.6-36,19.29,0,10.18,6.57,14.84,14.84,14.84,10.39,0,18-6.79,20.35-14.2a18.74,18.74,0,0,0,.85-5.72V3393Z"/><path class="cls-6" d="M1101.76,3310.78v29.47h24.8v19.51h-24.8v45.58c0,12.51,3.39,19.08,13.36,19.08a38.48,38.48,0,0,0,10.18-1.27l0.42,19.93c-3.82,1.48-10.6,2.54-18.87,2.54-9.54,0-17.6-3.18-22.47-8.48-5.51-5.94-8.06-15.26-8.06-28.83v-48.55h-14.84v-19.51h14.84v-23.32Z"/><path class="cls-6" d="M1174,3311.42c0,7.84-5.72,14-14.84,14-8.69,0-14.42-6.15-14.42-14,0-8.06,5.94-14.21,14.63-14.21C1168.32,3297.21,1173.84,3303.36,1174,3311.42Zm-27.77,132.08V3340.25h26.29V3443.5h-26.29Z"/><path class="cls-6" d="M1298.71,3390.92c0,37.95-26.71,54.91-53,54.91-29.26,0-51.73-20.14-51.73-53.21,0-33.92,22.26-54.7,53.43-54.7C1278.14,3337.92,1298.71,3359.54,1298.71,3390.92ZM1220.9,3392c0,19.93,9.75,35,25.65,35,14.84,0,25.23-14.63,25.23-35.4,0-16.11-7.21-34.56-25-34.56C1228.32,3357,1220.9,3374.81,1220.9,3392Z"/><path class="cls-6" d="M1320.11,3371c0-11.87-.21-21.84-0.85-30.74h22.9l1.27,15.48h0.64c4.45-8.05,15.69-17.81,32.86-17.81,18,0,36.68,11.66,36.68,44.31v61.27h-26.08v-58.3c0-14.84-5.51-26.08-19.72-26.08-10.39,0-17.6,7.42-20.35,15.26a26.57,26.57,0,0,0-1.06,8.48v60.63h-26.29V3371Z"/><g class="cls-7"><path class="cls-6" d="M1901,2293H1371.4c-61.76,0-111.4-50.45-111.4-112.22v-685.4c29-10.38,52-39.19,52-73.13a77.28,77.28,0,0,0-154.56,0c0,35.81,23.54,65.91,57.54,74.68v683.85c0,86.47,69.93,157.22,156.4,157.22H1901v-45Z"/><path class="cls-6" d="M2248,3265c0,61.76-49.8,113-111.56,113H1681a77.21,77.21,0,0,0-151.93,19.23c0,42.68,34.6,77.73,77.27,77.73a77.52,77.52,0,0,0,73.16-52h456.95c86.47,0,156.56-71.49,156.56-158V2510h-45v755Z"/><path class="cls-6" d="M3347.6,3126.89a77.58,77.58,0,0,0-71.66,48.11H2805.76A111.48,111.48,0,0,1,2694,3063.51V2309h-45v754.51c0,86.47,70.29,156.49,156.76,156.49H3272A77.27,77.27,0,1,0,3347.6,3126.89Z"/><path class="cls-6" d="M3485.87,1267.46c-30.27,0-56.46,18.54-69.14,42.54h-685c-86.47,0-157.77,70.25-157.77,156.71V1998h45V1466.71c0-61.76,51-111.71,112.77-111.71H3409.3A77.26,77.26,0,1,0,3485.87,1267.46Z"/></g><path class="cls-8" d="M3747.68,3047h-3.1a3.31,3.31,0,0,1-.58-1.29V2977H3446V1765.08c0-32.54-25.31-58.08-57.85-58.08H1565.65c-32.54,0-58.65,25.54-58.65,58.08V2977H1198v68.71a21.52,21.52,0,0,0,3.39,11.87c5.94,11.42,18.48,17.42,33,17.42H3713.14s0,0.07,0,.07C3731.59,3075.06,3745.84,3066,3747.68,3047Z"/><path class="cls-8" d="M4068,2268h-2.09c-1.44-47-128.63-86.89-285.34-86.89-20.52,0-40.54.46-59.83,1.72l-9.55-11.2-149.21,14,43.54,13.88C3539,2215.3,3496.05,2239,3495.22,2268H3493v136h2.26a1.2,1.2,0,0,0-.07.49c0,10,5.55,19.55,15.75,28.51-9.67,8.52-15.15,17-15.68,27H3493v136h2.26s-0.07,1.07-.07,1.37c0,11.08,6.77,22.79,19.09,32.54-11.78,9.33-18.46,19.09-19,31.09H3493v135h2.26a6,6,0,0,0-.07.85c0,48.21,127.77,87.27,285.38,87.27,30.2,0,59.29-1.44,86.61-4.1l136.73-28.85c38.83-14.91,62-33.77,62-54.31a6.78,6.78,0,0,0-.07-0.85H4068V2661h-2.12c-0.56-12-7.25-21.54-19-30.87,12.32-9.75,19.09-21.25,19.09-32.33,0-.3-0.06-1.8-0.07-1.8H4068V2460h-2.12c-0.53-10-6-18.49-15.64-27,10.17-8.95,15.71-18.46,15.71-28.48a1.63,1.63,0,0,0-.07-0.53H4068V2268Z"/><rect class="cls-9" x="1466" y="1666" width="1939" height="1360" rx="58.92" ry="58.92"/><path class="cls-10" d="M1157,2937v68.5c0,14.63,17.38,30.5,37.15,30.5H3672.93a30.48,30.48,0,0,0,31.07-30.5V2937H1157Z"/><path class="cls-11" d="M1157.52,3008c2.08,17,18.17,28,36.62,28H3672.92c18.44,0,32.71-11,34.54-28H1157.52Z"/><path class="cls-12" d="M2226.38,2937c10.19,15,27.54,29,47.24,29h319.85c19.7,0,37-14,47.23-29H2226.38Z"/><rect class="cls-13" x="1537" y="1749" width="1803" height="1095"/><polygon class="cls-14" points="3137.72 2844 3340 2844 3340 1749 2199.91 1749 3137.72 2844"/><circle class="cls-15" cx="2016.35" cy="1762.13" r="327.63"/><rect class="cls-16" x="1531" y="1749" width="497" height="1095"/><rect class="cls-6" x="1785" y="2195" width="182" height="34"/><rect class="cls-6" x="1704" y="2276" width="263" height="34"/><rect class="cls-6" x="1745" y="2356" width="222" height="34"/><rect class="cls-6" x="1677" y="2437" width="290" height="33"/><rect class="cls-6" x="1785" y="2517" width="182" height="33"/><circle class="cls-6" cx="1973.4" cy="1675.29" r="357.91"/><circle class="cls-17" cx="1973.4" cy="1675.29" r="323.73"/><g class="cls-18"><path class="cls-19" d="M2101.39,1734h-26.1c-5.28,0-24.4.47-29-4.14-5.29-5.29-7.27-19.37-7.27-23.54V1695H1930v11.33c0,4.19-.95,18.24-6.23,23.53-4.6,4.61-22.69,4.14-28,4.14h-28.16c-45.3,0-85.64,38.68-85.64,84v181h401V1818C2183,1772.68,2146.68,1734,2101.39,1734Z"/><path class="cls-20" d="M2101.39,1734h-26.1c-5.28,0-24.4.47-29-4.14-5.29-5.29-7.27-19.37-7.27-23.54V1695h-53v304h197V1818C2183,1772.68,2146.68,1734,2101.39,1734Z"/><path class="cls-21" d="M2102,1620v-76.42c0-69.89-46.31-102.87-112.61-102.87s-122.39,33-122.39,102.87V1620h235Z"/><path class="cls-22" d="M1988.1,1455.06c-55.49,0-105.1,27.61-105.1,86.12V1612h3.19c2,53,46.19,101.84,100.37,101.84S2084.89,1665,2086.94,1612H2085v-70.82C2085,1482.67,2043.58,1455.06,1988.1,1455.06Z"/><path class="cls-19" d="M1989.36,1455.06c-1.37,0-3.36,0-3.36.07v257.6c53,0,98.89-47.73,100.94-100.73H2085v-70.82C2085,1482.67,2044.85,1455.06,1989.36,1455.06Z"/><path class="cls-22" d="M1893,1603c0,7.2-6.24,15-13.22,15h0c-7,0-12.74-7.82-12.74-15v-32.12a12.77,12.77,0,0,1,12.74-12.85h0c7,0,13.22,5.65,13.22,12.85V1603Z"/><path class="cls-21" d="M1922,1473.09s47.14,74,98.72,88.07c83.69,22.92,58.78,137.55,66.17,105.33,5.31-23.16,18.63-112.07,16.61-129.3l-26.42-57.63-55-24.5-42.67-14-47.55,14Z"/><path class="cls-23" d="M2101.39,1734h-26.1c-5.28,0-22.94.47-27.55-4.14-0.11-.12-0.2.23-0.32,0.11l-60.85,37-59.4-44a14.12,14.12,0,0,1-3.83,6.81c-4.61,4.61-22.26,4.21-27.54,4.21h-28.16c-45.3,0-85.64,38.68-85.64,84v181h401V1818C2183,1772.68,2146.68,1734,2101.39,1734Z"/><path class="cls-24" d="M2101.39,1734h-26.1c-5.28,0-22.94.47-27.55-4.14-0.11-.12-0.49.23-0.6,0.11L1986,1767.23V1999h197V1818C2183,1772.68,2146.68,1734,2101.39,1734Z"/><circle class="cls-6" cx="1986.03" cy="1788.9" r="11.39"/><circle class="cls-6" cx="1958.7" cy="1784.35" r="11.39"/><circle class="cls-6" cx="1935.93" cy="1766.13" r="11.39"/><circle class="cls-6" cx="1917.71" cy="1743.36" r="11.39"/><circle class="cls-6" cx="2013.36" cy="1784.35" r="11.39"/><circle class="cls-6" cx="2036.13" cy="1766.13" r="11.39"/><circle class="cls-6" cx="2054.35" cy="1743.36" r="11.39"/></g><path class="cls-25" d="M4115,2587H4001v67.38c-50-10.81-107.72-17.22-171.5-17.22s-123.5,6.4-171.5,17.22V2587H3543v137h0.51a3.12,3.12,0,0,0-.07.66c0,48.21,127.77,87.17,285.37,87.17s285.38-38.91,285.38-87.12a3.79,3.79,0,0,0-.07-0.71H4115V2587Z"/><ellipse class="cls-2" cx="3828.82" cy="2588.3" rx="285.38" ry="87.28"/><g class="cls-26"><polygon class="cls-27" points="3610.22 2505.89 4073.61 2649.35 3932.24 2692.57 3759.44 2491.86 3610.22 2505.89"/></g><g class="cls-28"><path class="cls-29" d="M4053,2839H3916V2671.5c106-13.4,137-28.45,137-28.45V2839Z"/></g><path class="cls-30" d="M3637.7,2628.61c20.94,25.77,115.2,28.07,115.2,28.07l62.84-73.88Z"/><path class="cls-25" d="M4115,2388H4001v67.4c-50-10.82-107.72-17.22-171.5-17.22s-123.5,6.4-171.5,17.22V2388H3543v137h0.51a3.31,3.31,0,0,0-.07.67c0,48.21,127.77,87.18,285.37,87.18s285.38-38.92,285.38-87.13a3.93,3.93,0,0,0-.07-0.72H4115V2388Z"/><ellipse class="cls-2" cx="3828.82" cy="2389.32" rx="285.38" ry="87.28"/><g class="cls-31"><polygon class="cls-27" points="3610.22 2306.91 4073.61 2450.37 3932.24 2493.59 3759.44 2292.88 3610.22 2306.91"/></g><g class="cls-32"><path class="cls-29" d="M4053,2640H3916V2472.52c106-13.4,137-28.45,137-28.45V2640Z"/></g><path class="cls-30" d="M3637.7,2429.64c20.94,25.77,115.2,28.07,115.2,28.07l62.84-73.88Z"/><path class="cls-25" d="M4115,2195H4001v66.66c-50-10.82-107.72-17.22-171.5-17.22s-123.5,6.4-171.5,17.22V2195H3543v137h0.51s-0.07,0-.07.3c0,48.2,127.77,87,285.37,87s285.38-38.64,285.38-86.85a0.89,0.89,0,0,0-.07-0.44H4115V2195Z"/><ellipse class="cls-3" cx="3828.82" cy="2195.58" rx="285.38" ry="87.28"/><g class="cls-33"><polygon class="cls-29" points="3610.22 2113.17 4073.61 2256.63 3932.24 2299.85 3759.44 2099.14 3610.22 2113.17"/></g><g class="cls-34"><polygon class="cls-29" points="4053 2447 3916 2447 3916 2238 4008.88 2238 4053 2250.33 4053 2447"/></g><path class="cls-35" d="M3637.7,2235.89c20.94,25.77,115.2,28.07,115.2,28.07l62.84-73.88Z"/><circle class="cls-15" cx="3146.87" cy="2430.17" r="270.84"/><circle class="cls-6" cx="3117.96" cy="2383" r="270.84"/><circle class="cls-4" cx="3117.96" cy="2383" r="244.97"/><g class="cls-36"><path class="cls-19" d="M3212.27,2442h-20.52c-4.15,0-18.29,1.21-21.92-2.41-4.16-4.16-4.83-14.38-4.83-17.66V2411h-86v10.94c0,3.29-1.47,13.5-5.63,17.65-3.62,3.62-18.56,2.41-22.71,2.41h-22.14c-35.61,0-63.53,32.09-63.53,67.7V2653h310V2509.7C3275,2474.09,3247.87,2442,3212.27,2442Z"/><path class="cls-20" d="M3212.27,2442h-20.52c-4.15,0-18.29,1.21-21.92-2.41-4.16-4.16-4.83-14.38-4.83-17.66V2411h-43v242h153V2509.7C3275,2474.09,3247.87,2442,3212.27,2442Z"/><path class="cls-37" d="M3210,2344v-56.34c0-50.63-36.44-74.52-84.46-74.52S3034,2237,3034,2287.66V2344h176Z"/><path class="cls-22" d="M3124.22,2224.43c-43.62,0-82.22,21.7-82.22,67.69V2348h1.11c1.61,43,36.31,80,78.9,80s77.29-37,78.89-80H3200v-55.88C3200,2246.13,3167.83,2224.43,3124.22,2224.43Z"/><path class="cls-19" d="M3124.74,2224.43c-1.08,0-2.74,0-2.74,0V2427c43,0,77.3-36,78.91-79H3200v-55.88C3200,2246.13,3168.35,2224.43,3124.74,2224.43Z"/><path class="cls-19" d="M3214,2341c0,5.79-4.37,11-10.15,11h-0.65c-5.78,0-9.2-5.21-9.2-11v-26.17c0-5.79,3.41-9.83,9.2-9.83h0.65c5.79,0,10.15,4,10.15,9.83V2341Z"/><path class="cls-22" d="M3049,2341c0,5.79-4.32,11-10.1,11h-0.65c-5.79,0-10.25-5.21-10.25-11v-26.17c0-5.79,4.46-9.83,10.25-9.83h0.65c5.79,0,10.1,4,10.1,9.83V2341Z"/><path class="cls-37" d="M3071.29,2238.6s8.81,29.35,50.72,32.57,48.35-5.37,70.91,7.52,11,3.48,11,3.48l-17-42.67-37-15.08-32.83-8.2-38.09,8.2Z"/><path class="cls-6" d="M3212.27,2442h-20.52c-4.15,0-18,1.21-21.65-2.41-0.09-.09-0.16.61-0.25,0.51L3122,2469.41l-46.69-34.48c-0.67,2.47-1.63,3.18-3,4.56-3.62,3.62-17.5,2.51-21.65,2.51h-22.14c-35.61,0-63.53,32.09-63.53,67.7V2653h310V2509.7C3275,2474.09,3247.87,2442,3212.27,2442Z"/><path class="cls-38" d="M3212.27,2442h-20.52c-4.15,0-18,1.21-21.65-2.41-0.09-.09-0.17.61-0.26,0.51L3122,2469.81V2653h153V2509.7C3275,2474.09,3247.87,2442,3212.27,2442Z"/><polygon class="cls-39" points="3122 2469.81 3097.29 2487.14 3109.65 2499.69 3097.3 2653 3122 2653 3122 2469.81"/><polygon class="cls-40" points="3122 2469.81 3097.29 2487.14 3109.65 2499.69 3097.3 2653 3122 2653 3122 2469.81"/><polygon class="cls-41" points="3122 2469.81 3146.45 2487.14 3133.96 2499.69 3146.18 2653 3122 2653 3122 2469.81"/><path class="cls-42" d="M3213.06,2440h-21.23c-1,0-2.41,1.09-4.13,1.08L3117.41,2653H3279V2507.53C3279,2471.37,3249.9,2440,3213.06,2440Z"/><path class="cls-42" d="M3045.88,2440H3023c-36.84,0-66,31.37-66,67.53V2653h160.41l-61.07-212.19C3052.06,2441.12,3047.88,2440,3045.88,2440Z"/><path class="cls-43" d="M3088.19,2379c3.07,14,18.1,25.06,36.22,25.06s33.15-11.06,36.23-25.06h-72.45Z"/></g><path class="cls-44" d="M2543,1561h395.88c37.55,0,70.11,31.81,70.11,75.22v180.36c0,43.42-32.56,82.42-70.11,82.42H2818v121.07L2710.27,1899H2543c-37.54,0-63-39-63-82.42V1636.22C2480,1592.81,2505.47,1561,2543,1561Z"/><path class="cls-6" d="M2763.29,1790.55v-97.79h30.37q0-34.77-30.37-44.83v-38.26q85.15,5.8,85.14,110.93v70h-85.14Z"/><path class="cls-6" d="M2720.61,1670.31v97.79h-30.37q0,34.77,30.38,44.83v38.26q-85.15-5.8-85.14-110.93v-70h85.14Z"/><path d="M2204,2116.88h50.08V2295.6h87.73v41.9H2204V2116.88Z"/><path d="M2557.87,2253c-1-26.51-2-58.59-2-90.67h-1c-6.87,28.15-16,59.57-24.55,85.43l-26.84,86.09h-39L2441,2248.46c-7.2-25.86-14.73-57.28-20-86.09h-0.66c-1.31,29.79-2.29,63.83-3.93,91.33l-3.93,83.8h-46.15l14.08-220.62h66.45l21.6,73.65c6.87,25.53,13.75,53,18.66,78.89h1c6.22-25.53,13.75-54.66,20.95-79.21l23.57-73.32h65.14l12.11,220.62h-48.77Z"/><path d="M2649.85,2286.11c13.42,6.87,34,13.75,55.32,13.75,22.91,0,35-9.49,35-23.9,0-13.75-10.47-21.6-37-31.1-36.66-12.77-60.56-33.06-60.56-65.14,0-37.64,31.42-66.45,83.47-66.45,24.88,0,43.21,5.24,56.3,11.13l-11.13,40.26a104.88,104.88,0,0,0-46.15-10.47c-21.6,0-32.08,9.82-32.08,21.28,0,14.08,12.44,20.29,40.92,31.1,39,14.4,57.28,34.7,57.28,65.8,0,37-28.48,68.41-89,68.41-25.2,0-50.08-6.55-62.52-13.42Z"/><circle class="cls-45" cx="1492.57" cy="2265.12" r="205.05"/><polygon class="cls-6" points="1456 2179.25 1456 2362.06 1582.49 2270.65 1456 2179.25"/><polygon class="cls-6" points="2388 3148 1831 3148 1831 2453 2269.28 2453 2322.24 2506.54 2388 2572.89 2388 3148"/><polygon class="cls-46" points="2269 2573 2388.82 2573 2269 2453.35 2269 2573"/><polygon class="cls-47" points="2388 2573 2269.28 2573 2388 2692.43 2388 2573"/><rect class="cls-48" x="1894" y="2571" width="216" height="25"/><rect class="cls-48" x="1894" y="2622" width="427" height="5"/><rect class="cls-48" x="1894" y="2632" width="427" height="6"/><rect class="cls-48" x="1894" y="2644" width="427" height="5"/><rect class="cls-48" x="1894" y="2656" width="427" height="5"/><rect class="cls-48" x="1894" y="2667" width="427" height="6"/><rect class="cls-48" x="1894" y="2678" width="427" height="5"/><rect class="cls-48" x="1894" y="2690" width="427" height="6"/><rect class="cls-48" x="1894" y="2701" width="293" height="6"/><rect class="cls-48" x="1894" y="2735" width="427" height="6"/><rect class="cls-48" x="1894" y="2747" width="427" height="5"/><rect class="cls-48" x="1894" y="2757" width="427" height="7"/><rect class="cls-48" x="1894" y="2769" width="427" height="6"/><rect class="cls-48" x="1894" y="2781" width="427" height="5"/><rect class="cls-48" x="1894" y="2791" width="427" height="7"/><rect class="cls-48" x="1894" y="2804" width="427" height="5"/><rect class="cls-48" x="1894" y="2815" width="293" height="5"/><rect class="cls-48" x="1894" y="2842" width="427" height="8"/><rect class="cls-48" x="1894" y="2855" width="427" height="5"/><rect class="cls-48" x="1894" y="2866" width="427" height="5"/><rect class="cls-48" x="1894" y="2877" width="427" height="7"/><rect class="cls-48" x="1894" y="2889" width="427" height="5"/><rect class="cls-48" x="1894" y="2901" width="427" height="5"/><rect class="cls-48" x="1894" y="2911" width="427" height="7"/><rect class="cls-48" x="1894" y="2923" width="293" height="6"/><path class="cls-49" d="M2622,2453v163H2458.67c3.16,90,74,157.62,161.17,157.62,89.18,0,160.35-71.24,160.35-160.42C2780.19,2525.51,2711,2455.36,2622,2453Z"/><path class="cls-45" d="M2602,2432.26a31.08,31.08,0,0,0-3.65-.22c-89.18,0-161.1,71.06-161.1,160.24a19.12,19.12,0,0,0,.68,4.72H2602V2432.26Z"/><path class="cls-6" d="M894.23,4465.32h32.44v115.75h56.82v27.14H894.23V4465.32Z"/><path class="cls-6" d="M1087.57,4547.79H1035v33.92h58.73v26.5h-91.16V4465.32h88.19v26.5H1035v29.68h52.58v26.29Z"/><path class="cls-6" d="M1149,4571.54l-10.18,36.68h-33.5L1149,4465.32h42.4l44.31,142.89H1201l-11-36.68H1149Zm36.25-24.17-8.9-30.32c-2.54-8.48-5.09-19.08-7.21-27.56h-0.42c-2.12,8.48-4.24,19.29-6.57,27.56l-8.48,30.32h31.59Z"/><path class="cls-6" d="M1254.83,4467.23a283.89,283.89,0,0,1,43-3c21.2,0,36,3.18,46.22,11.24,8.48,6.78,13.14,16.75,13.14,29.89,0,18.23-12.93,30.74-25.23,35.19v0.64c10,4,15.48,13.57,19.08,26.71,4.45,16.11,8.9,34.77,11.66,40.28h-33.07c-2.33-4-5.72-15.69-10-33.29-3.82-17.81-10-22.68-23.11-22.9h-9.75v56.18h-32v-141Zm32,61.48h12.72c16.11,0,25.65-8.06,25.65-20.56,0-13.14-8.9-19.72-23.74-19.93a80.69,80.69,0,0,0-14.63,1.06v39.43Z"/><path class="cls-6" d="M1380.55,4608.22V4465.32h37.74l29.68,52.37a414.41,414.41,0,0,1,23.32,49h0.64c-2.12-18.87-2.76-38.16-2.76-59.57v-41.76h29.68v142.89h-33.92l-30.53-55.12a530.78,530.78,0,0,1-24.8-50.46l-0.64.21c0.85,18.87,1.27,39,1.27,62.33v43h-29.68Z"/><path class="cls-6" d="M1559.26,4465.32v142.89h-32.44V4465.32h32.44Z"/><path class="cls-6" d="M1587.24,4608.22V4465.32H1625l29.68,52.37a414.33,414.33,0,0,1,23.32,49h0.64c-2.12-18.87-2.76-38.16-2.76-59.57v-41.76h29.68v142.89h-33.92l-30.53-55.12a530.68,530.68,0,0,1-24.8-50.46l-0.64.21c0.85,18.87,1.27,39,1.27,62.33v43h-29.68Z"/><path class="cls-6" d="M1852.88,4601.64c-10,3.39-28.83,8.06-47.7,8.06-26.08,0-44.95-6.57-58.09-19.29-13.14-12.3-20.35-31-20.14-51.94,0.21-47.49,34.77-74.63,81.62-74.63,18.44,0,32.65,3.6,39.65,7l-6.78,25.87c-7.84-3.39-17.6-6.15-33.29-6.15-26.92,0-47.28,15.26-47.28,46.22,0,29.47,18.44,46.85,44.94,46.85,7.42,0,13.36-.85,15.9-2.12v-29.89h-22v-25.23h53.21v75.26Z"/><path class="cls-6" d="M2041.77,4553.52c-0.64-17.17-1.27-37.95-1.27-58.73h-0.64c-4.45,18.23-10.39,38.58-15.9,55.33l-17.38,55.76h-25.23l-15.26-55.33c-4.66-16.75-9.54-37.1-12.93-55.76h-0.42c-0.85,19.29-1.48,41.34-2.54,59.15l-2.54,54.27h-29.89l9.12-142.89h43l14,47.7c4.45,16.54,8.9,34.34,12.08,51.09h0.64c4-16.54,8.9-35.41,13.57-51.31l15.26-47.49h42.19l7.84,142.89h-31.59Z"/><path class="cls-6" d="M2132.93,4571.54l-10.18,36.68h-33.5l43.67-142.89h42.4l44.31,142.89h-34.77l-11-36.68h-40.92Zm36.25-24.17-8.9-30.32c-2.54-8.48-5.09-19.08-7.21-27.56h-0.42c-2.12,8.48-4.24,19.29-6.57,27.56l-8.48,30.32h31.59Z"/><path class="cls-6" d="M2238.71,4608.22V4465.32h37.74l29.68,52.37a414.3,414.3,0,0,1,23.32,49h0.64c-2.12-18.87-2.76-38.16-2.76-59.57v-41.76H2357v142.89h-33.92l-30.53-55.12a530.66,530.66,0,0,1-24.8-50.46l-0.64.21c0.85,18.87,1.27,39,1.27,62.33v43h-29.68Z"/><path class="cls-6" d="M2418.27,4571.54l-10.18,36.68h-33.5l43.67-142.89h42.4L2505,4608.22h-34.77l-11-36.68h-40.92Zm36.25-24.17-8.9-30.32c-2.54-8.48-5.09-19.08-7.21-27.56H2438c-2.12,8.48-4.24,19.29-6.57,27.56l-8.48,30.32h31.59Z"/><path class="cls-6" d="M2638.12,4601.64c-10,3.39-28.83,8.06-47.7,8.06-26.08,0-44.95-6.57-58.09-19.29-13.14-12.3-20.35-31-20.14-51.94,0.21-47.49,34.77-74.63,81.62-74.63,18.45,0,32.65,3.6,39.65,7l-6.78,25.87c-7.84-3.39-17.6-6.15-33.29-6.15-26.92,0-47.28,15.26-47.28,46.22,0,29.47,18.45,46.85,44.95,46.85,7.42,0,13.36-.85,15.9-2.12v-29.89h-22v-25.23h53.21v75.26Z"/><path class="cls-6" d="M2748.36,4547.79h-52.58v33.92h58.73v26.5h-91.16V4465.32h88.19v26.5h-55.76v29.68h52.58v26.29Z"/><path class="cls-6" d="M2897.39,4553.52c-0.64-17.17-1.27-37.95-1.27-58.73h-0.63c-4.45,18.23-10.39,38.58-15.9,55.33l-17.38,55.76H2837l-15.27-55.33c-4.66-16.75-9.54-37.1-12.93-55.76h-0.42c-0.85,19.29-1.48,41.34-2.54,59.15l-2.54,54.27h-29.89l9.12-142.89h43l14,47.7c4.45,16.54,8.9,34.34,12.08,51.09h0.64c4-16.54,8.9-35.41,13.57-51.31l15.26-47.49h42.19l7.84,142.89h-31.59Z"/><path class="cls-6" d="M3040.91,4547.79h-52.58v33.92h58.73v26.5H2955.9V4465.32h88.2v26.5h-55.76v29.68h52.58v26.29Z"/><path class="cls-6" d="M3069.11,4608.22V4465.32h37.74l29.68,52.37a414.46,414.46,0,0,1,23.32,49h0.63c-2.12-18.87-2.76-38.16-2.76-59.57v-41.76h29.68v142.89h-33.92L3123,4553.09a530.66,530.66,0,0,1-24.8-50.46l-0.64.21c0.85,18.87,1.27,39,1.27,62.33v43h-29.68Z"/><path class="cls-6" d="M3242.95,4492.46h-38.37v-27.14h109.82v27.14h-39v115.75h-32.44V4492.46Z"/><path class="cls-6" d="M3375.44,4574.93c8.69,4.45,22,8.9,35.83,8.9,14.84,0,22.68-6.15,22.68-15.48,0-8.9-6.78-14-24-20.14-23.75-8.27-39.22-21.41-39.22-42.19,0-24.38,20.35-43,54.06-43,16.11,0,28,3.39,36.46,7.21l-7.21,26.08a67.91,67.91,0,0,0-29.89-6.79c-14,0-20.78,6.36-20.78,13.78,0,9.12,8.06,13.14,26.5,20.14,25.23,9.33,37.1,22.47,37.1,42.61,0,24-18.45,44.31-57.67,44.31-16.32,0-32.44-4.24-40.49-8.69Z"/><path class="cls-6" d="M3521.93,4608.22V4549.7l-45.16-84.38h36.89l14.63,34.34c4.45,10.39,7.42,18,11,27.35h0.42c3.18-8.9,6.57-17.17,10.81-27.35l14.42-34.34h36.25l-47.06,83.32v59.57h-32.23Z"/><path class="cls-6" d="M3611.61,4574.93c8.69,4.45,22,8.9,35.83,8.9,14.84,0,22.68-6.15,22.68-15.48,0-8.9-6.78-14-24-20.14-23.75-8.27-39.22-21.41-39.22-42.19,0-24.38,20.35-43,54.06-43,16.11,0,28,3.39,36.46,7.21l-7.21,26.08a67.91,67.91,0,0,0-29.89-6.79c-14,0-20.78,6.36-20.78,13.78,0,9.12,8.06,13.14,26.5,20.14,25.23,9.33,37.1,22.47,37.1,42.61,0,24-18.44,44.31-57.66,44.31-16.33,0-32.44-4.24-40.49-8.69Z"/><path class="cls-6" d="M3752.59,4492.46h-38.37v-27.14H3824v27.14h-39v115.75h-32.44V4492.46Z"/><path class="cls-6" d="M3926.21,4547.79h-52.58v33.92h58.73v26.5H3841.2V4465.32h88.19v26.5h-55.76v29.68h52.58v26.29Z"/><path class="cls-6" d="M4075.25,4553.52c-0.64-17.17-1.27-37.95-1.27-58.73h-0.64c-4.45,18.23-10.39,38.58-15.9,55.33l-17.38,55.76h-25.23l-15.26-55.33c-4.66-16.75-9.54-37.1-12.93-55.76h-0.42c-0.85,19.29-1.48,41.34-2.54,59.15l-2.54,54.27h-29.89l9.12-142.89h43l14,47.7c4.45,16.54,8.9,34.34,12.08,51.09h0.64c4-16.54,8.9-35.41,13.57-51.31l15.26-47.49h42.19l7.84,142.89h-31.59Z"/><path class="cls-6" d="M2954.4,3430.65c0.63,18.66,15.26,26.71,31.8,26.71,12.08,0,20.78-1.7,28.62-4.66l3.82,18c-8.9,3.6-21.2,6.36-36,6.36-33.5,0-53.21-20.56-53.21-52.15,0-28.62,17.38-55.55,50.46-55.55,33.5,0,44.52,27.56,44.52,50.25a64.2,64.2,0,0,1-.85,11H2954.4Zm45.37-18.23c0.21-9.54-4-25.23-21.41-25.23-16.11,0-22.9,14.63-24,25.23h45.37Z"/><path class="cls-6" d="M3097.92,3409.45v18h-54.06v-18h54.06Z"/><path class="cls-6" d="M3118.26,3324.43h26.29V3475h-26.29V3324.43Z"/><path class="cls-6" d="M3191.19,3430.65c0.64,18.66,15.26,26.71,31.8,26.71,12.08,0,20.78-1.7,28.62-4.66l3.82,18c-8.9,3.6-21.2,6.36-36,6.36-33.5,0-53.21-20.56-53.21-52.15,0-28.62,17.38-55.55,50.46-55.55,33.5,0,44.52,27.56,44.52,50.25a64.17,64.17,0,0,1-.85,11h-69.11Zm45.37-18.23c0.21-9.54-4-25.23-21.41-25.23-16.11,0-22.9,14.63-24,25.23h45.37Z"/><path class="cls-6" d="M3340.23,3475l-1.7-11.45h-0.64c-6.36,8.06-17.17,13.78-30.53,13.78-20.78,0-32.44-15.05-32.44-30.74,0-26.08,23.11-39.22,61.27-39v-1.7c0-6.78-2.76-18-21-18-10.18,0-20.78,3.18-27.77,7.63l-5.09-17c7.63-4.66,21-9.12,37.31-9.12,33.07,0,42.61,21,42.61,43.46v37.31c0,9.33.42,18.44,1.48,24.8h-23.53Zm-3.39-50.46c-18.44-.42-36,3.6-36,19.29,0,10.18,6.57,14.84,14.84,14.84,10.39,0,18-6.78,20.35-14.2a18.73,18.73,0,0,0,.85-5.72v-14.2Z"/><path class="cls-6" d="M3389.83,3405c0-14-.21-24-0.85-33.29h22.68l0.85,19.72h0.85c5.09-14.63,17.17-22,28.2-22a27.34,27.34,0,0,1,6.15.64v24.59a36.26,36.26,0,0,0-7.63-.85c-12.51,0-21,8.06-23.32,19.72a44.77,44.77,0,0,0-.85,8.06V3475h-26.08v-70Z"/><path class="cls-6" d="M3465.3,3402.45c0-11.87-.21-21.84-0.85-30.74h22.9l1.27,15.48h0.64c4.45-8.06,15.69-17.81,32.86-17.81,18,0,36.68,11.66,36.68,44.31V3475h-26.08v-58.3c0-14.84-5.51-26.08-19.72-26.08-10.39,0-17.6,7.42-20.35,15.26a26.55,26.55,0,0,0-1.06,8.48V3475H3465.3v-72.51Z"/><path class="cls-6" d="M3614.34,3342.88c0,7.84-5.72,14-14.84,14-8.69,0-14.42-6.15-14.42-14,0-8.06,5.94-14.2,14.63-14.2C3608.61,3328.67,3614.12,3334.82,3614.34,3342.88ZM3586.56,3475V3371.71h26.29V3475h-26.29Z"/><path class="cls-6" d="M3640.83,3402.45c0-11.87-.21-21.84-0.85-30.74h22.9l1.27,15.48h0.64c4.45-8.06,15.69-17.81,32.86-17.81,18,0,36.68,11.66,36.68,44.31V3475h-26.08v-58.3c0-14.84-5.51-26.08-19.72-26.08-10.39,0-17.6,7.42-20.35,15.26a26.58,26.58,0,0,0-1.06,8.48V3475h-26.29v-72.51Z"/><path class="cls-6" d="M3856.44,3371.71c-0.42,7-.85,15.48-0.85,29.68v58.51c0,21.63-4.45,37.1-15.26,46.85-10.81,9.54-25.65,12.51-39.86,12.51-13.14,0-27.14-2.76-36-8.27l5.72-19.72a62.33,62.33,0,0,0,30.1,7.84c17,0,29.68-8.9,29.68-31.17v-8.9h-0.42c-5.94,9.12-16.54,15.26-30.1,15.26-25.65,0-43.88-21.2-43.88-50.46,0-33.92,22-54.49,46.85-54.49,15.69,0,25,7.63,29.89,16.11h0.42l1.06-13.78h22.68Zm-26.92,41.34a25.29,25.29,0,0,0-.85-7c-2.76-9.54-10.18-16.75-21.2-16.75-14.63,0-25.44,12.72-25.44,33.71,0,17.6,8.9,31.8,25.23,31.8a22.27,22.27,0,0,0,21.2-15.69,44.93,44.93,0,0,0,1.06-9.33v-16.75Z"/><path class="cls-6" d="M1719.46,3629.24c0-11.87-.21-21.84-0.85-30.74h22.47l1.06,15.26h0.64c5.09-8.06,14.42-17.6,31.8-17.6,13.57,0,24.17,7.63,28.62,19.08h0.42a39.08,39.08,0,0,1,12.72-12.93c5.72-4,12.3-6.15,20.78-6.15,17.17,0,34.56,11.66,34.56,44.73v60.85h-25.44v-57c0-17.17-5.94-27.35-18.44-27.35-8.9,0-15.48,6.36-18.23,13.78a37.35,37.35,0,0,0-1.27,8.69v61.91h-25.44V3642c0-14.42-5.72-24.59-17.81-24.59-9.75,0-16.32,7.63-18.66,14.84a22.32,22.32,0,0,0-1.48,8.48v61.06h-25.44v-72.51Z"/><path class="cls-6" d="M1957.32,3701.74l-1.7-11.45H1955c-6.36,8.06-17.17,13.78-30.53,13.78-20.78,0-32.44-15.05-32.44-30.74,0-26.08,23.11-39.22,61.27-39v-1.7c0-6.78-2.76-18-21-18-10.18,0-20.78,3.18-27.77,7.63l-5.09-17c7.63-4.66,21-9.12,37.31-9.12,33.07,0,42.61,21,42.61,43.46v37.31c0,9.33.42,18.44,1.48,24.8h-23.53Zm-3.39-50.46c-18.44-.42-36,3.6-36,19.29,0,10.18,6.57,14.84,14.84,14.84,10.39,0,18-6.78,20.35-14.2a18.74,18.74,0,0,0,.85-5.72v-14.2Z"/><path class="cls-6" d="M2006.93,3629.24c0-11.87-.21-21.84-0.85-30.74H2029l1.27,15.48h0.64c4.45-8.06,15.69-17.81,32.86-17.81,18,0,36.68,11.66,36.68,44.31v61.27h-26.08v-58.3c0-14.84-5.51-26.08-19.72-26.08-10.39,0-17.6,7.42-20.35,15.26a26.57,26.57,0,0,0-1.06,8.48v60.63h-26.29v-72.51Z"/><path class="cls-6" d="M2186.28,3701.74l-1.7-11.45h-0.64c-6.36,8.06-17.17,13.78-30.53,13.78-20.78,0-32.44-15.05-32.44-30.74,0-26.08,23.11-39.22,61.27-39v-1.7c0-6.78-2.76-18-21-18-10.18,0-20.78,3.18-27.77,7.63l-5.09-17c7.63-4.66,21-9.12,37.31-9.12,33.07,0,42.61,21,42.61,43.46v37.31c0,9.33.42,18.44,1.48,24.8h-23.53Zm-3.39-50.46c-18.44-.42-36,3.6-36,19.29,0,10.18,6.57,14.84,14.84,14.84,10.39,0,18-6.78,20.35-14.2a18.74,18.74,0,0,0,.85-5.72v-14.2Z"/><path class="cls-6" d="M2330.23,3598.49c-0.42,7-.85,15.48-0.85,29.68v58.51c0,21.63-4.45,37.1-15.26,46.85-10.81,9.54-25.65,12.51-39.86,12.51-13.14,0-27.14-2.76-36-8.27l5.72-19.72a62.33,62.33,0,0,0,30.1,7.84c17,0,29.68-8.9,29.68-31.17v-8.9h-0.42c-5.94,9.12-16.54,15.26-30.11,15.26-25.65,0-43.88-21.2-43.88-50.46,0-33.92,22-54.49,46.85-54.49,15.69,0,25,7.63,29.89,16.11h0.42l1.06-13.78h22.68Zm-26.92,41.34a25.3,25.3,0,0,0-.85-7c-2.76-9.54-10.18-16.75-21.2-16.75-14.63,0-25.44,12.72-25.44,33.71,0,17.6,8.9,31.8,25.23,31.8a22.27,22.27,0,0,0,21.2-15.69,44.9,44.9,0,0,0,1.06-9.33v-16.75Z"/><path class="cls-6" d="M2375.8,3657.43c0.64,18.66,15.26,26.71,31.8,26.71,12.08,0,20.78-1.7,28.62-4.66l3.82,18c-8.9,3.6-21.2,6.36-36,6.36-33.5,0-53.21-20.56-53.21-52.15,0-28.62,17.38-55.55,50.46-55.55,33.5,0,44.52,27.56,44.52,50.25a64.18,64.18,0,0,1-.85,11H2375.8Zm45.37-18.23c0.21-9.54-4-25.23-21.41-25.23-16.11,0-22.9,14.63-24,25.23h45.37Z"/><path class="cls-6" d="M2466.75,3629.24c0-11.87-.21-21.84-0.85-30.74h22.47l1.06,15.26h0.64c5.09-8.06,14.42-17.6,31.8-17.6,13.57,0,24.17,7.63,28.62,19.08h0.42a39.09,39.09,0,0,1,12.72-12.93c5.72-4,12.3-6.15,20.78-6.15,17.17,0,34.56,11.66,34.56,44.73v60.85h-25.44v-57c0-17.17-5.94-27.35-18.44-27.35-8.9,0-15.48,6.36-18.23,13.78a37.3,37.3,0,0,0-1.27,8.69v61.91h-25.44V3642c0-14.42-5.72-24.59-17.81-24.59-9.75,0-16.32,7.63-18.66,14.84a22.32,22.32,0,0,0-1.48,8.48v61.06h-25.44v-72.51Z"/><path class="cls-6" d="M2665,3657.43c0.64,18.66,15.26,26.71,31.8,26.71,12.08,0,20.78-1.7,28.62-4.66l3.82,18c-8.9,3.6-21.2,6.36-36,6.36-33.5,0-53.21-20.56-53.21-52.15,0-28.62,17.38-55.55,50.46-55.55,33.5,0,44.52,27.56,44.52,50.25a64.18,64.18,0,0,1-.85,11H2665Zm45.37-18.23c0.21-9.54-4-25.23-21.41-25.23-16.11,0-22.9,14.63-24,25.23h45.37Z"/><path class="cls-6" d="M2755.91,3629.24c0-11.87-.21-21.84-0.85-30.74H2778l1.27,15.48h0.64c4.45-8.06,15.69-17.81,32.86-17.81,18,0,36.68,11.66,36.68,44.31v61.27h-26.08v-58.3c0-14.84-5.51-26.08-19.72-26.08-10.39,0-17.6,7.42-20.35,15.26a26.58,26.58,0,0,0-1.06,8.48v60.63h-26.29v-72.51Z"/><path class="cls-6" d="M2906,3569v29.47h24.8V3618H2906v45.58c0,12.51,3.39,19.08,13.36,19.08a38.53,38.53,0,0,0,10.18-1.27l0.42,19.93c-3.82,1.48-10.6,2.54-18.87,2.54-9.54,0-17.6-3.18-22.47-8.48-5.51-5.94-8.06-15.26-8.06-28.83V3618h-14.84v-19.5h14.84v-23.32Z"/><path class="cls-6" d="M2805.05,995.73v121.48c0,10.6.42,22,.85,29h-23.32l-1.06-16.32h-0.42c-6.15,11.45-18.66,18.66-33.71,18.66-24.59,0-44.1-21-44.1-52.79-0.21-34.56,21.41-55.12,46.22-55.12,14.2,0,24.38,5.94,29,13.57H2779V995.73h26.08ZM2779,1086a36.76,36.76,0,0,0-.64-6.78c-2.33-10.18-10.6-18.44-22.47-18.44-16.75,0-26.08,14.84-26.08,34.13,0,18.87,9.33,32.65,25.86,32.65,10.6,0,19.93-7.21,22.47-18.44a29.06,29.06,0,0,0,.85-7.63V1086Z"/><path class="cls-6" d="M2931.19,1093.67c0,37.95-26.71,54.91-53,54.91-29.26,0-51.73-20.14-51.73-53.21,0-33.92,22.26-54.7,53.42-54.7C2910.63,1040.67,2931.19,1062.3,2931.19,1093.67Zm-77.81,1.06c0,19.93,9.75,35,25.65,35,14.84,0,25.23-14.63,25.23-35.41,0-16.11-7.21-34.56-25-34.56C2860.8,1059.75,2853.38,1077.56,2853.38,1094.73Z"/><path class="cls-6" d="M3028.5,1143.07c-5.51,2.54-16.32,5.3-29.26,5.3-32.23,0-53.21-20.56-53.21-52.58,0-31,21.2-55.12,57.45-55.12,9.54,0,19.29,2.12,25.23,4.88l-4.66,19.5a45.94,45.94,0,0,0-19.72-4c-19.93,0-31.8,14.63-31.59,33.5,0,21.2,13.78,33.29,31.59,33.29a51,51,0,0,0,20.56-4Z"/><path class="cls-6" d="M3140.22,1115.3c0,12.3.42,22.47,0.85,31h-22.9l-1.27-15.69h-0.42c-4.45,7.42-14.63,18-33.07,18-18.87,0-36-11.24-36-44.95V1043h26.08v56.18c0,17.17,5.51,28.2,19.29,28.2,10.39,0,17.17-7.42,19.93-14a23.71,23.71,0,0,0,1.48-8.06V1043h26.08v72.29Z"/><path class="cls-6" d="M3168.41,1073.75c0-11.87-.21-21.84-0.85-30.74H3190l1.06,15.26h0.64c5.09-8.06,14.42-17.6,31.8-17.6,13.57,0,24.17,7.63,28.62,19.08h0.42a39.09,39.09,0,0,1,12.72-12.93c5.72-4,12.3-6.15,20.78-6.15,17.17,0,34.56,11.66,34.56,44.73v60.85h-25.44v-57c0-17.17-5.94-27.35-18.44-27.35-8.9,0-15.48,6.36-18.23,13.78a37.35,37.35,0,0,0-1.27,8.69v61.91H3231.8v-59.79c0-14.42-5.72-24.59-17.81-24.59-9.75,0-16.33,7.63-18.66,14.84a22.32,22.32,0,0,0-1.48,8.48v61.06h-25.44v-72.51Z"/><path class="cls-6" d="M3366.63,1101.94c0.64,18.66,15.26,26.71,31.8,26.71,12.09,0,20.78-1.7,28.62-4.66l3.82,18c-8.9,3.6-21.2,6.36-36,6.36-33.5,0-53.21-20.56-53.21-52.15,0-28.62,17.38-55.55,50.46-55.55,33.5,0,44.52,27.56,44.52,50.25a64.17,64.17,0,0,1-.85,11h-69.11Zm45.37-18.23c0.21-9.54-4-25.23-21.41-25.23-16.11,0-22.9,14.63-24,25.23H3412Z"/><path class="cls-6" d="M3457.57,1073.75c0-11.87-.21-21.84-0.85-30.74h22.9l1.27,15.48h0.64c4.45-8.06,15.69-17.81,32.86-17.81,18,0,36.68,11.66,36.68,44.31v61.27H3525V1088c0-14.84-5.51-26.08-19.72-26.08-10.39,0-17.6,7.42-20.35,15.26a26.58,26.58,0,0,0-1.06,8.48v60.63h-26.29v-72.51Z"/><path class="cls-6" d="M3607.67,1013.54V1043h24.8v19.5h-24.8v45.58c0,12.51,3.39,19.08,13.36,19.08a38.54,38.54,0,0,0,10.18-1.27l0.42,19.93c-3.82,1.48-10.6,2.54-18.87,2.54-9.54,0-17.6-3.18-22.47-8.48-5.51-5.94-8.06-15.26-8.06-28.83v-48.55h-14.84V1043h14.84v-23.32Z"/><path class="cls-6" d="M3710.28,1146.25l-1.7-11.45h-0.64c-6.36,8.06-17.17,13.78-30.53,13.78-20.78,0-32.44-15.05-32.44-30.74,0-26.08,23.11-39.22,61.27-39v-1.7c0-6.78-2.76-18-21-18-10.18,0-20.78,3.18-27.77,7.63l-5.09-17c7.63-4.66,21-9.12,37.31-9.12,33.07,0,42.61,21,42.61,43.46v37.31c0,9.33.42,18.44,1.48,24.8h-23.53Zm-3.39-50.46c-18.45-.42-36,3.6-36,19.29,0,10.18,6.57,14.84,14.84,14.84,10.39,0,18-6.78,20.35-14.2a18.76,18.76,0,0,0,.85-5.72v-14.2Z"/><path class="cls-6" d="M3788.51,1013.54V1043h24.8v19.5h-24.8v45.58c0,12.51,3.39,19.08,13.36,19.08a38.53,38.53,0,0,0,10.18-1.27l0.42,19.93c-3.82,1.48-10.6,2.54-18.87,2.54-9.54,0-17.6-3.18-22.47-8.48-5.51-5.94-8.06-15.26-8.06-28.83v-48.55h-14.84V1043h14.84v-23.32Z"/><path class="cls-6" d="M3860.8,1014.17c0,7.84-5.72,14-14.84,14-8.69,0-14.42-6.15-14.42-14,0-8.06,5.94-14.21,14.63-14.21C3855.07,1000,3860.59,1006.12,3860.8,1014.17ZM3833,1146.25V1043h26.29v103.25H3833Z"/><path class="cls-6" d="M3985.45,1093.67c0,37.95-26.71,54.91-53,54.91-29.26,0-51.73-20.14-51.73-53.21,0-33.92,22.26-54.7,53.43-54.7C3964.89,1040.67,3985.45,1062.3,3985.45,1093.67Zm-77.81,1.06c0,19.93,9.75,35,25.65,35,14.84,0,25.23-14.63,25.23-35.41,0-16.11-7.21-34.56-25-34.56C3915.07,1059.75,3907.65,1077.56,3907.65,1094.73Z"/><path class="cls-6" d="M4006.86,1073.75c0-11.87-.21-21.84-0.85-30.74h22.9l1.27,15.48h0.64c4.45-8.06,15.69-17.81,32.86-17.81,18,0,36.68,11.66,36.68,44.31v61.27h-26.08V1088c0-14.84-5.51-26.08-19.72-26.08-10.39,0-17.6,7.42-20.35,15.26a26.58,26.58,0,0,0-1.06,8.48v60.63h-26.29v-72.51Z"/><path class="cls-6" d="M899,1167.18c5.94,3.6,17.17,7.42,26.5,7.42,11.45,0,16.54-4.66,16.54-11.45,0-7-4.24-10.6-17-15.05-20.14-7-28.62-18-28.41-30.1,0-18.23,15.05-32.44,39-32.44,11.45,0,21.41,3,27.35,6.15L958,1110.15a46.37,46.37,0,0,0-21.84-5.94c-9.33,0-14.42,4.45-14.42,10.81,0,6.57,4.88,9.75,18,14.42,18.66,6.78,27.35,16.32,27.56,31.59,0,18.66-14.63,32.22-42,32.22-12.51,0-23.74-3-31.38-7.21Z"/><path class="cls-6" d="M1086.87,1138.56c0,37.95-26.71,54.91-53,54.91-29.26,0-51.73-20.14-51.73-53.21,0-33.92,22.26-54.7,53.43-54.7C1066.31,1085.55,1086.87,1107.18,1086.87,1138.56Zm-77.81,1.06c0,19.93,9.75,35,25.65,35,14.84,0,25.23-14.63,25.23-35.41,0-16.11-7.21-34.56-25-34.56C1016.48,1104.63,1009.06,1122.44,1009.06,1139.62Z"/><path class="cls-6" d="M1111.25,1191.13v-83.74h-14v-19.5h14v-4.45c0-13.36,3.6-26.71,12.51-35.19,7.63-7.21,18-10,26.92-10a50.58,50.58,0,0,1,16.75,2.54l-1.91,20.14a30.34,30.34,0,0,0-11-1.91c-12.93,0-17.38,10.81-17.38,23.53v5.3h22.68v19.5h-22.47v83.74h-26.08Z"/><path class="cls-6" d="M1208.55,1058.42v29.47h24.8v19.5h-24.8V1153c0,12.51,3.39,19.08,13.36,19.08a38.54,38.54,0,0,0,10.18-1.27l0.42,19.93c-3.82,1.48-10.6,2.54-18.87,2.54-9.54,0-17.6-3.18-22.47-8.48-5.51-5.94-8.06-15.26-8.06-28.83v-48.55h-14.84v-19.5h14.84v-23.32Z"/><path class="cls-6" d="M1270.24,1087.89l10.81,46.85c2.33,11,4.66,22.26,6.57,33.5H1288c2.12-11.24,5.51-22.68,8.48-33.29l13.36-47.07h21.2l12.93,45.79c3.18,12.08,5.94,23.32,8.27,34.56h0.42c1.7-11.24,4-22.47,6.78-34.56l11.45-45.79h25.65l-32.44,103.25H1340l-12.3-42a316.4,316.4,0,0,1-7.84-33.07h-0.42a272.33,272.33,0,0,1-7.84,33.07l-13.14,42h-24.38l-30.53-103.25h26.71Z"/><path class="cls-6" d="M1470.15,1191.13l-1.7-11.45h-0.64c-6.36,8.06-17.17,13.78-30.53,13.78-20.78,0-32.44-15.05-32.44-30.74,0-26.08,23.11-39.22,61.27-39V1122c0-6.78-2.76-18-21-18-10.18,0-20.78,3.18-27.77,7.63l-5.09-17c7.63-4.66,21-9.12,37.31-9.12,33.07,0,42.61,21,42.61,43.46v37.31c0,9.33.42,18.44,1.48,24.8h-23.53Zm-3.39-50.46c-18.44-.42-36,3.6-36,19.29,0,10.18,6.57,14.84,14.84,14.84,10.39,0,18-6.78,20.35-14.2a18.74,18.74,0,0,0,.85-5.72v-14.2Z"/><path class="cls-6" d="M1519.76,1121.17c0-14-.21-24-0.85-33.29h22.68l0.85,19.72h0.85c5.09-14.63,17.17-22,28.2-22a27.35,27.35,0,0,1,6.15.64v24.59a36.27,36.27,0,0,0-7.63-.85c-12.51,0-21,8.06-23.32,19.72a44.76,44.76,0,0,0-.85,8.06v53.43h-26.08v-70Z"/><path class="cls-6" d="M1611.77,1146.82c0.64,18.66,15.26,26.71,31.8,26.71,12.08,0,20.78-1.7,28.62-4.66l3.82,18c-8.9,3.6-21.2,6.36-36,6.36-33.5,0-53.21-20.56-53.21-52.15,0-28.62,17.38-55.55,50.46-55.55,33.5,0,44.52,27.56,44.52,50.25a64.18,64.18,0,0,1-.85,11h-69.11Zm45.37-18.23c0.21-9.54-4-25.23-21.41-25.23-16.11,0-22.9,14.63-24,25.23h45.37Z"/><path class="cls-6" d="M656.67,2614c5.94,3.6,17.17,7.42,26.5,7.42,11.45,0,16.54-4.66,16.54-11.45,0-7-4.24-10.6-17-15.05-20.14-7-28.62-18-28.41-30.1,0-18.23,15.05-32.44,39-32.44,11.45,0,21.41,3,27.35,6.15L715.61,2557a46.37,46.37,0,0,0-21.84-5.94c-9.33,0-14.42,4.45-14.42,10.81,0,6.57,4.88,9.75,18,14.42,18.66,6.78,27.35,16.32,27.56,31.59,0,18.66-14.63,32.22-42,32.22-12.51,0-23.74-3-31.38-7.21Z"/><path class="cls-6" d="M762.67,2534.75l18.66,55.33c2.12,6.36,4.24,14.2,5.72,20.14h0.64c1.7-5.94,3.6-13.57,5.51-20.35l16.11-55.12h28l-25.86,70.39c-14.2,38.59-23.74,55.76-36,66.36-10.18,9.12-20.78,12.51-27.35,13.36l-5.94-22a44.67,44.67,0,0,0,15.26-7.21c4.88-3.18,10.6-9.33,14.2-16.32a10.47,10.47,0,0,0,1.7-4.66,11.06,11.06,0,0,0-1.48-5.09L734,2534.75h28.62Z"/><path class="cls-6" d="M848.53,2614c5.94,3.6,17.17,7.42,26.5,7.42,11.45,0,16.54-4.66,16.54-11.45,0-7-4.24-10.6-17-15.05-20.14-7-28.62-18-28.41-30.1,0-18.23,15.05-32.44,39-32.44,11.45,0,21.41,3,27.35,6.15L907.46,2557a46.37,46.37,0,0,0-21.84-5.94c-9.33,0-14.42,4.45-14.42,10.81,0,6.57,4.88,9.75,18,14.42,18.66,6.78,27.35,16.32,27.56,31.59,0,18.66-14.63,32.22-42,32.22-12.51,0-23.75-3-31.38-7.21Z"/><path class="cls-6" d="M968.09,2505.28v29.47h24.8v19.5h-24.8v45.58c0,12.51,3.39,19.08,13.36,19.08a38.54,38.54,0,0,0,10.18-1.27l0.42,19.93c-3.82,1.48-10.6,2.54-18.87,2.54-9.54,0-17.6-3.18-22.47-8.48-5.51-5.94-8.06-15.26-8.06-28.83v-48.55H927.81v-19.5h14.84v-23.32Z"/><path class="cls-6" d="M1029.79,2593.69c0.64,18.66,15.26,26.71,31.8,26.71,12.08,0,20.78-1.7,28.62-4.66l3.82,18c-8.9,3.6-21.2,6.36-36,6.36-33.5,0-53.21-20.56-53.21-52.15,0-28.62,17.38-55.55,50.46-55.55,33.5,0,44.52,27.56,44.52,50.25a64.18,64.18,0,0,1-.85,11h-69.11Zm45.37-18.23c0.21-9.54-4-25.23-21.41-25.23-16.11,0-22.9,14.63-24,25.23h45.37Z"/><path class="cls-6" d="M1120.73,2565.49c0-11.87-.21-21.84-0.85-30.74h22.47l1.06,15.26h0.64c5.09-8.06,14.42-17.6,31.8-17.6,13.57,0,24.17,7.63,28.62,19.08h0.42a39.08,39.08,0,0,1,12.72-12.93c5.72-4,12.3-6.15,20.78-6.15,17.17,0,34.56,11.66,34.56,44.73V2638h-25.44v-57c0-17.17-5.94-27.35-18.44-27.35-8.9,0-15.48,6.36-18.23,13.78a37.32,37.32,0,0,0-1.27,8.69V2638h-25.44v-59.79c0-14.42-5.72-24.59-17.81-24.59-9.75,0-16.32,7.63-18.66,14.84a22.32,22.32,0,0,0-1.48,8.48V2638h-25.44v-72.51Z"/></svg>