<svg xmlns="http://www.w3.org/2000/svg" viewBox="0 0 266.04 50.03"><defs><style>.cls-1{isolation:isolate;}.cls-2{fill:#231f20;stroke:#000;stroke-width:0.25px;}.cls-10,.cls-2,.cls-3,.cls-7,.cls-8,.cls-9{stroke-miterlimit:10;}.cls-3{fill:#6e6558;stroke-width:0.5px;}.cls-10,.cls-3,.cls-7,.cls-8,.cls-9{stroke:#fff;}.cls-4{fill:#f8991d;}.cls-5{fill:#00aeef;}.cls-6{fill:#ed1c24;opacity:0.47;mix-blend-mode:multiply;}.cls-7{fill:#fbb616;}.cls-10,.cls-7,.cls-8,.cls-9{stroke-width:1.5px;}.cls-8{fill:#d74e29;}.cls-9{fill:#a9d15a;}.cls-10{fill:#1b9bba;}</style></defs><title>logo-2</title><g class="cls-1"><g id="Layer_2" data-name="Layer 2"><path class="cls-2" d="M156.29,463.33h-4.07l-12.35-18.09v18.09h-4.64V437.46l4-.49,12.46,18.16V437h4.6v26.37Z" transform="translate(-76.45 -424.35)"/><path class="cls-2" d="M178.3,455.09H163.55a5.7,5.7,0,0,0,1.84,3.34,5.39,5.39,0,0,0,3.71,1.29,20,20,0,0,0,6.19-1.29l1.22,3.76a16.37,16.37,0,0,1-7.41,1.6,9.8,9.8,0,0,1-7.45-3,10,10,0,0,1-2.74-7.14,10.15,10.15,0,0,1,2.66-7.14,9,9,0,0,1,7-3,8.68,8.68,0,0,1,7,3.21A12.77,12.77,0,0,1,178.3,455.09Zm-5.05-3.72q-1-3.8-4.64-3.8t-4.64,3.8h9.27Z" transform="translate(-76.45 -424.35)"/><path class="cls-2" d="M191.56,463.48a11.27,11.27,0,0,1-3,.3,7,7,0,0,1-5-1.77,6.65,6.65,0,0,1-1.84-5v-9.35h-2.62v-3.76h2.62v-5.51h4.48v5.51h5.36v3.76H186.2V457q0,2.93,2.62,2.93a19.83,19.83,0,0,0,2.74-.19v3.76Z" transform="translate(-76.45 -424.35)"/><path class="cls-2" d="M207.06,457.82a5.35,5.35,0,0,1-2.32,4.52,8,8,0,0,1-4.75,1.44,14.16,14.16,0,0,1-6.8-2.05l1.44-3.69a14.88,14.88,0,0,0,5.36,1.63q2.51,0,2.51-1.86,0-1-2.24-2.13a33,33,0,0,1-4.18-2.32,5.3,5.3,0,0,1-2.24-4.33,4.93,4.93,0,0,1,2.13-4.26,7.53,7.53,0,0,1,4.56-1.33,12.45,12.45,0,0,1,5.55,1.37l-1.18,3.72a9.51,9.51,0,0,0-4.14-1q-2.32,0-2.32,1.52,0,1,2.24,2.13a28.34,28.34,0,0,1,4.14,2.28A5.33,5.33,0,0,1,207.06,457.82Z" transform="translate(-76.45 -424.35)"/><path class="cls-2" d="M228.83,453.64a9.91,9.91,0,0,1-2.89,7.18,10.55,10.55,0,0,1-14.67,0,10.45,10.45,0,0,1,0-14.4,10.61,10.61,0,0,1,14.71,0A10,10,0,0,1,228.83,453.64Zm-4.6,0a6.35,6.35,0,0,0-1.56-4.35,5.56,5.56,0,0,0-8.13,0,6.8,6.8,0,0,0,0,8.66,5.56,5.56,0,0,0,8.13,0A6.29,6.29,0,0,0,224.24,453.64Z" transform="translate(-76.45 -424.35)"/><path class="cls-2" d="M248.4,455.47a8.1,8.1,0,0,1-2.32,5.85,9.09,9.09,0,0,1-12.46,0,8.17,8.17,0,0,1-2.28-5.85V443.91h4.45v11.21a5,5,0,0,0,1.06,3.31,3.67,3.67,0,0,0,3,1.29,3.73,3.73,0,0,0,3-1.29,5,5,0,0,0,1.08-3.31V443.91h4.45v11.55Z" transform="translate(-76.45 -424.35)"/><path class="cls-2" d="M262.77,443.42l-0.23,4.1a6,6,0,0,0-4.69,2,8,8,0,0,0-1.73,5.45h0v8.4H251.6V443.88h4.14a33.06,33.06,0,0,1,.34,3.5A7,7,0,0,1,262.77,443.42Z" transform="translate(-76.45 -424.35)"/><path class="cls-2" d="M280.78,462.42a16.91,16.91,0,0,1-6.8,1.37,10.12,10.12,0,0,1-7.64-3,10.53,10.53,0,0,1,0-14.29,10.23,10.23,0,0,1,7.68-3,16.76,16.76,0,0,1,6.69,1.48l-1,3.84a18.2,18.2,0,0,0-5.55-1.25,5.78,5.78,0,0,0-4.39,1.69,6.77,6.77,0,0,0,0,8.78,5.78,5.78,0,0,0,4.39,1.69,19.37,19.37,0,0,0,5.7-1.06Z" transform="translate(-76.45 -424.35)"/><path class="cls-2" d="M301.79,455.09H287a5.7,5.7,0,0,0,1.84,3.34,5.39,5.39,0,0,0,3.71,1.29,20,20,0,0,0,6.19-1.29l1.22,3.76a16.37,16.37,0,0,1-7.41,1.6,9.8,9.8,0,0,1-7.45-3,10,10,0,0,1-2.74-7.14,10.15,10.15,0,0,1,2.66-7.14,9,9,0,0,1,7-3,8.68,8.68,0,0,1,7,3.21A12.77,12.77,0,0,1,301.79,455.09Zm-5.05-3.72q-1-3.8-4.64-3.8t-4.64,3.8h9.27Z" transform="translate(-76.45 -424.35)"/><path class="cls-3" d="M319,463.33H304.26V437H308v23H319v3.38Z" transform="translate(-76.45 -424.35)"/><path class="cls-3" d="M342,463.33h-4.41l-6.73-10.68-6.73,10.68h-4.48l9-13.68L320.6,437H325l5.85,9.65,6.19-9.65h4.48l-8.44,12.65Z" transform="translate(-76.45 -424.35)"/><path class="cls-4" d="M96.3,456.16a5.92,5.92,0,1,0,10.44-.08A8.79,8.79,0,0,1,96.3,456.16Z" transform="translate(-76.45 -424.35)"/><path class="cls-5" d="M108.26,444.2a8.78,8.78,0,0,1-.08,10.44A5.92,5.92,0,1,0,108.26,444.2Z" transform="translate(-76.45 -424.35)"/><path class="cls-4" d="M106.64,442.58a5.92,5.92,0,1,0-10.44.08A8.78,8.78,0,0,1,106.64,442.58Z" transform="translate(-76.45 -424.35)"/><path class="cls-5" d="M94.76,444.09a5.92,5.92,0,1,0-.08,10.44A8.79,8.79,0,0,1,94.76,444.09Z" transform="translate(-76.45 -424.35)"/><path class="cls-4" d="M101.54,450.54l-4.19,4.19a6,6,0,0,0-1.06,1.43,8.79,8.79,0,0,0,10.44-.08,5.93,5.93,0,0,0-1-1.35Z" transform="translate(-76.45 -424.35)"/><path class="cls-5" d="M108.26,444.2a5.91,5.91,0,0,0-1.43,1.05l-4.19,4.18,4.19,4.19a5.85,5.85,0,0,0,1.36,1A8.78,8.78,0,0,0,108.26,444.2Z" transform="translate(-76.45 -424.35)"/><path class="cls-4" d="M101.4,448.19l4.18-4.19a5.94,5.94,0,0,0,1.06-1.43,8.78,8.78,0,0,0-10.44.08,6,6,0,0,0,1,1.36Z" transform="translate(-76.45 -424.35)"/><path class="cls-5" d="M100.3,449.29l-4.19-4.19a5.92,5.92,0,0,0-1.36-1,8.79,8.79,0,0,0-.08,10.44,5.84,5.84,0,0,0,1.43-1.06Z" transform="translate(-76.45 -424.35)"/><path class="cls-6" d="M101.54,450.54l-4.19,4.19a6,6,0,0,0-1.06,1.43,8.79,8.79,0,0,0,10.44-.08,5.93,5.93,0,0,0-1-1.35Z" transform="translate(-76.45 -424.35)"/><path class="cls-6" d="M108.26,444.2a5.91,5.91,0,0,0-1.43,1.05l-4.19,4.18,4.19,4.19a5.85,5.85,0,0,0,1.36,1A8.78,8.78,0,0,0,108.26,444.2Z" transform="translate(-76.45 -424.35)"/><path class="cls-6" d="M101.4,448.19l4.18-4.19a5.94,5.94,0,0,0,1.06-1.43,8.78,8.78,0,0,0-10.44.08,6,6,0,0,0,1,1.36Z" transform="translate(-76.45 -424.35)"/><path class="cls-6" d="M100.3,449.29l-4.19-4.19a5.92,5.92,0,0,0-1.36-1,8.79,8.79,0,0,0-.08,10.44,5.84,5.84,0,0,0,1.43-1.06Z" transform="translate(-76.45 -424.35)"/><path class="cls-7" d="M94.86,442.76l5.61-17.62a24.24,24.24,0,0,0-23.23,23.23Z" transform="translate(-76.45 -424.35)"/><path class="cls-8" d="M107.27,442.76l18.42,5.65a24.24,24.24,0,0,0-23.35-23.27Z" transform="translate(-76.45 -424.35)"/><path class="cls-9" d="M94.86,456l-17.62-5.61a24.24,24.24,0,0,0,23.23,23.23Z" transform="translate(-76.45 -424.35)"/><path class="cls-10" d="M108.07,455.17l-5.65,18.42a24.24,24.24,0,0,0,23.27-23.35Z" transform="translate(-76.45 -424.35)"/></g></g></svg>