<svg xmlns="http://www.w3.org/2000/svg" viewBox="0 0 396.85 50.03"><defs><style>.cls-1{isolation:isolate;}.cls-2{fill:#231f20;stroke:#000;stroke-width:0.25px;}.cls-10,.cls-2,.cls-3,.cls-7,.cls-8,.cls-9{stroke-miterlimit:10;}.cls-3{fill:#6e6558;stroke-width:0.5px;}.cls-10,.cls-3,.cls-7,.cls-8,.cls-9{stroke:#fff;}.cls-4{fill:#f8991d;}.cls-5{fill:#00aeef;}.cls-6{fill:#ed1c24;opacity:0.47;mix-blend-mode:multiply;}.cls-7{fill:#fbb616;}.cls-10,.cls-7,.cls-8,.cls-9{stroke-width:1.5px;}.cls-8{fill:#d74e29;}.cls-9{fill:#a9d15a;}.cls-10{fill:#1b9bba;}</style></defs><title>logo-3</title><g class="cls-1"><g id="Layer_2" data-name="Layer 2"><path class="cls-2" d="M156.29,388.67h-4.07l-12.35-18.09v18.09h-4.64V362.79l4-.49,12.46,18.16V362.29h4.6v26.37Z" transform="translate(-76.45 -349.68)"/><path class="cls-2" d="M178.3,380.42H163.55a5.7,5.7,0,0,0,1.84,3.34,5.39,5.39,0,0,0,3.71,1.29,20,20,0,0,0,6.19-1.29l1.22,3.76a16.36,16.36,0,0,1-7.41,1.6,9.8,9.8,0,0,1-7.45-3,10,10,0,0,1-2.74-7.14,10.15,10.15,0,0,1,2.66-7.14,9,9,0,0,1,7-3,8.68,8.68,0,0,1,7,3.21A12.77,12.77,0,0,1,178.3,380.42Zm-5.05-3.72q-1-3.8-4.64-3.8T164,376.7h9.27Z" transform="translate(-76.45 -349.68)"/><path class="cls-2" d="M191.56,388.82a11.29,11.29,0,0,1-3,.3,7,7,0,0,1-5-1.77,6.65,6.65,0,0,1-1.84-5V373h-2.62v-3.76h2.62V363.7h4.48v5.51h5.36V373H186.2v9.35q0,2.93,2.62,2.93a19.83,19.83,0,0,0,2.74-.19v3.76Z" transform="translate(-76.45 -349.68)"/><path class="cls-2" d="M207.06,383.16a5.35,5.35,0,0,1-2.32,4.52,8,8,0,0,1-4.75,1.44,14.15,14.15,0,0,1-6.8-2.05l1.44-3.69A14.89,14.89,0,0,0,200,385q2.51,0,2.51-1.86,0-1-2.24-2.13a32.89,32.89,0,0,1-4.18-2.32,5.3,5.3,0,0,1-2.24-4.33,4.93,4.93,0,0,1,2.13-4.26,7.53,7.53,0,0,1,4.56-1.33,12.45,12.45,0,0,1,5.55,1.37l-1.18,3.72a9.51,9.51,0,0,0-4.14-1q-2.32,0-2.32,1.52,0,1,2.24,2.13a28.47,28.47,0,0,1,4.14,2.28A5.34,5.34,0,0,1,207.06,383.16Z" transform="translate(-76.45 -349.68)"/><path class="cls-2" d="M228.83,379a9.91,9.91,0,0,1-2.89,7.18,10.56,10.56,0,0,1-14.67,0,10.45,10.45,0,0,1,0-14.4,10.6,10.6,0,0,1,14.71,0A10,10,0,0,1,228.83,379Zm-4.6,0a6.34,6.34,0,0,0-1.56-4.35,5.56,5.56,0,0,0-8.13,0,6.8,6.8,0,0,0,0,8.66,5.56,5.56,0,0,0,8.13,0A6.29,6.29,0,0,0,224.24,379Z" transform="translate(-76.45 -349.68)"/><path class="cls-2" d="M248.4,380.8a8.1,8.1,0,0,1-2.32,5.85,9.1,9.1,0,0,1-12.46,0,8.17,8.17,0,0,1-2.28-5.85V369.25h4.45v11.21a5,5,0,0,0,1.06,3.31,3.67,3.67,0,0,0,3,1.29,3.73,3.73,0,0,0,3-1.29,5,5,0,0,0,1.08-3.31V369.25h4.45V380.8Z" transform="translate(-76.45 -349.68)"/><path class="cls-2" d="M262.77,368.75l-0.23,4.1a5.94,5.94,0,0,0-4.69,2,8,8,0,0,0-1.73,5.45h0v8.4H251.6V369.21h4.14a33.1,33.1,0,0,1,.34,3.5A7,7,0,0,1,262.77,368.75Z" transform="translate(-76.45 -349.68)"/><path class="cls-2" d="M280.78,387.75a16.91,16.91,0,0,1-6.8,1.37,10.12,10.12,0,0,1-7.64-3,10.53,10.53,0,0,1,0-14.29,10.24,10.24,0,0,1,7.68-3,16.76,16.76,0,0,1,6.69,1.48l-1,3.84a18.2,18.2,0,0,0-5.55-1.25,5.78,5.78,0,0,0-4.39,1.69,6.77,6.77,0,0,0,0,8.78,5.78,5.78,0,0,0,4.39,1.69,19.36,19.36,0,0,0,5.7-1.06Z" transform="translate(-76.45 -349.68)"/><path class="cls-2" d="M301.79,380.42H287a5.7,5.7,0,0,0,1.84,3.34,5.39,5.39,0,0,0,3.71,1.29,20,20,0,0,0,6.19-1.29l1.22,3.76a16.37,16.37,0,0,1-7.41,1.6,9.8,9.8,0,0,1-7.45-3,10,10,0,0,1-2.74-7.14,10.15,10.15,0,0,1,2.66-7.14,9,9,0,0,1,7-3,8.68,8.68,0,0,1,7,3.21A12.77,12.77,0,0,1,301.79,380.42Zm-5.05-3.72q-1-3.8-4.64-3.8t-4.64,3.8h9.27Z" transform="translate(-76.45 -349.68)"/><path class="cls-3" d="M308,388.67h-3.76v-26.3H308v26.3Z" transform="translate(-76.45 -349.68)"/><path class="cls-3" d="M327.86,388.67h-3.65V376.81q0-4.33-3.65-4.33a4.76,4.76,0,0,0-3.91,2A8.8,8.8,0,0,0,315,380v8.66h-3.61V369.59h3.19A23.78,23.78,0,0,1,315,373q2.32-3.84,6.23-3.84a6.31,6.31,0,0,1,4.83,1.9,7.52,7.52,0,0,1,1.79,5.36v12.27Z" transform="translate(-76.45 -349.68)"/><path class="cls-3" d="M341.46,388.86a11.07,11.07,0,0,1-2.51.27,6.59,6.59,0,0,1-4.79-1.69,6.48,6.48,0,0,1-1.75-4.88v-9.84h-2.66v-3.08h2.66v-5.81H336v5.81h5.43v3.08H336v9.84Q336,386,339,386a21.66,21.66,0,0,0,2.51-.19v3Z" transform="translate(-76.45 -349.68)"/><path class="cls-3" d="M362.36,380.15h-15a6.38,6.38,0,0,0,1.86,4,6.25,6.25,0,0,0,4.45,1.63,17,17,0,0,0,5.81-1.14l1,3.08a17.82,17.82,0,0,1-6.8,1.37,9.53,9.53,0,0,1-7.3-3,9.75,9.75,0,0,1-2.7-7,9.94,9.94,0,0,1,2.58-7,8.73,8.73,0,0,1,6.8-3,8.41,8.41,0,0,1,6.78,3.06A11.92,11.92,0,0,1,362.36,380.15Zm-4-3a5.59,5.59,0,0,0-1.67-3.15,5.42,5.42,0,0,0-7.45,0,5.58,5.58,0,0,0-1.67,3.15h10.79Z" transform="translate(-76.45 -349.68)"/><path class="cls-3" d="M375.28,372.48a6.23,6.23,0,0,0-4.86,2.07,7.91,7.91,0,0,0-1.86,5.49v8.63h-3.61V369.59h3.27q0.23,1.6.3,3a7.44,7.44,0,0,1,6.76-3.5v3.34Z" transform="translate(-76.45 -349.68)"/><path class="cls-3" d="M394.89,388.7h-3.15a19.52,19.52,0,0,1-.42-2.58,8.38,8.38,0,0,1-12.79.08,11.22,11.22,0,0,1,0-14.1,8.36,8.36,0,0,1,12.71,0v-2.47h3.65V388.7Zm-3.42-9.54a7.43,7.43,0,0,0-1.44-4.75,5.25,5.25,0,0,0-4.33-1.94,5.38,5.38,0,0,0-4.31,1.9,7.85,7.85,0,0,0,0,9.54,5.37,5.37,0,0,0,4.31,1.9,5.25,5.25,0,0,0,4.33-1.94A7.27,7.27,0,0,0,391.47,379.17Z" transform="translate(-76.45 -349.68)"/><path class="cls-3" d="M414.08,387.72a18.59,18.59,0,0,1-6.61,1.41,9.79,9.79,0,0,1-7.45-3,9.62,9.62,0,0,1-2.7-7,9.69,9.69,0,0,1,10.15-10,18.61,18.61,0,0,1,6.61,1.44l-0.8,3.19q-2.28-.8-2.81-1a11.58,11.58,0,0,0-2.89-.34,6.25,6.25,0,0,0-4.79,1.86,7.46,7.46,0,0,0,0,9.6,6.28,6.28,0,0,0,4.79,1.84,11.58,11.58,0,0,0,2.89-.34q0.53-.15,2.81-1Z" transform="translate(-76.45 -349.68)"/><path class="cls-3" d="M426.7,388.86a11.07,11.07,0,0,1-2.51.27,6.59,6.59,0,0,1-4.79-1.69,6.48,6.48,0,0,1-1.75-4.88v-9.84H415v-3.08h2.66v-5.81h3.61v5.81h5.43v3.08h-5.43v9.84q0,3.46,2.93,3.46a21.66,21.66,0,0,0,2.51-.19v3Z" transform="translate(-76.45 -349.68)"/><path class="cls-3" d="M434.34,363a2.29,2.29,0,0,1-.74,1.73,2.6,2.6,0,0,1-3.55,0,2.32,2.32,0,0,1-.72-1.73,2.23,2.23,0,0,1,.74-1.71,2.6,2.6,0,0,1,3.51,0A2.2,2.2,0,0,1,434.34,363Zm-0.68,25.65H430V369.59h3.61v19.08Z" transform="translate(-76.45 -349.68)"/><path class="cls-3" d="M454.55,369.63l-7.3,19H443l-7.26-19h4l5.43,14.21,5.47-14.21h4Z" transform="translate(-76.45 -349.68)"/><path class="cls-3" d="M473.06,380.15H458a6.38,6.38,0,0,0,1.86,4,6.25,6.25,0,0,0,4.45,1.63,17,17,0,0,0,5.81-1.14l1,3.08a17.82,17.82,0,0,1-6.8,1.37,9.53,9.53,0,0,1-7.3-3,9.75,9.75,0,0,1-2.7-7,9.94,9.94,0,0,1,2.58-7,8.73,8.73,0,0,1,6.8-3,8.41,8.41,0,0,1,6.78,3.06A11.92,11.92,0,0,1,473.06,380.15Zm-4-3a5.59,5.59,0,0,0-1.67-3.15,5.42,5.42,0,0,0-7.45,0,5.58,5.58,0,0,0-1.67,3.15H469.1Z" transform="translate(-76.45 -349.68)"/><path class="cls-4" d="M96.3,381.49a5.92,5.92,0,1,0,10.44-.08A8.79,8.79,0,0,1,96.3,381.49Z" transform="translate(-76.45 -349.68)"/><path class="cls-5" d="M108.26,369.53a8.78,8.78,0,0,1-.08,10.44A5.92,5.92,0,1,0,108.26,369.53Z" transform="translate(-76.45 -349.68)"/><path class="cls-4" d="M106.64,367.91A5.92,5.92,0,1,0,96.2,368,8.78,8.78,0,0,1,106.64,367.91Z" transform="translate(-76.45 -349.68)"/><path class="cls-5" d="M94.76,369.43a5.92,5.92,0,1,0-.08,10.44A8.79,8.79,0,0,1,94.76,369.43Z" transform="translate(-76.45 -349.68)"/><path class="cls-4" d="M101.54,375.87l-4.19,4.19a6,6,0,0,0-1.06,1.43,8.79,8.79,0,0,0,10.44-.08,5.93,5.93,0,0,0-1-1.35Z" transform="translate(-76.45 -349.68)"/><path class="cls-5" d="M108.26,369.53a5.91,5.91,0,0,0-1.43,1.05l-4.19,4.18,4.19,4.19a5.85,5.85,0,0,0,1.36,1A8.78,8.78,0,0,0,108.26,369.53Z" transform="translate(-76.45 -349.68)"/><path class="cls-4" d="M101.4,373.53l4.18-4.19a5.94,5.94,0,0,0,1.06-1.43A8.78,8.78,0,0,0,96.2,368a6,6,0,0,0,1,1.36Z" transform="translate(-76.45 -349.68)"/><path class="cls-5" d="M100.3,374.63l-4.19-4.19a5.92,5.92,0,0,0-1.36-1,8.79,8.79,0,0,0-.08,10.44,5.84,5.84,0,0,0,1.43-1.06Z" transform="translate(-76.45 -349.68)"/><path class="cls-6" d="M101.54,375.87l-4.19,4.19a6,6,0,0,0-1.06,1.43,8.79,8.79,0,0,0,10.44-.08,5.93,5.93,0,0,0-1-1.35Z" transform="translate(-76.45 -349.68)"/><path class="cls-6" d="M108.26,369.53a5.91,5.91,0,0,0-1.43,1.05l-4.19,4.18,4.19,4.19a5.85,5.85,0,0,0,1.36,1A8.78,8.78,0,0,0,108.26,369.53Z" transform="translate(-76.45 -349.68)"/><path class="cls-6" d="M101.4,373.53l4.18-4.19a5.94,5.94,0,0,0,1.06-1.43A8.78,8.78,0,0,0,96.2,368a6,6,0,0,0,1,1.36Z" transform="translate(-76.45 -349.68)"/><path class="cls-6" d="M100.3,374.63l-4.19-4.19a5.92,5.92,0,0,0-1.36-1,8.79,8.79,0,0,0-.08,10.44,5.84,5.84,0,0,0,1.43-1.06Z" transform="translate(-76.45 -349.68)"/><path class="cls-7" d="M94.86,368.1l5.61-17.62A24.24,24.24,0,0,0,77.24,373.7Z" transform="translate(-76.45 -349.68)"/><path class="cls-8" d="M107.27,368.1l18.42,5.65a24.24,24.24,0,0,0-23.35-23.27Z" transform="translate(-76.45 -349.68)"/><path class="cls-9" d="M94.86,381.3L77.24,375.7a24.24,24.24,0,0,0,23.23,23.23Z" transform="translate(-76.45 -349.68)"/><path class="cls-10" d="M108.07,380.5l-5.65,18.42a24.24,24.24,0,0,0,23.27-23.35Z" transform="translate(-76.45 -349.68)"/></g></g></svg>