<svg xmlns="http://www.w3.org/2000/svg" viewBox="0 0 264.74 50.03"><defs><style>.cls-1{isolation:isolate;}.cls-2{fill:#f8991d;}.cls-3{fill:#00aeef;}.cls-4{fill:#ed1c24;opacity:0.47;mix-blend-mode:multiply;}.cls-5{fill:#fbb616;}.cls-5,.cls-6,.cls-7,.cls-8{stroke:#fff;stroke-miterlimit:10;stroke-width:1.5px;}.cls-6{fill:#d74e29;}.cls-7{fill:#a9d15a;}.cls-8{fill:#1b9bba;}.cls-9{fill:#231f20;}.cls-10{fill:#6e6558;}</style></defs><title>logo</title><g class="cls-1"><g id="Layer_1" data-name="Layer 1"><path class="cls-2" d="M19.85,31.81a5.92,5.92,0,1,0,10.44-.08A8.79,8.79,0,0,1,19.85,31.81Z"/><path class="cls-3" d="M31.81,19.85a8.78,8.78,0,0,1-.08,10.44A5.92,5.92,0,1,0,31.81,19.85Z"/><path class="cls-2" d="M30.19,18.23a5.92,5.92,0,1,0-10.44.08A8.78,8.78,0,0,1,30.19,18.23Z"/><path class="cls-3" d="M18.31,19.74a5.92,5.92,0,1,0-.08,10.44A8.79,8.79,0,0,1,18.31,19.74Z"/><path class="cls-2" d="M25.09,26.19l-4.19,4.19a6,6,0,0,0-1.06,1.43,8.79,8.79,0,0,0,10.44-.08,5.93,5.93,0,0,0-1-1.35Z"/><path class="cls-3" d="M31.81,19.85a5.91,5.91,0,0,0-1.43,1.05l-4.19,4.18,4.19,4.19a5.85,5.85,0,0,0,1.36,1A8.78,8.78,0,0,0,31.81,19.85Z"/><path class="cls-2" d="M24.95,23.84l4.18-4.19a5.94,5.94,0,0,0,1.06-1.43,8.78,8.78,0,0,0-10.44.08,6,6,0,0,0,1,1.36Z"/><path class="cls-3" d="M23.85,24.94l-4.19-4.19a5.91,5.91,0,0,0-1.36-1,8.79,8.79,0,0,0-.08,10.44,5.84,5.84,0,0,0,1.43-1.06Z"/><path class="cls-4" d="M25.09,26.19l-4.19,4.19a6,6,0,0,0-1.06,1.43,8.79,8.79,0,0,0,10.44-.08,5.93,5.93,0,0,0-1-1.35Z"/><path class="cls-4" d="M31.81,19.85a5.91,5.91,0,0,0-1.43,1.05l-4.19,4.18,4.19,4.19a5.85,5.85,0,0,0,1.36,1A8.78,8.78,0,0,0,31.81,19.85Z"/><path class="cls-4" d="M24.95,23.84l4.18-4.19a5.94,5.94,0,0,0,1.06-1.43,8.78,8.78,0,0,0-10.44.08,6,6,0,0,0,1,1.36Z"/><path class="cls-4" d="M23.85,24.94l-4.19-4.19a5.91,5.91,0,0,0-1.36-1,8.79,8.79,0,0,0-.08,10.44,5.84,5.84,0,0,0,1.43-1.06Z"/><path class="cls-5" d="M18.41,18.41L24,0.79A24.24,24.24,0,0,0,.79,24Z"/><path class="cls-6" d="M30.82,18.41l18.42,5.65A24.24,24.24,0,0,0,25.89.79Z"/><path class="cls-7" d="M18.41,31.62L0.79,26A24.24,24.24,0,0,0,24,49.24Z"/><path class="cls-8" d="M31.62,30.82L26,49.24A24.24,24.24,0,0,0,49.25,25.89Z"/><path class="cls-9" d="M55.06,36.32V10.71h6.76l5.32,9.38a80.83,80.83,0,0,1,4.18,8.78h0.08a105.69,105.69,0,0,1-.46-10.71V10.71h5.32V36.32H70.18l-5.47-9.88a86.72,86.72,0,0,1-4.45-9H60.11c0.19,3.42.27,7,.27,11.21v7.71H55.06Z"/><path class="cls-9" d="M85.61,28.87c0.15,2.39,2.55,3.53,5.24,3.53a15.32,15.32,0,0,0,5.13-.8l0.76,3.91A17.57,17.57,0,0,1,90,36.7c-6.31,0-9.92-3.65-9.92-9.46,0-4.71,2.93-9.92,9.38-9.92,6,0,8.28,4.67,8.28,9.27a13.75,13.75,0,0,1-.19,2.28h-12Zm6.8-4c0-1.41-.61-3.76-3.27-3.76-2.43,0-3.42,2.24-3.57,3.76h6.84Z"/><path class="cls-9" d="M107.88,12.72v5H112V22h-4.14v6.73c0,2.24.57,3.27,2.28,3.27a7.09,7.09,0,0,0,1.71-.15l0,4.37a12.17,12.17,0,0,1-3.72.49,6.17,6.17,0,0,1-4.37-1.6c-1.06-1.1-1.6-2.89-1.6-5.51V22H99.74V17.74h2.47V14.28Z"/><path class="cls-9" d="M115.51,31.3a11.28,11.28,0,0,0,5,1.37c1.75,0,2.47-.57,2.47-1.52s-0.57-1.44-2.7-2.17c-3.88-1.29-5.36-3.38-5.32-5.59,0-3.5,3-6.12,7.56-6.12a12.21,12.21,0,0,1,5.21,1.1l-1,4a9.25,9.25,0,0,0-4-1.06c-1.41,0-2.2.57-2.2,1.48s0.72,1.37,3,2.16c3.53,1.22,5,3,5,5.74,0,3.5-2.7,6-8,6a13.12,13.12,0,0,1-6-1.33Z"/><path class="cls-9" d="M150.58,26.82c0,6.8-4.82,9.92-9.8,9.92-5.43,0-9.61-3.57-9.61-9.57s4-9.88,10-9.88C146.79,17.28,150.58,21.2,150.58,26.82ZM137.13,27c0,3.19,1.33,5.58,3.8,5.58,2.28,0,3.69-2.24,3.69-5.62,0-2.74-1.06-5.55-3.69-5.55S137.13,24.27,137.13,27Z"/><path class="cls-9" d="M171.86,30.35c0,2.43.08,4.41,0.15,6h-5l-0.27-2.62h-0.11a6.63,6.63,0,0,1-5.81,3c-3.8,0-6.54-2.36-6.54-8.09V17.74H160v10c0,2.7.87,4.33,2.93,4.33a3.2,3.2,0,0,0,3.12-3.27V17.74h5.77V30.35Z"/><path class="cls-9" d="M176.69,23.86c0-2.74,0-4.52-.15-6.12h4.94l0.23,3.42h0.15a5.41,5.41,0,0,1,5-3.87,5.81,5.81,0,0,1,1.22.11v5.43a8.61,8.61,0,0,0-1.56-.15,3.71,3.71,0,0,0-4,2.93,6.8,6.8,0,0,0-.11,1.29v9.42h-5.78V23.86Z"/><path class="cls-9" d="M205,35.82a13.21,13.21,0,0,1-5.17.87c-6,0-9.84-3.69-9.84-9.5,0-5.43,3.72-9.88,10.64-9.88A13.39,13.39,0,0,1,205,18l-0.91,4.29a7.91,7.91,0,0,0-3.23-.57,4.81,4.81,0,0,0-5,5.21A4.85,4.85,0,0,0,201,32.18a8.14,8.14,0,0,0,3.31-.61Z"/><path class="cls-9" d="M212.37,28.87c0.15,2.39,2.55,3.53,5.24,3.53a15.33,15.33,0,0,0,5.13-.8l0.76,3.91a17.57,17.57,0,0,1-6.73,1.18c-6.31,0-9.92-3.65-9.92-9.46,0-4.71,2.93-9.92,9.38-9.92,6,0,8.28,4.67,8.28,9.27a13.7,13.7,0,0,1-.19,2.28h-12Zm6.8-4c0-1.41-.61-3.76-3.27-3.76-2.43,0-3.42,2.24-3.57,3.76h6.84Z"/><path class="cls-10" d="M228.71,10.71h3.34V33.54H243v2.77H228.71V10.71Z"/><path class="cls-10" d="M260.9,36.32l-3.31-5.66c-1.33-2.17-2.13-3.57-2.92-5.05h-0.08c-0.72,1.48-1.48,2.85-2.77,5.09l-3.08,5.62h-3.8l7.83-13-7.52-12.65h3.84l3.38,6c1,1.67,1.67,3,2.36,4.33h0.11c0.72-1.52,1.37-2.7,2.32-4.33l3.46-6h3.84l-7.79,12.46,8,13.15H260.9Z"/></g></g></svg>