<svg id="_2" data-name="2" xmlns="http://www.w3.org/2000/svg" viewBox="0 0 697.01 394.46"><defs><style>.cls-1{fill:#d1d3d4;}.cls-15,.cls-2{fill:#4d4944;}.cls-13,.cls-14,.cls-17,.cls-3{fill:#fff;}.cls-16,.cls-4{fill:#818181;}.cls-5{fill:#f16e67;}.cls-6{fill:#62c3ed;}.cls-7,.cls-8{fill:#a8adaf;}.cls-14,.cls-15,.cls-16,.cls-17,.cls-8{fill-rule:evenodd;}.cls-9{fill:#f6b84e;}.cls-10{fill:#c1d93b;}.cls-11{fill:#e6e7e8;}.cls-12{fill:#bcbec0;}.cls-13,.cls-14{opacity:0.2;}.cls-18{fill:#b8bdbf;}</style></defs><title>shutterstock_226876885 [Converted]</title><polygon class="cls-1" points="484.01 314.27 325.54 314.27 358.61 296.89 450.94 296.89 484.01 314.27"/><path class="cls-2" d="M644.67,354.59v-239c0-7-6.21-12.81-13.8-12.81H281.66c-7.59,0-13.79,5.77-13.8,12.82v239a11.25,11.25,0,0,0,11.25,11.25H633.43A11.26,11.26,0,0,0,644.67,354.59Z" transform="translate(-51.5 -102.77)"/><path class="cls-3" d="M267.87,354.59a11.25,11.25,0,0,0,11.25,11.25H633.43a11.26,11.26,0,0,0,11.25-11.25V343.17H267.87v11.42Z" transform="translate(-51.5 -102.77)"/><path class="cls-4" d="M630.87,104.2H281.66c-6.82,0-12.36,5.11-12.36,11.38V117c0-6.28,5.55-11.38,12.36-11.38H630.88c6.81,0,12.36,5.11,12.37,11.38v-1.43C643.24,109.31,637.69,104.2,630.87,104.2Z" transform="translate(-51.5 -102.77)"/><rect class="cls-3" x="237.84" y="21.47" width="333.87" height="197.91"/><g id="desktop_scr" data-name="desktop scr"><rect class="cls-4" x="254.47" y="35.21" width="94.79" height="19.12"/><rect class="cls-5" x="254.47" y="61.09" width="300.6" height="56.25"/><rect class="cls-6" x="254.47" y="124.08" width="94.78" height="56.25"/><rect class="cls-4" x="254.47" y="187.08" width="94.79" height="5.62"/><rect class="cls-4" x="357.38" y="187.08" width="94.78" height="5.62"/><rect class="cls-4" x="460.29" y="187.08" width="94.79" height="5.62"/><rect class="cls-7" x="254.47" y="198.33" width="71.09" height="4.5"/><rect class="cls-7" x="357.38" y="198.33" width="94.78" height="4.5"/><polygon class="cls-8" points="534.15 202.83 460.29 202.83 460.29 198.33 534.15 198.33 534.15 202.83"/><rect class="cls-7" x="254.47" y="207.33" width="94.79" height="4.5"/><rect class="cls-7" x="357.38" y="207.33" width="81.31" height="4.5"/><rect class="cls-7" x="460.29" y="207.33" width="94.79" height="4.5"/><rect class="cls-9" x="357.38" y="124.08" width="94.78" height="56.25"/><rect class="cls-10" x="460.29" y="124.08" width="94.78" height="56.25"/></g><rect class="cls-11" x="358.61" y="263.07" width="92.33" height="33.82"/><rect class="cls-12" x="358.61" y="263.07" width="92.33" height="5.22"/><rect class="cls-3" x="325.54" y="314.26" width="158.46" height="3.3"/><path class="cls-13" d="M456.27,420.33V102.77H281.66c-7.59,0-13.79,5.77-13.8,12.82v239a11.25,11.25,0,0,0,11.25,11.25h131v33.82h0l-33,17.37h0v3.28h79.23Z" transform="translate(-51.5 -102.77)"/><g id="laptop"><path class="cls-1" d="M51.5,472.41v13.16c0,6.3,6.11,11.44,13.59,11.44h66.36c0,0.3,15.13.3,15.08,0H322.3c-0.05.3,15.13,0.3,15.07,0h66.27c7.47,0,13.58-5.14,13.58-11.44V472.41H51.5Z" transform="translate(-51.5 -102.77)"/><path class="cls-2" d="M376.91,268.27H91.82a11.48,11.48,0,0,0-11.44,11.45V473.5h308V279.72A11.49,11.49,0,0,0,376.91,268.27Z" transform="translate(-51.5 -102.77)"/><circle class="cls-4" cx="182.87" cy="174.62" r="4.4"/><path class="cls-4" d="M376.91,269.82H91.82a9.91,9.91,0,0,0-9.9,9.9v1.55a9.9,9.9,0,0,1,9.9-9.89H376.91a9.91,9.91,0,0,1,9.9,9.89v-1.55A9.91,9.91,0,0,0,376.91,269.82Z" transform="translate(-51.5 -102.77)"/><rect class="cls-3" x="44.75" y="181.94" width="276.22" height="176.42"/><rect class="cls-3" y="369.64" width="365.73" height="13.16"/><rect class="cls-12" x="101.54" y="374.07" width="162.65" height="4.51"/></g><g id="laptop_scr" data-name="laptop scr"><rect class="cls-4" x="55.22" y="189.65" width="80.5" height="19.55"/><rect class="cls-5" x="55.22" y="216.1" width="255.31" height="57.5"/><rect class="cls-6" x="55.22" y="280.5" width="80.5" height="57.5"/><rect class="cls-4" x="55.22" y="344.9" width="80.5" height="5.75"/><rect class="cls-4" x="142.62" y="344.9" width="80.5" height="5.75"/><rect class="cls-4" x="230.02" y="344.9" width="80.5" height="5.75"/><rect class="cls-9" x="142.62" y="280.5" width="80.5" height="57.5"/><rect class="cls-10" x="230.02" y="280.5" width="80.5" height="57.5"/></g><path class="cls-14" d="M234.36,268.27H91.82a11.48,11.48,0,0,0-11.44,11.45V472.41H51.5v13.16c0,6.3,6.11,11.44,13.59,11.44h66.36c0,0.3,15.13.3,15.08,0h87.84V268.27Z" transform="translate(-51.5 -102.77)"/><g id="tablet"><path class="cls-15" d="M748.5,477.18V284.51a20,20,0,0,0-19.91-20h-139a20,20,0,0,0-19.91,20V477.18a20,20,0,0,0,19.91,20h139A20,20,0,0,0,748.5,477.18Zm-160,.92V283.59H729.75V478.1H588.47Z" transform="translate(-51.5 -102.77)"/><path class="cls-16" d="M728.6,266.19h-139a18.28,18.28,0,0,0-18.19,18.32v1.73a18.28,18.28,0,0,1,18.19-18.32h139a18.27,18.27,0,0,1,18.18,18.32v-1.73A18.27,18.27,0,0,0,728.6,266.19Z" transform="translate(-51.5 -102.77)"/><polygon class="cls-17" points="678.26 180.82 536.97 180.82 536.97 375.33 678.26 375.33 678.26 180.82 678.26 180.82"/></g><g id="tablet_scr" data-name="tablet scr"><rect class="cls-4" x="541.02" y="185.29" width="42.07" height="10.22"/><rect class="cls-5" x="541.02" y="199.11" width="133.4" height="30.04"/><rect class="cls-6" x="541.02" y="232.77" width="42.07" height="30.05"/><rect class="cls-4" x="541.02" y="266.42" width="42.07" height="3.01"/><rect class="cls-4" x="586.69" y="266.42" width="42.06" height="3.01"/><rect class="cls-4" x="632.36" y="266.42" width="42.06" height="3.01"/><rect class="cls-7" x="541.02" y="272.43" width="31.55" height="2.4"/><rect class="cls-7" x="586.69" y="272.43" width="42.06" height="2.4"/><rect class="cls-7" x="632.36" y="272.43" width="32.78" height="2.4"/><rect class="cls-7" x="541.02" y="277.23" width="42.07" height="2.4"/><rect class="cls-7" x="586.69" y="277.23" width="36.08" height="2.4"/><rect class="cls-7" x="632.36" y="277.23" width="42.06" height="2.4"/><rect class="cls-7" x="541.02" y="282.04" width="38.7" height="2.4"/><rect class="cls-7" x="586.69" y="282.04" width="42.06" height="2.4"/><rect class="cls-7" x="632.36" y="282.04" width="32.78" height="2.4"/><rect class="cls-7" x="541.02" y="286.85" width="34.48" height="2.4"/><rect class="cls-7" x="586.69" y="286.85" width="36.08" height="2.4"/><rect class="cls-7" x="632.36" y="286.85" width="42.06" height="2.4"/><rect class="cls-7" x="541.02" y="291.66" width="38.7" height="2.4"/><rect class="cls-7" x="586.69" y="291.66" width="42.06" height="2.4"/><rect class="cls-7" x="632.36" y="291.66" width="37.25" height="2.4"/><rect class="cls-7" x="541.02" y="296.46" width="42.07" height="2.41"/><rect class="cls-7" x="586.69" y="296.46" width="36.08" height="2.41"/><rect class="cls-7" x="632.36" y="296.46" width="31.79" height="2.41"/><rect class="cls-9" x="586.69" y="232.77" width="42.06" height="30.05"/><rect class="cls-10" x="632.36" y="232.77" width="42.06" height="30.05"/><rect class="cls-18" x="541.02" y="303.62" width="24.8" height="2.4"/><rect class="cls-18" x="568.7" y="303.62" width="35.07" height="2.4"/><rect class="cls-18" x="607.51" y="303.62" width="34.79" height="2.4"/><rect class="cls-18" x="645.75" y="303.62" width="28.67" height="2.4"/><rect class="cls-18" x="541.02" y="308.43" width="6.11" height="2.4"/><rect class="cls-18" x="551.16" y="308.43" width="27.89" height="2.4"/><rect class="cls-18" x="581.92" y="308.43" width="35.93" height="2.4"/><rect class="cls-18" x="620.73" y="308.43" width="32.2" height="2.4"/><rect class="cls-18" x="654.95" y="308.43" width="19.47" height="2.4"/><rect class="cls-18" x="541.02" y="313.24" width="24.51" height="2.4"/><rect class="cls-18" x="568.7" y="313.24" width="36.51" height="2.4"/><rect class="cls-18" x="608.37" y="313.24" width="23.86" height="2.4"/><rect class="cls-18" x="635.68" y="313.24" width="30.19" height="2.4"/><rect class="cls-18" x="668.17" y="313.24" width="6.25" height="2.4"/><rect class="cls-18" x="541.02" y="318.05" width="23.65" height="2.4"/><rect class="cls-18" x="595.43" y="318.05" width="30.19" height="2.4"/><rect class="cls-18" x="629.93" y="318.05" width="20.7" height="2.4"/><rect class="cls-18" x="655.23" y="318.05" width="19.18" height="2.4"/><rect class="cls-18" x="568.41" y="318.05" width="23.86" height="2.4"/><rect class="cls-18" x="541.02" y="322.85" width="8.7" height="2.4"/><rect class="cls-18" x="552.59" y="322.85" width="25.59" height="2.4"/><rect class="cls-18" x="614.12" y="322.85" width="31.33" height="2.4"/><rect class="cls-18" x="649.2" y="322.85" width="25.22" height="2.4"/><rect class="cls-18" x="581.35" y="322.85" width="26.74" height="2.4"/><rect class="cls-18" x="558.63" y="327.66" width="30.48" height="2.4"/><rect class="cls-18" x="591.98" y="327.66" width="30.48" height="2.4"/><rect class="cls-18" x="660.98" y="327.66" width="13.44" height="2.4"/><rect class="cls-18" x="624.47" y="327.66" width="33.35" height="2.4"/><rect class="cls-18" x="541.02" y="327.66" width="15.32" height="2.4"/><rect class="cls-18" x="606.64" y="332.47" width="31.34" height="2.4"/><rect class="cls-18" x="541.02" y="332.47" width="8.7" height="2.4"/><rect class="cls-18" x="553.17" y="332.47" width="24.44" height="2.4"/><rect class="cls-18" x="580.77" y="332.47" width="23.86" height="2.4"/><rect class="cls-18" x="667.59" y="332.47" width="6.82" height="2.4"/><rect class="cls-18" x="641.43" y="332.47" width="24.15" height="2.4"/><rect class="cls-18" x="649.41" y="339.61" width="24.8" height="2.4"/><rect class="cls-18" x="611.46" y="339.61" width="35.08" height="2.4"/><rect class="cls-18" x="572.93" y="339.61" width="34.79" height="2.4"/><rect class="cls-18" x="540.81" y="339.61" width="28.67" height="2.4"/><rect class="cls-18" x="668.1" y="344.42" width="6.11" height="2.41"/><rect class="cls-18" x="636.18" y="344.42" width="27.88" height="2.41"/><rect class="cls-18" x="597.37" y="344.42" width="35.94" height="2.41"/><rect class="cls-18" x="562.29" y="344.42" width="32.2" height="2.41"/><rect class="cls-18" x="540.81" y="344.42" width="19.47" height="2.41"/><rect class="cls-18" x="649.69" y="349.23" width="24.51" height="2.41"/><rect class="cls-18" x="610.02" y="349.23" width="36.51" height="2.41"/><rect class="cls-18" x="582.99" y="349.23" width="23.86" height="2.41"/><rect class="cls-18" x="549.35" y="349.23" width="30.19" height="2.41"/><rect class="cls-18" x="540.81" y="349.23" width="6.25" height="2.41"/><rect class="cls-18" x="650.56" y="354.03" width="23.65" height="2.4"/><rect class="cls-18" x="589.61" y="354.03" width="30.19" height="2.4"/><rect class="cls-18" x="564.59" y="354.03" width="20.7" height="2.4"/><rect class="cls-18" x="540.81" y="354.03" width="19.18" height="2.4"/><rect class="cls-18" x="622.96" y="354.03" width="23.86" height="2.4"/><rect class="cls-18" x="665.51" y="358.84" width="8.7" height="2.4"/><rect class="cls-18" x="637.04" y="358.84" width="25.59" height="2.4"/><rect class="cls-18" x="569.76" y="358.84" width="31.34" height="2.4"/><rect class="cls-18" x="540.81" y="358.84" width="25.22" height="2.4"/><rect class="cls-18" x="607.14" y="358.84" width="26.74" height="2.4"/><rect class="cls-18" x="626.12" y="363.65" width="30.48" height="2.4"/><rect class="cls-18" x="592.77" y="363.65" width="30.47" height="2.4"/><rect class="cls-18" x="540.81" y="363.65" width="13.43" height="2.4"/><rect class="cls-18" x="557.41" y="363.65" width="33.35" height="2.4"/><rect class="cls-18" x="658.89" y="363.65" width="15.31" height="2.4"/><rect class="cls-18" x="577.25" y="368.45" width="31.33" height="2.41"/><rect class="cls-18" x="665.51" y="368.45" width="8.7" height="2.41"/><rect class="cls-18" x="637.61" y="368.45" width="24.44" height="2.41"/><rect class="cls-18" x="610.59" y="368.45" width="23.86" height="2.41"/><rect class="cls-18" x="540.81" y="368.45" width="6.82" height="2.41"/><rect class="cls-18" x="549.64" y="368.45" width="24.15" height="2.41"/></g><path class="cls-14" d="M659.11,264.47H589.62a19.78,19.78,0,0,0-14.06,5.89,20,20,0,0,0-5.85,14.16V477.18a20,20,0,0,0,5.85,14.16,19.77,19.77,0,0,0,14.06,5.89h69.49V264.47Z" transform="translate(-51.5 -102.77)"/></svg>